<svg width="56" height="56" viewBox="0 0 56 56" fill="none" xmlns="http://www.w3.org/2000/svg">
<path d="M16.2839 29.8949C16.3128 21.4844 16.3412 13.1172 16.3712 4.74994C16.3757 3.46987 17.451 2.35753 18.7932 2.28281C19.3034 2.25441 19.8414 2.23044 20.3276 2.3561C21.7347 2.71981 22.4544 3.66794 22.6084 5.1122C22.814 7.04122 23.0648 8.96538 23.2839 10.893C23.4722 12.5495 23.6376 14.2086 23.8232 15.8654C24.0121 17.5504 24.2155 19.2338 24.4084 20.9185C24.5604 22.2463 24.6927 23.5766 24.8687 24.9012C24.8952 25.1007 25.1122 25.2748 25.2411 25.4607C25.4032 25.3225 25.6397 25.2165 25.7159 25.041C26.3758 23.5211 27.0068 21.9888 27.6464 20.4601C29.0036 17.2164 30.3607 13.9727 31.718 10.7291C32.6858 8.41606 33.6476 6.10044 34.6248 3.79131C35.0242 2.84737 36.1881 1.99097 37.2763 2.00007C38.2046 2.00784 39.0542 2.17126 39.7665 2.79645C40.4315 3.38004 40.8258 4.09717 40.8941 5.0003C40.9662 5.95441 40.6558 6.81032 40.3481 7.6856C39.6259 9.73994 38.9502 11.8105 38.2447 13.8708C36.7593 18.209 35.2669 22.5448 33.7783 26.882C33.7606 26.9337 33.7566 26.9902 33.7458 27.0465C34.1707 27.0723 34.5771 27.1034 34.984 27.1204C36.5978 27.1879 37.7551 27.9516 38.3873 29.4318C38.6115 29.9565 38.9133 30.0869 39.4623 30.0858C41.0912 30.0828 42.3045 30.8421 43.0364 32.3009C43.4481 33.1215 43.3622 34.0259 43.2858 34.8967C43.0182 37.9485 42.1173 40.8547 41.131 43.7317C40.2714 46.239 39.0393 48.5693 37.1451 50.4418C35.2691 52.2962 32.9965 53.4694 30.3273 53.8073C27.714 54.138 25.1509 53.9611 22.6448 53.1511C20.9214 52.5941 19.4199 51.641 18.0298 50.487C17.0808 49.699 16.4905 48.6636 15.9308 47.6119C14.4443 44.8187 13.3043 41.8738 12.2009 38.9143C11.8228 37.9 11.9657 37.0483 12.7379 36.2263C13.9093 34.9796 14.9977 33.6546 16.1075 32.3511C16.2158 32.2239 16.2705 32.0157 16.2759 31.8428C16.2955 31.2084 16.2838 30.5731 16.2839 29.8949ZM16.7183 7.10662C16.7226 7.2541 16.7269 7.40159 16.719 7.6282C16.743 8.00529 16.767 8.38238 16.7682 8.83676C16.775 9.10234 16.7818 9.36792 16.7665 9.70083C16.7738 11.0648 16.7811 12.4287 16.7682 13.8603C16.7752 14.6445 16.7822 15.4287 16.7684 16.2888C16.7559 17.0145 16.7434 17.7403 16.7192 18.546C16.7296 19.2989 16.74 20.0518 16.7355 20.8842C16.7291 24.5429 16.7185 28.2015 16.7235 31.8602C16.7239 32.1876 16.6256 32.4245 16.4133 32.6661C15.4069 33.8118 14.4175 34.9724 13.369 36.1516C13.1907 36.359 13.0232 36.577 12.8321 36.7719C12.3385 37.2752 12.2892 37.8603 12.4997 38.4921C12.5947 38.7774 12.7174 39.0534 12.8295 39.397C13.1897 40.3272 13.5499 41.2573 13.9322 42.24C14.245 42.9621 14.5578 43.6841 14.8811 44.4651C15.0275 44.7814 15.174 45.0977 15.3236 45.469C15.3774 45.5618 15.4312 45.6546 15.4925 45.8095C15.6157 46.0465 15.7388 46.2836 15.8681 46.5801C16.0019 46.8216 16.1357 47.0632 16.2792 47.3651C16.4204 47.6049 16.5617 47.8447 16.708 48.1428C16.7931 48.2679 16.8781 48.393 16.976 48.5765C17.1199 48.7871 17.2637 48.9977 17.4281 49.2557C17.4977 49.3302 17.5672 49.4048 17.6586 49.5333C17.7758 49.6584 17.893 49.7835 18.0329 49.9602C18.1693 50.0558 18.3056 50.1514 18.4695 50.2987C18.8616 50.5883 19.2536 50.878 19.6855 51.2052C19.9663 51.3739 20.2471 51.5427 20.5593 51.7513C20.6045 51.7729 20.6497 51.7945 20.7227 51.8674C20.8811 51.9366 21.0395 52.0059 21.2361 52.1233C21.4799 52.2248 21.7238 52.3263 22.0133 52.4726C22.3107 52.5765 22.6082 52.6804 22.9606 52.8223C23.4782 52.9458 23.9958 53.0694 24.5707 53.2309C25.8742 53.3366 27.177 53.5219 28.4813 53.5325C31.9013 53.5603 34.8449 52.3034 37.1554 49.8133C39.5311 47.253 40.7708 44.0732 41.6616 40.6843C41.8534 39.9783 42.0452 39.2723 42.2651 38.5058C42.3515 38.0888 42.4379 37.6718 42.5504 37.1885C42.5931 36.9264 42.6358 36.6643 42.699 36.3399C42.7264 36.0964 42.7537 35.853 42.7984 35.5345C42.8218 35.2417 42.8452 34.9489 42.8869 34.5776C42.882 34.2 42.8771 33.8224 42.8811 33.3747C42.8537 32.6072 42.4994 31.986 41.9582 31.4811C40.9594 30.5495 39.7441 30.3194 38.4533 30.5058C38.2763 30.1559 38.1161 29.8394 37.9476 29.464C37.6861 29.1168 37.4247 28.7695 37.1409 28.3682C36.2146 27.557 35.108 27.4172 33.863 27.5064C33.6096 27.515 33.3562 27.5235 33.1316 27.4781C33.2561 27.1001 33.3806 26.7221 33.5323 26.2842C33.6486 25.9289 33.7648 25.5736 33.9244 25.1722C34.0885 24.6708 34.2526 24.1694 34.4586 23.622C34.6415 23.0574 34.8244 22.4927 35.0509 21.881C35.2403 21.2998 35.4296 20.7186 35.6666 20.0926C35.9277 19.334 36.1925 18.5766 36.4492 17.8165C36.9851 16.2296 37.5167 14.6412 38.0954 13.0059C38.1702 12.7629 38.245 12.5199 38.3602 12.2258C38.565 11.5918 38.7698 10.9577 38.9872 10.2569C39.4499 8.93839 39.9414 7.62911 40.3681 6.29904C40.9361 4.52849 39.9365 2.86039 38.0463 2.44391C36.7589 2.2432 35.7813 2.67428 35.0915 3.76961C34.2852 5.69486 33.479 7.6201 32.6416 9.60064C32.449 10.0728 32.2564 10.5449 32.0258 11.0673C31.7519 11.7164 31.4746 12.3642 31.2047 13.0149C30.4517 14.8306 29.7017 16.6475 28.9189 18.5194C28.5131 19.509 28.1073 20.4986 27.6573 21.5302C27.2607 22.4955 26.8642 23.4608 26.43 24.4728C26.3276 24.7204 26.2285 24.9694 26.1221 25.2153C25.8662 25.8068 25.5995 25.9533 24.9182 25.8248C24.4682 25.5681 24.4556 25.1118 24.4008 24.6035C24.3552 24.2888 24.3096 23.9741 24.2732 23.5832C24.1939 22.8817 24.1147 22.1801 24.0409 21.4084C24.0216 21.2928 24.0022 21.1773 23.991 20.9902C23.9594 20.7542 23.9277 20.5183 23.9045 20.2095C23.6096 17.6072 23.3146 15.0049 23.0265 12.3328C22.9706 11.9237 22.9146 11.5145 22.8681 11.0322C22.8112 10.7083 22.7543 10.3843 22.694 9.98269C22.6837 9.75024 22.6735 9.51778 22.6714 9.21411C22.5344 8.05473 22.4195 6.89212 22.2511 5.7373C22.1652 5.14863 21.9834 4.57395 21.8341 3.9396C21.76 3.83681 21.6859 3.73402 21.5835 3.5784C21.198 3.09931 20.6718 2.86344 20.0268 2.6944C19.7896 2.67684 19.5523 2.65927 19.2463 2.63376C18.9327 2.69471 18.6191 2.75567 18.244 2.8254C17.4102 3.14185 16.8469 3.70511 16.7814 4.61938C16.7323 5.30477 16.7821 5.99724 16.7633 6.75378C16.7523 6.84702 16.7414 6.94026 16.7183 7.10662Z" stroke="#FAFAFA" stroke-width="1.5"/>
</svg>
