<svg width="56" height="56" viewBox="0 0 56 56" fill="none" xmlns="http://www.w3.org/2000/svg">
<path fill-rule="evenodd" clip-rule="evenodd" d="M23.1517 52.5068C23.1508 52.5066 23.15 52.5057 23.1491 52.5055C11.5878 50.1605 3.19841 39.8968 3.19841 28.1006C3.19841 14.3684 14.3906 3.19688 28.146 3.19688C28.1457 3.19688 28.1463 3.19688 28.146 3.19688C41.9009 3.19738 53.0908 14.3687 53.0908 28.1006C53.0908 39.8595 44.759 50.0904 33.2612 52.4802C33.2204 52.4887 33.1796 52.4971 33.1387 52.5054C33.1377 52.5056 33.1366 52.5058 33.1355 52.506L33.3757 53.6771C33.3755 53.6771 33.376 53.677 33.3757 53.6771C33.4227 53.6676 33.4705 53.6578 33.5174 53.648C33.962 53.5555 34.402 53.4519 34.8373 53.3373C46.1955 50.3487 54.291 39.9669 54.291 28.1006C54.291 13.7085 42.5629 2 28.1469 2C28.1472 2 28.1466 2 28.1469 2C13.7304 2.0005 2 13.7089 2 28.1006C2 39.9625 10.0955 50.3449 21.4537 53.3369C21.9349 53.4636 22.422 53.5771 22.9145 53.6769C22.9142 53.6769 22.9148 53.677 22.9145 53.6769L23.1517 52.5068Z" fill="#FAFAFA"/>
<path fill-rule="evenodd" clip-rule="evenodd" d="M19.1034 26.7568C18.8348 27.023 18.509 27.5089 18.2503 28.1292C17.9915 28.7497 17.876 29.3222 17.876 29.6984V36.6985C17.876 37.1665 18.2656 37.5689 18.763 37.5689H23.7533V31.7384C23.7533 30.1217 25.0693 28.819 26.6788 28.819H29.6101C31.2185 28.819 32.5367 30.1196 32.5367 31.7384V37.5689H37.5263C38.0223 37.5692 38.414 37.1668 38.414 36.6985V29.6984C38.414 29.3211 38.2984 28.7484 38.0401 28.1278C37.7819 27.5074 37.4565 27.0204 37.188 26.753L28.7804 18.3886L28.7794 18.3875C28.7792 18.3874 28.7796 18.3877 28.7794 18.3875C28.4699 18.0815 27.8171 18.084 27.5138 18.3854C27.5137 18.3854 27.5138 18.3853 27.5138 18.3854L19.1034 26.7568ZM26.4561 17.3218C27.3452 16.4378 28.9419 16.4368 29.8352 17.3221L38.2466 25.6902C38.691 26.133 39.1136 26.8032 39.425 27.5514C39.7364 28.2997 39.914 29.0714 39.914 29.6984V36.6985C39.914 38.0047 38.842 39.0697 37.5263 39.0689H31.8107C31.384 39.0689 31.0367 38.7208 31.0367 38.3016V31.7384C31.0367 30.9551 30.3973 30.319 29.6101 30.319H26.6788C25.8921 30.319 25.2533 30.9557 25.2533 31.7384V38.3016C25.2533 38.7211 24.9057 39.0689 24.4803 39.0689H18.763C17.4462 39.0689 16.376 38.0038 16.376 36.6985V29.6984C16.376 29.0721 16.5537 28.3002 16.8658 27.5519C17.178 26.8035 17.6016 26.1334 18.0475 25.6914L26.4561 17.3218Z" fill="#FAFAFA"/>
</svg>
