<svg width="131" height="56" viewBox="0 0 131 56" fill="none" xmlns="http://www.w3.org/2000/svg">
<path d="M8.08581 32.0262V44.7449H3.75V31.8578C3.75 26.317 8.27523 21.8071 13.8286 21.8071C16.6019 21.8071 19.2461 22.963 21.156 24.9789L21.7021 25.5553L22.2465 24.9773C24.1531 22.9528 26.8082 21.8071 29.6112 21.8071C29.9138 21.8071 30.2046 21.8191 30.509 21.8434C33.0395 22.0605 35.3649 23.2271 37.0665 25.1312L37.0681 25.133C38.7732 27.029 39.7158 29.4796 39.7158 32.0262V44.7449H35.2503L35.2503 31.8578L35.2503 31.8542C35.2353 28.7553 32.6771 26.2385 29.5722 26.2385C29.3876 26.2385 29.1947 26.2533 29.0351 26.2656L29.0221 26.2666L29.0127 26.2673L29.0034 26.2682C26.198 26.5544 23.8943 29.1658 23.8943 32.0003V44.7449H19.4288L19.4288 31.8967L19.4288 31.8931C19.4139 28.7876 16.8751 26.2514 13.7638 26.2514C13.5792 26.2514 13.3862 26.2662 13.2267 26.2785L13.2137 26.2795L13.2041 26.2802L13.1946 26.2812C10.4028 26.5675 8.08581 29.1783 8.08581 32.0262ZM127.655 32.9845V34.9672H110.262H109.273L109.539 35.9192C110.433 39.1158 113.346 41.3626 116.72 41.3626C119.283 41.3626 121.608 40.0935 122.992 37.947L126.577 39.7086C124.441 43.1231 120.649 45.2371 116.617 45.2371H116.603C113.46 45.2371 110.513 43.9981 108.279 41.7424C106.046 39.4877 104.841 36.5204 104.878 33.382C104.914 30.3019 106.132 27.4189 108.303 25.2384L107.772 24.7092L108.303 25.2384C110.471 23.0613 113.368 21.8447 116.439 21.8071H116.59C119.536 21.8071 122.301 22.9792 124.408 25.1061C126.502 27.234 127.655 30.0243 127.655 32.9845ZM122.374 31.546H123.419L123.085 30.5564C122.127 27.7166 119.406 25.7204 116.357 25.7204C113.308 25.7204 110.585 27.7164 109.641 30.5596L109.313 31.546H110.353H122.374ZM100.68 12.8852C100.68 14.6158 99.2752 16.0204 97.5399 16.0204C95.8045 16.0204 94.3992 14.6157 94.3992 12.8852C94.3992 11.1547 95.8045 9.75 97.5399 9.75C99.2752 9.75 100.68 11.1546 100.68 12.8852ZM44.3151 33.5416C44.3151 27.0923 49.5684 21.833 56.0409 21.833C62.5134 21.833 67.7666 27.0923 67.7666 33.5416C67.7666 39.9901 62.5009 45.25 56.0409 45.25C49.5808 45.25 44.3151 39.9901 44.3151 33.5416ZM48.7288 33.5545C48.7288 37.5829 52.0093 40.8574 56.0409 40.8574C60.0721 40.8574 63.3527 37.5829 63.3527 33.5545C63.3527 29.5261 60.0721 26.2514 56.0409 26.2514C52.0093 26.2514 48.7288 29.5261 48.7288 33.5545ZM72.4827 44.7709V10.3328H76.9483V44.7709H72.4827ZM83.895 10.3328H88.3601V44.7709H83.895V10.3328ZM95.3068 44.7579V22.4287H99.7724V44.7579H95.3068Z" stroke="#FAFAFA" stroke-width="1.5"/>
</svg>
