<svg width="56" height="56" viewBox="0 0 56 56" fill="none" xmlns="http://www.w3.org/2000/svg">
<path fill-rule="evenodd" clip-rule="evenodd" d="M35.3058 47.405L35.7147 46.7152C37.3151 44.0153 36.3891 41.1162 34.1251 38.0338C32.4335 35.7306 30.1695 33.5606 28.0976 31.5747C27.3959 30.9021 26.7162 30.2507 26.0882 29.6223C26.0882 29.6223 26.0883 29.6224 26.0882 29.6223C25.5548 29.0889 24.9564 28.5244 24.3127 27.9173C24.2518 27.8598 24.1905 27.8019 24.1287 27.7437C23.4195 27.0744 22.665 26.3589 21.9172 25.6046C20.4257 24.1 18.9251 22.4061 17.8108 20.5342C16.6933 18.6566 15.9397 16.5587 16.0038 14.2627C16.0681 11.956 16.9547 9.55955 18.925 7.08949L19.6549 6.17443L21.0461 7.69602L20.6712 8.33283C19.081 11.0334 20.0097 13.9343 22.2715 17.0158C23.9659 19.3244 26.2344 21.4991 28.3076 23.4866C29.0019 24.1522 29.6743 24.7968 30.2959 25.4184C30.8305 25.9534 31.4307 26.5198 32.0763 27.1289C32.1354 27.1847 32.1949 27.2408 32.2547 27.2972C32.9636 27.9664 33.7178 28.6818 34.4654 29.4359C35.9565 30.9401 37.457 32.6336 38.5714 34.505C39.6892 36.3821 40.4432 38.4795 40.3801 40.7751C40.3167 43.0815 39.4315 45.4778 37.4629 47.9479L36.7868 48.7962L35.3058 47.405ZM37.5135 44.1664C37.7345 39.4235 32.7326 34.6301 28.7373 30.8015C28.0497 30.1425 27.3918 29.5121 26.7956 28.9155C26.2511 28.371 25.6418 27.7963 25.0007 27.1915C20.6167 23.0563 14.7411 17.5141 17.8914 10.6092C18.2227 9.88293 18.654 9.14157 19.1973 8.38518C19.3489 8.17409 19.5093 7.96183 19.6786 7.74839C19.688 7.73662 19.6973 7.72485 19.7067 7.71307L19.8095 7.82543C19.2206 8.8255 18.9315 9.83792 18.8813 10.8527C18.6458 15.6125 23.6663 20.4245 27.6669 24.259C28.3473 24.9111 28.9982 25.535 29.5888 26.1255C30.1344 26.6715 30.7452 27.2478 31.388 27.8544C35.765 31.9842 41.6272 37.5155 38.5041 44.4072C38.1912 45.0976 37.7881 45.8018 37.2843 46.5195C37.103 46.7778 36.9086 47.0379 36.7007 47.2997C36.6941 47.308 36.6875 47.3164 36.6808 47.3247L36.5749 47.2252C37.1738 46.2147 37.4657 45.1917 37.5135 44.1664ZM31.3464 50.0729C31.3464 51.8328 29.9222 53.285 28.1729 53.285C26.4006 53.285 24.9609 51.8452 24.9609 50.0729C24.9609 48.3278 26.4121 46.8994 28.1729 46.8994C29.9067 46.8994 31.3464 48.3391 31.3464 50.0729ZM31.3464 5.17353C31.3464 6.93438 29.918 8.38559 28.1729 8.38559C26.4016 8.38559 24.9609 6.94998 24.9609 5.17353C24.9609 3.42559 26.4245 2 28.1729 2C29.9067 2 31.3464 3.43977 31.3464 5.17353ZM30.3464 50.0729C30.3464 51.2929 29.3576 52.285 28.1729 52.285C26.9529 52.285 25.9609 51.2929 25.9609 50.0729C25.9609 48.8914 26.9529 47.8994 28.1729 47.8994C29.3544 47.8994 30.3464 48.8914 30.3464 50.0729ZM30.3464 5.17353C30.3464 6.39354 29.3544 7.38559 28.1729 7.38559C26.9529 7.38559 25.9609 6.39675 25.9609 5.17353C25.9609 3.99205 26.9625 3 28.1729 3C29.3544 3 30.3464 3.99205 30.3464 5.17353Z" fill="#FAFAFA"/>
</svg>
