<svg width="56" height="56" viewBox="0 0 56 56" fill="none" xmlns="http://www.w3.org/2000/svg">
<path d="M39.5337 13.6103L39.5336 13.6014C39.4595 7.30121 34.4145 2.25 28.104 2.25C21.7952 2.25 16.7438 7.30146 16.7438 13.6103V15.9116H13.8183C7.43394 15.9116 2.25 21.1773 2.25 27.5492C2.25 33.9936 7.43704 39.1869 13.8183 39.1869H42.3897C48.626 39.1869 53.75 34.1386 53.75 27.8266C53.75 24.5002 52.3315 21.509 50.0741 19.4356C50.0372 16.557 47.7046 14.2472 44.8169 14.2472C41.9062 14.2472 39.5593 16.5941 39.5593 19.5049C39.5593 22.4156 41.9062 24.7625 44.8169 24.7625C45.9805 24.7625 47.0459 24.3978 47.9222 23.7539C48.745 24.8454 49.1987 26.1908 49.1987 27.6879C49.1987 31.4346 46.2058 34.4275 42.4591 34.4275H13.8877C10.0716 34.4275 6.94001 31.2959 6.94001 27.4799C6.94001 23.6639 10.0716 20.5323 13.8877 20.5323H19.0888C20.4045 20.5323 21.4338 19.503 21.4338 18.1872V13.6103C21.4338 9.86359 24.4267 6.87067 28.1734 6.87067C31.8552 6.87067 34.913 9.8681 34.913 13.6103L34.913 13.6138L34.9823 28.1734C34.9823 28.1739 34.9823 28.1745 34.9823 28.175C34.9827 28.8407 35.2138 29.4046 35.6125 29.8151C36.0026 30.217 36.5141 30.4324 37.0201 30.4879C38.0074 30.5962 39.1855 30.0897 39.5093 28.8481L39.5336 28.755V28.6588L39.5337 13.6103ZM16.8131 42.1817V42.9317H16.9518V43.43C16.9518 49.6694 22.0033 54.7209 28.2427 54.7209C34.4822 54.7209 39.5336 49.6694 39.5336 43.43V41.7656C39.5336 40.4499 38.5044 39.4206 37.1886 39.4206C35.8519 39.4206 34.8436 40.5405 34.8436 41.7656V43.43C34.8436 47.1073 31.8507 50.1002 28.1734 50.1002C24.496 50.1002 21.5031 47.1073 21.5031 43.43V42.1817C21.5031 40.8659 20.4738 39.8367 19.1581 39.8367C17.8214 39.8367 16.8131 40.9566 16.8131 42.1817ZM45.8006 19.6435C45.8006 20.2002 45.3042 20.6966 44.7476 20.6966C44.1403 20.6966 43.6945 20.2192 43.6945 19.6435C43.6945 19.0869 44.1909 18.5905 44.7476 18.5905C45.3042 18.5905 45.8006 19.0869 45.8006 19.6435Z" stroke="#FAFAFA" stroke-width="1.5"/>
</svg>
