<svg width="56" height="56" viewBox="0 0 56 56" fill="none" xmlns="http://www.w3.org/2000/svg">
<path d="M8.22852 20.5337V21.2837H8.97852C9.34124 21.2837 9.70103 21.2837 10.0587 21.2836C10.9295 21.2836 11.7879 21.2835 12.6464 21.2839C12.8217 21.2839 12.9888 21.2822 13.1509 21.2805C13.5113 21.2767 13.847 21.2732 14.1939 21.2905C14.6526 21.3133 14.9529 21.441 15.1435 21.6063C15.3279 21.7661 15.4796 22.0213 15.5324 22.4423C15.6208 23.1467 15.6228 23.8808 15.5377 24.5852C15.4844 25.026 15.3238 25.2892 15.1261 25.4516C14.9197 25.621 14.5883 25.7497 14.0765 25.755C12.9192 25.7671 11.7645 25.7644 10.5941 25.7616C10.0863 25.7604 9.57555 25.7593 9.06033 25.7593H8.46555L8.33005 26.3384C8.32304 26.3683 8.31857 26.3835 8.31134 26.408C8.30564 26.4273 8.29823 26.4524 8.28652 26.4951C8.26751 26.5644 8.23351 26.695 8.23361 26.8505C8.23406 27.5376 8.23428 28.2249 8.2345 28.9124C8.23538 31.6445 8.23626 34.3788 8.25152 37.1128C8.25934 38.5152 8.73941 39.7336 9.77449 40.4771C10.7955 41.2106 12.1939 41.3638 13.7934 41.0062C14.4838 40.8518 14.907 40.9495 15.1391 41.1093C15.3498 41.2544 15.562 41.5617 15.5787 42.2266C15.5971 42.9638 15.5842 43.4966 15.5221 43.9012C15.4616 44.2962 15.3615 44.516 15.2424 44.6642C15.123 44.8128 14.9282 44.9594 14.5514 45.1063C14.1662 45.2564 13.6434 45.3871 12.913 45.5319C11.045 45.9021 9.20028 45.9804 7.30546 45.5766C5.20365 44.9539 3.96508 43.5625 3.43401 41.5575C3.04604 40.0928 2.80852 38.5556 2.79243 37.0625C2.73897 32.1026 2.74782 27.1436 2.75668 22.1792C2.75962 20.5269 2.76257 18.874 2.76323 17.2202C2.76358 16.3327 2.93735 15.9328 3.14052 15.7304C3.34481 15.5268 3.74858 15.3534 4.63977 15.351C4.85785 15.3504 5.07016 15.3481 5.27875 15.3458C5.78949 15.3402 6.27802 15.3349 6.77475 15.3556C7.32441 15.3786 7.65468 15.5413 7.85297 15.7456C8.05294 15.9517 8.21034 16.2946 8.226 16.857C8.23732 17.264 8.23441 17.6627 8.23139 18.0763C8.22997 18.2705 8.22853 18.4679 8.22853 18.671L8.22852 20.5337Z" stroke="#FAFAFA" stroke-width="1.5"/>
<path d="M32.7686 23.0881L32.7686 23.0881C32.7761 23.5549 32.7781 24.0175 32.7682 24.4771C32.7538 25.1442 32.5863 25.5209 32.3728 25.7421C32.159 25.9637 31.7884 26.1441 31.1252 26.1842C30.821 26.2026 30.5107 26.2185 30.1966 26.2347C29.288 26.2813 28.3468 26.3296 27.4245 26.4441C26.6575 26.5392 25.9374 26.7234 25.4649 27.2807C25.0001 27.8288 24.9231 28.5676 24.9226 29.3227C24.9207 32.6916 24.9211 36.0607 24.9215 39.4294C24.9217 40.7295 24.9218 42.0295 24.9219 43.3294C24.9219 43.3727 24.9219 43.4147 24.922 43.4561C24.9221 43.5249 24.9222 43.5921 24.922 43.661C24.9194 44.6928 24.7468 45.1173 24.5354 45.3268C24.3202 45.5401 23.8776 45.7178 22.8127 45.7284C22.6105 45.7284 22.4197 45.729 22.2362 45.7297C21.8602 45.731 21.5151 45.7322 21.1656 45.7271C20.4092 45.716 20.0285 45.5454 19.8236 45.3424C19.6198 45.1406 19.4483 44.7667 19.436 44.0194C19.4299 43.6453 19.4315 43.2762 19.4331 42.8982C19.4338 42.7226 19.4346 42.5452 19.4346 42.3644C19.4346 41.1773 19.434 39.9904 19.4335 38.8038C19.4318 35.3218 19.4302 31.8416 19.4425 28.3608C19.4453 27.5645 19.503 26.7618 19.614 25.9732C19.8741 24.1237 20.8266 22.8844 22.5244 22.4476C24.0922 22.0443 25.708 21.8275 27.37 21.6045C27.6887 21.5617 28.009 21.5187 28.3311 21.4741L28.2283 20.7312L28.3311 21.4741C28.9523 21.3882 29.5688 21.3821 30.2379 21.3756C30.4815 21.3732 30.732 21.3707 30.9922 21.3643C31.7278 21.3463 32.1258 21.5156 32.3482 21.731C32.5719 21.9476 32.7567 22.3448 32.7686 23.0881Z" stroke="#FAFAFA" stroke-width="1.5"/>
<path d="M39.8967 45.5731C39.6326 45.5742 39.3804 45.5773 39.1363 45.5803C38.5312 45.5878 37.9756 45.5946 37.4107 45.5684C36.8379 45.5418 36.4988 45.3776 36.3019 45.1776C36.1083 44.9808 35.9557 44.6513 35.9545 44.0921C35.9394 37.0288 35.9393 29.9654 35.9562 22.9022C35.9576 22.3551 36.1138 22.025 36.3134 21.8267C36.5165 21.6249 36.8601 21.4647 37.418 21.4489C38.2656 21.4249 39.1144 21.4246 39.9606 21.4499C40.4766 21.4654 40.7842 21.6038 40.9741 21.7795C41.1651 21.9561 41.3282 22.2547 41.3888 22.7683C41.4075 22.9269 41.4075 23.0925 41.4075 23.3127C41.4075 23.3238 41.4075 23.3351 41.4075 23.3465C41.4076 23.9543 41.4077 24.562 41.4078 25.1698C41.409 31.3484 41.4101 37.5267 41.4074 43.7051C41.407 44.5211 41.2729 44.8905 41.1048 45.0909C40.9459 45.2803 40.6352 45.4617 39.8967 45.5731Z" stroke="#FAFAFA" stroke-width="1.5"/>
<path d="M51.0642 22.7374L51.0642 22.7374C51.0953 22.9567 51.1021 23.1933 51.1022 23.4633C51.1046 30.1629 51.1048 36.8626 51.1016 43.5622C51.1014 43.8509 51.0899 44.1136 51.0507 44.3557L51.791 44.4756L51.0507 44.3557C50.9767 44.8129 50.8303 45.0755 50.6653 45.2322C50.5038 45.3856 50.245 45.5133 49.7941 45.5466C48.9498 45.6088 48.089 45.5963 47.2028 45.5722C46.5511 45.5544 46.1967 45.3862 45.9977 45.1835C45.7984 44.9805 45.6347 44.6205 45.628 43.9605C45.6124 42.4188 45.6156 40.8795 45.6189 39.3349C45.6202 38.6842 45.6216 38.0326 45.6215 37.3795C45.6214 35.7572 45.6214 34.135 45.6215 32.4858C45.6215 31.7327 45.6215 30.9739 45.6215 30.207C45.6215 29.4871 45.621 28.7755 45.6204 28.0696C45.6192 26.4558 45.618 24.8719 45.6232 23.2871C45.626 22.4306 45.8 22.0309 46.0043 21.8255C46.2075 21.6211 46.6013 21.4478 47.4467 21.4447C47.644 21.444 47.8378 21.4423 48.0292 21.4406C48.5869 21.4355 49.1241 21.4307 49.6662 21.452C50.1657 21.4716 50.4608 21.605 50.6447 21.7737C50.8303 21.944 50.9926 22.2329 51.0642 22.7374Z" stroke="#FAFAFA" stroke-width="1.5"/>
<path d="M37.9531 11.6705L37.761 10.9504L37.9531 11.6705C38.8182 11.4397 39.5958 11.5827 40.1959 12.0896L40.6575 11.5431L40.1959 12.0896C41.217 12.952 42.2881 13.4315 43.4214 13.4167C44.5496 13.4019 45.6078 12.8986 46.6097 12.0633L46.1345 11.4933L46.6097 12.0633C47.6162 11.224 48.7125 10.7193 49.9918 10.7515C50.7461 10.7704 51.3552 10.9495 51.8438 11.2583C52.3311 11.5662 52.7409 12.0299 53.0566 12.6856C53.6838 13.9879 53.5411 15.2168 52.6293 16.3419C51.7353 17.445 50.5886 17.8436 49.2176 17.5126C48.6551 17.3768 48.1168 17.105 47.4951 16.7911C47.414 16.7501 47.3315 16.7084 47.2472 16.6663C46.8356 16.46 46.4342 16.1914 46.0567 15.8885C45.2443 15.2366 44.3797 14.8793 43.4618 14.8875C42.5516 14.8955 41.6933 15.2621 40.8852 15.858C40.6497 16.0317 40.3733 16.179 40.0429 16.3324C39.8948 16.4011 39.7428 16.468 39.5805 16.5395C39.5619 16.5477 39.5431 16.5559 39.5242 16.5643C39.3844 16.6258 39.238 16.6906 39.0889 16.7595C38.2233 16.8041 37.5378 16.6064 37.0505 16.2695C36.547 15.9214 36.202 15.3896 36.0882 14.6796C35.8586 13.2474 36.648 12.0187 37.9531 11.6705Z" stroke="#FAFAFA" stroke-width="1.5"/>
</svg>
