<svg width="150" height="56" viewBox="0 0 150 56" fill="none" xmlns="http://www.w3.org/2000/svg">
<path d="M144.387 40.9601L144.387 40.9599C145.141 40.218 145.579 39.2155 145.612 38.1604C145.607 35.8102 143.913 34.1564 141.582 34.1564C139.252 34.1564 137.561 35.8094 137.556 38.1605C137.589 39.2156 138.027 40.218 138.781 40.9599C139.533 41.6979 140.539 42.1101 141.582 42.1103L144.387 40.9601ZM144.387 40.9601C143.64 41.6958 142.632 42.1091 141.582 42.1103L144.387 40.9601ZM111.7 41.7871H105.666V30.0207C105.666 28.5416 105.426 27.4262 104.835 26.6782C104.206 25.8809 103.312 25.6592 102.424 25.6592C101.537 25.6592 100.642 25.8796 100.002 26.6559C99.3953 27.393 99.1422 28.4907 99.1422 29.9377V41.7871H93.1626V21.2338H99.1422V21.956V23.5639L100.374 22.5307C101.768 21.3621 103.539 20.738 105.359 20.7749L105.367 20.7751H105.374C107.578 20.7751 109.101 21.5089 110.101 22.8197C111.129 24.1668 111.688 26.2335 111.688 29.0537V29.0545L111.7 41.7871ZM87.504 41.7871H81.5244V30.523L87.1686 20.7659L87.504 20.9398V41.7871ZM133.459 37.9022C132.369 39.4309 131.329 40.4718 130.202 41.1512C128.953 41.9044 127.537 42.2501 125.706 42.2501C122.674 42.2501 120.34 41.28 118.755 39.5114C117.16 37.7314 116.236 35.0445 116.236 31.4493C116.236 28.1831 117.059 25.5221 118.631 23.6888C120.188 21.8733 122.561 20.7751 125.875 20.7751C127.806 20.7751 129.28 21.2256 130.488 22.0083C131.548 22.6947 132.442 23.6613 133.262 24.887L129.357 27.8871C128.989 27.2583 128.613 26.7188 128.173 26.31C127.515 25.6989 126.746 25.4073 125.763 25.4073C124.487 25.4073 123.535 26.0841 122.948 27.2126C122.389 28.2886 122.147 29.7851 122.147 31.5745C122.147 33.3686 122.41 34.8484 123.021 35.9041C123.665 37.018 124.677 37.6179 125.969 37.6179C126.842 37.6179 127.605 37.3634 128.332 36.8077C128.873 36.3937 129.384 35.8206 129.912 35.0936L133.459 37.9022Z" stroke="#FAFAFA" stroke-width="1.5"/>
<path d="M55.6423 22.7918C55.6423 19.0551 54.4448 16.3623 52.2294 14.6303C51.8055 14.2988 51.3489 14.0063 50.8626 13.75H90.4192L74.4108 41.7869H39.6602V33.7107H42.9578C46.5376 33.7107 49.7141 33.0357 52.009 31.2892C54.3428 29.5131 55.6423 26.725 55.6423 22.7918Z" stroke="#FAFAFA" stroke-width="1.5"/>
<path d="M39.8655 32.2107H39.1155V32.9607V41.7869H32.6427V13.75H44.4516C47.7985 13.75 50.4513 14.4035 52.2554 15.8123C54.0241 17.1933 55.0976 19.3964 55.0976 22.7918C55.0976 26.3681 53.9353 28.6645 52.0544 30.0955C50.1347 31.5561 47.3439 32.2107 43.9132 32.2107H39.8655ZM39.8655 18.9196H39.1155V19.6696V26.2911V27.0411H39.8655H44.1189C45.5225 27.0411 46.6704 26.7398 47.4604 25.9843C48.2583 25.2213 48.5431 24.1379 48.5431 22.917C48.5431 21.8269 48.2695 20.7918 47.5156 20.0337C46.7608 19.2749 45.6499 18.9196 44.2473 18.9196H39.8655ZM4.29169 41.7869L12.4325 27.525L12.6449 27.153L12.4324 26.7811L4.98975 13.7544H11.8567L15.4272 20.0024L16.0784 21.1418L16.7296 20.0024L20.3001 13.7544H27.5173L19.8995 27.0884L19.687 27.4603L19.8993 27.8323L27.8651 41.7869H20.9992L16.9048 34.6159L16.2537 33.4756L15.6023 34.6157L11.505 41.7869H4.29169Z" stroke="#FAFAFA" stroke-width="1.5"/>
</svg>
