<svg width="128" height="128" viewBox="0 0 128 128" fill="none" xmlns="http://www.w3.org/2000/svg">
<mask id="path-1-inside-1_785_3644" fill="white">
<path d="M40.8679 55.0212C40.8679 56.3256 41.0089 57.3833 41.2557 58.1589C41.5378 58.9345 41.8903 59.7806 42.3839 60.6972C42.5601 60.9792 42.6307 61.2613 42.6307 61.508C42.6307 61.8606 42.4191 62.2131 41.9608 62.5657L39.7398 64.0464C39.4225 64.2579 39.1052 64.3637 38.8232 64.3637C38.4706 64.3637 38.1181 64.1874 37.7655 63.8701C37.272 63.3413 36.8489 62.7772 36.4964 62.2131C36.1438 61.6138 35.7913 60.944 35.4035 60.1331C32.6536 63.3765 29.1987 64.9982 25.0386 64.9982C22.0773 64.9982 19.7152 64.1521 17.9877 62.4599C16.2603 60.7677 15.3789 58.5114 15.3789 55.691C15.3789 52.6944 16.4365 50.2618 18.5871 48.4286C20.7376 46.5954 23.5932 45.6788 27.2244 45.6788C28.4231 45.6788 29.657 45.7845 30.9614 45.9608C32.2658 46.1371 33.6055 46.4191 35.0157 46.7364V44.1628C35.0157 41.4835 34.4516 39.615 33.3587 38.5221C32.2306 37.4292 30.3268 36.9004 27.6122 36.9004C26.3783 36.9004 25.1092 37.0414 23.8047 37.3587C22.5003 37.676 21.2312 38.0638 19.9972 38.5573C19.4332 38.8041 19.0101 38.9451 18.7633 39.0156C18.5166 39.0862 18.3403 39.1214 18.1993 39.1214C17.7057 39.1214 17.4589 38.7689 17.4589 38.0285V36.3011C17.4589 35.737 17.5294 35.3139 17.7057 35.0671C17.882 34.8204 18.1993 34.5736 18.6928 34.3268C19.9267 33.6922 21.4074 33.1634 23.1349 32.7403C24.8624 32.282 26.6956 32.0705 28.6346 32.0705C32.8299 32.0705 35.897 33.0224 37.8713 34.9261C39.8103 36.8299 40.7974 39.7207 40.7974 43.5987V55.0212H40.8679ZM26.5546 60.3799C27.718 60.3799 28.9166 60.1684 30.1858 59.7453C31.455 59.3223 32.5831 58.5467 33.535 57.489C34.0991 56.8192 34.5221 56.0788 34.7336 55.2327C34.9452 54.3866 35.0862 53.3642 35.0862 52.1656V50.6849C34.0638 50.4381 32.9709 50.2266 31.8428 50.0856C30.7146 49.9446 29.6217 49.874 28.5288 49.874C26.1668 49.874 24.4393 50.3324 23.2759 51.2842C22.1125 52.2361 21.5484 53.5758 21.5484 55.3385C21.5484 56.9955 21.9715 58.2294 22.8529 59.0755C23.699 59.9568 24.9329 60.3799 26.5546 60.3799ZM54.864 64.1874C54.2294 64.1874 53.8063 64.0816 53.5243 63.8348C53.2423 63.6233 52.9955 63.1297 52.784 62.4599L44.4991 35.2082C44.2876 34.5031 44.1819 34.0448 44.1819 33.798C44.1819 33.2339 44.4639 32.9166 45.028 32.9166H48.4829C49.1527 32.9166 49.611 33.0224 49.8578 33.2692C50.1399 33.4807 50.3514 33.9743 50.5629 34.6441L56.4857 57.9826L61.9854 34.6441C62.1617 33.939 62.3732 33.4807 62.6552 33.2692C62.9373 33.0576 63.4308 32.9166 64.0654 32.9166H66.8858C67.5556 32.9166 68.0139 33.0224 68.2959 33.2692C68.578 33.4807 68.8248 33.9743 68.9658 34.6441L74.536 58.2646L80.635 34.6441C80.8466 33.939 81.0933 33.4807 81.3401 33.2692C81.6222 33.0576 82.0805 32.9166 82.715 32.9166H85.9937C86.5578 32.9166 86.8751 33.1987 86.8751 33.798C86.8751 33.9743 86.8398 34.1505 86.8046 34.3621C86.7693 34.5736 86.6988 34.8556 86.5578 35.2434L78.0614 62.4952C77.8499 63.2003 77.6031 63.6586 77.3211 63.8701C77.0391 64.0816 76.5808 64.2226 75.9814 64.2226H72.9495C72.2797 64.2226 71.8214 64.1169 71.5394 63.8701C71.2573 63.6233 71.0105 63.165 70.8695 62.4599L65.4051 39.7207L59.9759 62.4247C59.7996 63.1297 59.5881 63.5881 59.306 63.8348C59.024 64.0816 58.5304 64.1874 57.8959 64.1874H54.864ZM100.166 65.1393C98.3328 65.1393 96.4996 64.9277 94.7368 64.5047C92.9741 64.0816 91.5992 63.6233 90.6826 63.0945C90.1185 62.7772 89.7307 62.4247 89.5897 62.1074C89.4487 61.7901 89.3781 61.4375 89.3781 61.1202V59.3223C89.3781 58.5819 89.6602 58.2294 90.189 58.2294C90.4005 58.2294 90.6121 58.2646 90.8236 58.3351C91.0351 58.4056 91.3524 58.5467 91.7049 58.6877C92.9036 59.2165 94.208 59.6395 95.5829 59.9216C96.9931 60.2036 98.3681 60.3446 99.7782 60.3446C101.999 60.3446 103.727 59.9568 104.925 59.1812C106.124 58.4056 106.759 57.2775 106.759 55.8321C106.759 54.8449 106.441 54.0341 105.807 53.3642C105.172 52.6944 103.974 52.0951 102.246 51.531L97.1341 49.9446C94.5606 49.1337 92.6568 47.935 91.4934 46.3486C90.33 44.7974 89.7307 43.0699 89.7307 41.2367C89.7307 39.756 90.048 38.4516 90.6826 37.3234C91.3171 36.1953 92.1633 35.2082 93.2209 34.4326C94.2785 33.6217 95.4772 33.0224 96.8874 32.5993C98.2975 32.1763 99.7782 32 101.329 32C102.105 32 102.916 32.0353 103.691 32.141C104.502 32.2468 105.243 32.3878 105.983 32.5288C106.688 32.7051 107.358 32.8814 107.993 33.0929C108.627 33.3044 109.121 33.5159 109.473 33.7275C109.967 34.0095 110.319 34.2915 110.531 34.6088C110.742 34.8909 110.848 35.2787 110.848 35.7722V37.4292C110.848 38.1695 110.566 38.5573 110.037 38.5573C109.755 38.5573 109.297 38.4163 108.698 38.1343C106.688 37.2177 104.432 36.7594 101.929 36.7594C99.9193 36.7594 98.3328 37.0767 97.2399 37.7465C96.147 38.4163 95.5829 39.4387 95.5829 40.8841C95.5829 41.8713 95.9355 42.7174 96.6406 43.3872C97.3457 44.057 98.6501 44.7269 100.519 45.3262L105.525 46.9127C108.063 47.7235 109.896 48.8517 110.989 50.2971C112.082 51.7425 112.611 53.3995 112.611 55.2327C112.611 56.7487 112.294 58.1236 111.694 59.3223C111.06 60.5209 110.214 61.5785 109.121 62.4247C108.028 63.306 106.723 63.9406 105.207 64.3989C103.621 64.8925 101.964 65.1393 100.166 65.1393Z"/>
</mask>
<path d="M40.8679 55.0212C40.8679 56.3256 41.0089 57.3833 41.2557 58.1589C41.5378 58.9345 41.8903 59.7806 42.3839 60.6972C42.5601 60.9792 42.6307 61.2613 42.6307 61.508C42.6307 61.8606 42.4191 62.2131 41.9608 62.5657L39.7398 64.0464C39.4225 64.2579 39.1052 64.3637 38.8232 64.3637C38.4706 64.3637 38.1181 64.1874 37.7655 63.8701C37.272 63.3413 36.8489 62.7772 36.4964 62.2131C36.1438 61.6138 35.7913 60.944 35.4035 60.1331C32.6536 63.3765 29.1987 64.9982 25.0386 64.9982C22.0773 64.9982 19.7152 64.1521 17.9877 62.4599C16.2603 60.7677 15.3789 58.5114 15.3789 55.691C15.3789 52.6944 16.4365 50.2618 18.5871 48.4286C20.7376 46.5954 23.5932 45.6788 27.2244 45.6788C28.4231 45.6788 29.657 45.7845 30.9614 45.9608C32.2658 46.1371 33.6055 46.4191 35.0157 46.7364V44.1628C35.0157 41.4835 34.4516 39.615 33.3587 38.5221C32.2306 37.4292 30.3268 36.9004 27.6122 36.9004C26.3783 36.9004 25.1092 37.0414 23.8047 37.3587C22.5003 37.676 21.2312 38.0638 19.9972 38.5573C19.4332 38.8041 19.0101 38.9451 18.7633 39.0156C18.5166 39.0862 18.3403 39.1214 18.1993 39.1214C17.7057 39.1214 17.4589 38.7689 17.4589 38.0285V36.3011C17.4589 35.737 17.5294 35.3139 17.7057 35.0671C17.882 34.8204 18.1993 34.5736 18.6928 34.3268C19.9267 33.6922 21.4074 33.1634 23.1349 32.7403C24.8624 32.282 26.6956 32.0705 28.6346 32.0705C32.8299 32.0705 35.897 33.0224 37.8713 34.9261C39.8103 36.8299 40.7974 39.7207 40.7974 43.5987V55.0212H40.8679ZM26.5546 60.3799C27.718 60.3799 28.9166 60.1684 30.1858 59.7453C31.455 59.3223 32.5831 58.5467 33.535 57.489C34.0991 56.8192 34.5221 56.0788 34.7336 55.2327C34.9452 54.3866 35.0862 53.3642 35.0862 52.1656V50.6849C34.0638 50.4381 32.9709 50.2266 31.8428 50.0856C30.7146 49.9446 29.6217 49.874 28.5288 49.874C26.1668 49.874 24.4393 50.3324 23.2759 51.2842C22.1125 52.2361 21.5484 53.5758 21.5484 55.3385C21.5484 56.9955 21.9715 58.2294 22.8529 59.0755C23.699 59.9568 24.9329 60.3799 26.5546 60.3799ZM54.864 64.1874C54.2294 64.1874 53.8063 64.0816 53.5243 63.8348C53.2423 63.6233 52.9955 63.1297 52.784 62.4599L44.4991 35.2082C44.2876 34.5031 44.1819 34.0448 44.1819 33.798C44.1819 33.2339 44.4639 32.9166 45.028 32.9166H48.4829C49.1527 32.9166 49.611 33.0224 49.8578 33.2692C50.1399 33.4807 50.3514 33.9743 50.5629 34.6441L56.4857 57.9826L61.9854 34.6441C62.1617 33.939 62.3732 33.4807 62.6552 33.2692C62.9373 33.0576 63.4308 32.9166 64.0654 32.9166H66.8858C67.5556 32.9166 68.0139 33.0224 68.2959 33.2692C68.578 33.4807 68.8248 33.9743 68.9658 34.6441L74.536 58.2646L80.635 34.6441C80.8466 33.939 81.0933 33.4807 81.3401 33.2692C81.6222 33.0576 82.0805 32.9166 82.715 32.9166H85.9937C86.5578 32.9166 86.8751 33.1987 86.8751 33.798C86.8751 33.9743 86.8398 34.1505 86.8046 34.3621C86.7693 34.5736 86.6988 34.8556 86.5578 35.2434L78.0614 62.4952C77.8499 63.2003 77.6031 63.6586 77.3211 63.8701C77.0391 64.0816 76.5808 64.2226 75.9814 64.2226H72.9495C72.2797 64.2226 71.8214 64.1169 71.5394 63.8701C71.2573 63.6233 71.0105 63.165 70.8695 62.4599L65.4051 39.7207L59.9759 62.4247C59.7996 63.1297 59.5881 63.5881 59.306 63.8348C59.024 64.0816 58.5304 64.1874 57.8959 64.1874H54.864ZM100.166 65.1393C98.3328 65.1393 96.4996 64.9277 94.7368 64.5047C92.9741 64.0816 91.5992 63.6233 90.6826 63.0945C90.1185 62.7772 89.7307 62.4247 89.5897 62.1074C89.4487 61.7901 89.3781 61.4375 89.3781 61.1202V59.3223C89.3781 58.5819 89.6602 58.2294 90.189 58.2294C90.4005 58.2294 90.6121 58.2646 90.8236 58.3351C91.0351 58.4056 91.3524 58.5467 91.7049 58.6877C92.9036 59.2165 94.208 59.6395 95.5829 59.9216C96.9931 60.2036 98.3681 60.3446 99.7782 60.3446C101.999 60.3446 103.727 59.9568 104.925 59.1812C106.124 58.4056 106.759 57.2775 106.759 55.8321C106.759 54.8449 106.441 54.0341 105.807 53.3642C105.172 52.6944 103.974 52.0951 102.246 51.531L97.1341 49.9446C94.5606 49.1337 92.6568 47.935 91.4934 46.3486C90.33 44.7974 89.7307 43.0699 89.7307 41.2367C89.7307 39.756 90.048 38.4516 90.6826 37.3234C91.3171 36.1953 92.1633 35.2082 93.2209 34.4326C94.2785 33.6217 95.4772 33.0224 96.8874 32.5993C98.2975 32.1763 99.7782 32 101.329 32C102.105 32 102.916 32.0353 103.691 32.141C104.502 32.2468 105.243 32.3878 105.983 32.5288C106.688 32.7051 107.358 32.8814 107.993 33.0929C108.627 33.3044 109.121 33.5159 109.473 33.7275C109.967 34.0095 110.319 34.2915 110.531 34.6088C110.742 34.8909 110.848 35.2787 110.848 35.7722V37.4292C110.848 38.1695 110.566 38.5573 110.037 38.5573C109.755 38.5573 109.297 38.4163 108.698 38.1343C106.688 37.2177 104.432 36.7594 101.929 36.7594C99.9193 36.7594 98.3328 37.0767 97.2399 37.7465C96.147 38.4163 95.5829 39.4387 95.5829 40.8841C95.5829 41.8713 95.9355 42.7174 96.6406 43.3872C97.3457 44.057 98.6501 44.7269 100.519 45.3262L105.525 46.9127C108.063 47.7235 109.896 48.8517 110.989 50.2971C112.082 51.7425 112.611 53.3995 112.611 55.2327C112.611 56.7487 112.294 58.1236 111.694 59.3223C111.06 60.5209 110.214 61.5785 109.121 62.4247C108.028 63.306 106.723 63.9406 105.207 64.3989C103.621 64.8925 101.964 65.1393 100.166 65.1393Z" stroke="#131212" stroke-width="2" mask="url(#path-1-inside-1_785_3644)"/>
<path fill-rule="evenodd" clip-rule="evenodd" d="M12.6683 73.847C11.3638 73.0714 10.3767 74.4111 11.4696 75.3982C25.2894 87.8783 43.5865 95.3875 63.8931 95.3875C78.3827 95.3875 95.2343 90.8397 106.833 82.2728C108.737 80.8626 107.08 78.7121 105.141 79.5935C92.132 85.0932 77.9949 87.7725 65.127 87.7725C46.0543 87.7725 27.6162 82.5196 12.6683 73.847ZM13.0872 75.3591C26.6009 87.1918 44.2927 94.2833 63.8931 94.2833C78.1961 94.2833 94.8038 89.7845 106.176 81.3856M13.0872 75.3591C28.0245 83.7955 46.2691 88.8767 65.127 88.8767C78.1394 88.8767 92.423 86.1689 105.571 80.6105L105.584 80.6048L105.598 80.5987C106.123 80.3598 106.432 80.5746 106.521 80.703C106.567 80.77 106.579 80.8352 106.564 80.9057C106.549 80.9773 106.481 81.1588 106.177 81.3847M12.1005 74.445C12.1001 74.4438 12.0999 74.4432 12.0999 74.4432ZM11.4697 75.3981L11.4696 75.3982Z" fill="#FDAE52"/>
<path fill-rule="evenodd" clip-rule="evenodd" d="M98.0894 76.3149C101.862 75.8566 110.182 74.8695 111.662 76.7732C113.143 78.6417 110.005 86.5035 108.595 89.9937C108.172 91.0513 109.089 91.4744 110.041 90.6635C116.245 85.4459 117.867 74.5522 116.598 72.9657C115.329 71.4145 104.435 70.0749 97.8074 74.7285C96.785 75.4688 96.9613 76.4559 98.0894 76.3149ZM98.1229 75.8192C98.1228 75.8192 98.1231 75.8184 98.1239 75.8166C98.1233 75.8183 98.1229 75.8192 98.1229 75.8192ZM98.8837 75.2123C100.758 74.9908 103.335 74.716 105.711 74.6586C107.104 74.625 108.47 74.6645 109.606 74.8467C110.174 74.9378 110.716 75.0695 111.188 75.2628C111.651 75.4525 112.117 75.7302 112.449 76.1558C112.787 76.5841 112.939 77.1084 113.005 77.6031C113.072 78.1081 113.06 78.6662 113.001 79.2383C112.884 80.3821 112.567 81.7169 112.172 83.0577C111.506 85.3227 110.581 87.7241 109.885 89.4658C112.501 87.0296 114.224 83.4511 115.161 80.1779C115.654 78.4521 115.917 76.8535 115.983 75.6135C116.016 74.9918 115.998 74.4841 115.945 74.1076C115.897 73.7667 115.832 73.6247 115.818 73.5948C115.818 73.5945 115.818 73.5942 115.818 73.5939C115.788 73.5697 115.655 73.4675 115.321 73.3314C114.961 73.185 114.468 73.0389 113.855 72.9114C112.632 72.6571 111.018 72.4947 109.226 72.5202C105.812 72.5689 101.908 73.2967 98.8837 75.2123ZM109.075 90.0883C109.075 90.0883 109.076 90.0882 109.077 90.088Z" fill="#FDAE52"/>
</svg>
