<svg width="128" height="128" viewBox="0 0 128 128" fill="none" xmlns="http://www.w3.org/2000/svg">
<path d="M49.1018 38.1901C36.8173 35.9504 27.1145 38.2927 23.2419 45.0291C20.3524 50.0301 21.1817 56.664 25.2423 63.7509C25.3248 63.8946 25.4348 64.0206 25.5661 64.1218C25.6973 64.223 25.8471 64.2973 26.0071 64.3406C26.1671 64.3838 26.334 64.3952 26.4983 64.3739C26.6626 64.3527 26.8212 64.2993 26.9649 64.2168C27.1086 64.1343 27.2346 64.0242 27.3358 63.893C27.437 63.7618 27.5113 63.6119 27.5546 63.452C27.5979 63.292 27.6092 63.1251 27.5879 62.9608C27.5667 62.7964 27.5133 62.6379 27.4308 62.4942C23.7719 56.1083 23.0538 50.3806 25.4218 46.2516C28.6362 40.6864 37.296 38.5577 48.6487 40.6607C48.9775 40.7208 49.3166 40.6478 49.5916 40.4579C49.8665 40.2679 50.0548 39.9765 50.1148 39.6477C50.1749 39.319 50.102 38.9798 49.912 38.7048C49.722 38.4299 49.4306 38.2417 49.1018 38.1816V38.1901ZM31.6282 72.3423C37.1057 78.2126 43.448 83.2114 50.4354 87.1658C68.251 97.4243 87.195 100.203 96.5986 93.8253C96.874 93.6371 97.0635 93.3472 97.1252 93.0194C97.1869 92.6915 97.1159 92.3526 96.9277 92.0771C96.7395 91.8016 96.4496 91.6122 96.1217 91.5505C95.7939 91.4887 95.455 91.5598 95.1795 91.748C86.7504 97.4671 68.7041 94.8341 51.6664 84.9774C44.9145 81.1506 38.7858 76.3162 33.4918 70.6411C33.2651 70.394 32.9495 70.2471 32.6144 70.2326C32.2794 70.2182 31.9523 70.3375 31.7052 70.5642C31.458 70.7909 31.3111 71.1065 31.2966 71.4416C31.2822 71.7767 31.4015 72.1038 31.6282 72.3509V72.3423Z" stroke="#61DAFB"/>
<path d="M93.5499 70.8036C101.594 61.306 104.398 51.7485 100.534 45.0634C97.696 40.1393 91.6863 37.5405 83.7018 37.4379C83.3673 37.4379 83.0466 37.5707 82.8101 37.8072C82.5737 38.0437 82.4408 38.3644 82.4408 38.6988C82.4408 39.0332 82.5737 39.354 82.8101 39.5904C83.0466 39.8269 83.3673 39.9598 83.7018 39.9598C90.8827 40.0538 96.0547 42.2936 98.3885 46.3286C101.594 51.8853 99.0895 60.4084 91.6606 69.1879C91.554 69.3142 91.4733 69.4603 91.4231 69.6178C91.3729 69.7753 91.3542 69.9411 91.3681 70.1058C91.382 70.2706 91.4282 70.4309 91.504 70.5778C91.5799 70.7246 91.6839 70.8551 91.8102 70.9618C91.9365 71.0684 92.0826 71.1492 92.2401 71.1994C92.3976 71.2496 92.5634 71.2683 92.7282 71.2544C92.8929 71.2405 93.0532 71.1943 93.2001 71.1184C93.347 71.0425 93.4775 70.9385 93.5841 70.8122L93.5499 70.8036ZM72.8876 38.6091C64.9946 40.4003 57.4253 43.3992 50.4472 47.4998C32.0589 58.1429 20.0564 73.7786 21.6893 85.1313C21.7134 85.2997 21.7705 85.4617 21.8572 85.6081C21.9439 85.7544 22.0587 85.8822 22.1948 85.9842C22.3309 86.0862 22.4858 86.1604 22.6507 86.2026C22.8155 86.2447 22.987 86.254 23.1554 86.2298C23.3238 86.2057 23.4858 86.1486 23.6321 86.0619C23.7784 85.9751 23.9063 85.8604 24.0083 85.7243C24.1103 85.5882 24.1845 85.4333 24.2266 85.2684C24.2687 85.1036 24.278 84.9321 24.2539 84.7637C22.7407 74.6848 34.1106 59.8527 51.7039 49.6882C58.4539 45.7071 65.7781 42.7918 73.4176 41.0455C73.5793 41.0106 73.7325 40.9443 73.8686 40.8503C74.0046 40.7563 74.1208 40.6364 74.2105 40.4975C74.3002 40.3586 74.3616 40.2034 74.3914 40.0407C74.4211 39.878 74.4184 39.7111 74.3836 39.5494C74.3488 39.3878 74.2825 39.2345 74.1885 39.0985C74.0945 38.9625 73.9746 38.8463 73.8357 38.7566C73.6968 38.6669 73.5416 38.6054 73.3789 38.5757C73.2162 38.546 73.0493 38.5486 72.8876 38.5834V38.6091Z" stroke="#61DAFB"/>
<path d="M43.0513 93.0048C47.3257 104.742 54.1647 112 61.9013 112C67.5435 112 72.7582 108.153 76.8274 101.383C77.0065 101.098 77.0653 100.754 76.9907 100.426C76.9162 100.098 76.7144 99.8135 76.4299 99.6343C76.1453 99.4552 75.8013 99.3965 75.4734 99.471C75.1456 99.5456 74.8608 99.7473 74.6817 100.032C71.0228 106.119 66.5347 109.435 61.9098 109.435C55.4812 109.435 49.3517 102.99 45.4621 92.1328C45.3487 91.8188 45.1152 91.5627 44.813 91.4208C44.5108 91.2789 44.1646 91.2629 43.8506 91.3763C43.5366 91.4896 43.2805 91.7231 43.1386 92.0253C42.9967 92.3275 42.9807 92.6737 43.094 92.9877L43.0513 93.0048ZM81.5207 90.7052C83.7948 83.1366 84.9215 75.2698 84.8632 67.3671C84.8632 46.4997 77.5626 28.5217 67.1588 23.8968C67.0072 23.8294 66.8439 23.7926 66.6781 23.7884C66.5123 23.7841 66.3473 23.8126 66.1925 23.8721C66.0377 23.9317 65.8961 24.0211 65.7759 24.1354C65.6557 24.2496 65.5591 24.3864 65.4918 24.538C65.3557 24.844 65.3468 25.1916 65.4671 25.5042C65.5873 25.8169 65.8268 26.0689 66.1329 26.205C75.4083 30.3254 82.3755 47.3887 82.3755 67.3671C82.4324 75.0148 81.3431 82.6279 79.1441 89.9529C79.0947 90.1106 79.0769 90.2765 79.0916 90.4412C79.1063 90.6058 79.1533 90.7659 79.2299 90.9124C79.3065 91.0588 79.4112 91.1888 79.5381 91.2948C79.6649 91.4008 79.8113 91.4807 79.9691 91.5301C80.1268 91.5795 80.2927 91.5974 80.4573 91.5827C80.622 91.5679 80.7821 91.5209 80.9285 91.4443C81.075 91.3677 81.2049 91.263 81.3109 91.1362C81.4169 91.0094 81.4969 90.8629 81.5463 90.7052H81.5207ZM108.194 88.4794C108.194 87.2874 107.84 86.1222 107.178 85.1311C106.516 84.1399 105.574 83.3675 104.473 82.9113C103.372 82.4552 102.16 82.3358 100.991 82.5684C99.8218 82.8009 98.7479 83.3749 97.905 84.2178C97.0621 85.0606 96.4881 86.1345 96.2556 87.3036C96.0231 88.4727 96.1424 89.6845 96.5986 90.7858C97.0547 91.887 97.8272 92.8283 98.8183 93.4906C99.8094 94.1528 100.975 94.5063 102.167 94.5063C102.958 94.5063 103.742 94.3504 104.473 94.0475C105.204 93.7446 105.869 93.3007 106.428 92.741C106.988 92.1814 107.432 91.517 107.735 90.7858C108.038 90.0546 108.194 89.2709 108.194 88.4794ZM105.672 88.4794C105.672 89.1726 105.466 89.8503 105.081 90.4267C104.696 91.0031 104.148 91.4523 103.508 91.7176C102.868 91.9829 102.163 92.0523 101.483 91.917C100.803 91.7818 100.178 91.448 99.6883 90.9578C99.1981 90.4676 98.8643 89.8431 98.729 89.1632C98.5938 88.4833 98.6632 87.7786 98.9285 87.1381C99.1938 86.4977 99.643 85.9503 100.219 85.5651C100.796 85.18 101.473 84.9744 102.167 84.9744C103.096 84.9744 103.988 85.3437 104.645 86.001C105.302 86.6583 105.672 87.5498 105.672 88.4794ZM26.0269 97.9879C27.2189 97.9879 28.3841 97.6345 29.3752 96.9722C30.3663 96.31 31.1388 95.3687 31.595 94.2674C32.0511 93.1662 32.1705 91.9544 31.9379 90.7853C31.7054 89.6162 31.1314 88.5423 30.2885 87.6994C29.4456 86.8566 28.3717 86.2826 27.2026 86.05C26.0336 85.8175 24.8218 85.9368 23.7205 86.393C22.6192 86.8491 21.678 87.6216 21.0157 88.6127C20.3535 89.6038 20 90.7691 20 91.9611C20 93.5595 20.635 95.0924 21.7652 96.2227C22.8955 97.353 24.4284 97.9879 26.0269 97.9879ZM26.0269 95.4661C25.3336 95.4661 24.656 95.2605 24.0796 94.8754C23.5032 94.4902 23.054 93.9428 22.7887 93.3024C22.5234 92.6619 22.454 91.9572 22.5892 91.2773C22.7245 90.5974 23.0583 89.9729 23.5485 89.4827C24.0386 88.9925 24.6632 88.6587 25.3431 88.5234C26.023 88.3882 26.7277 88.4576 27.3682 88.7229C28.0086 88.9882 28.556 89.4374 28.9412 90.0138C29.3263 90.5902 29.5319 91.2679 29.5319 91.9611C29.5319 92.8907 29.1626 93.7822 28.5053 94.4395C27.848 95.0968 26.9564 95.4661 26.0269 95.4661Z" stroke="#61DAFB"/>
<path d="M59.9234 28.0537C61.1154 28.0537 62.2806 27.7003 63.2717 27.038C64.2628 26.3758 65.0353 25.4345 65.4915 24.3332C65.9476 23.232 66.067 22.0202 65.8344 20.8511C65.6019 19.682 65.0279 18.6081 64.185 17.7652C63.3421 16.9224 62.2682 16.3484 61.0991 16.1158C59.93 15.8833 58.7182 16.0026 57.617 16.4588C56.5157 16.9149 55.5744 17.6874 54.9122 18.6785C54.25 19.6696 53.8965 20.8349 53.8965 22.0269C53.8965 23.6253 54.5315 25.1582 55.6617 26.2885C56.792 27.4188 58.3249 28.0537 59.9234 28.0537ZM59.9234 25.5319C59.2301 25.5319 58.5525 25.3263 57.9761 24.9412C57.3997 24.556 56.9505 24.0086 56.6852 23.3682C56.4199 22.7277 56.3505 22.023 56.4857 21.3431C56.621 20.6632 56.9548 20.0386 57.445 19.5485C57.9351 19.0583 58.5597 18.7245 59.2396 18.5892C59.9195 18.454 60.6242 18.5234 61.2647 18.7887C61.9051 19.054 62.4525 19.5032 62.8376 20.0796C63.2228 20.656 63.4283 21.3336 63.4283 22.0269C63.4283 22.9564 63.0591 23.848 62.4018 24.5053C61.7444 25.1626 60.8529 25.5319 59.9234 25.5319ZM62.8361 71.6243C61.9935 71.8129 61.1139 71.747 60.3088 71.435C59.5037 71.1231 58.8094 70.579 58.3138 69.872C57.8182 69.1649 57.5438 68.3266 57.5252 67.4634C57.5067 66.6001 57.7449 65.7508 58.2096 65.0231C58.6743 64.2954 59.3447 63.7221 60.1356 63.3758C60.9266 63.0295 61.8026 62.9259 62.6525 63.0781C63.5024 63.2303 64.288 63.6314 64.9097 64.2306C65.5314 64.8298 65.9611 65.6001 66.1445 66.4438C66.3891 67.5692 66.1785 68.7457 65.5586 69.7163C64.9387 70.6869 63.96 71.3729 62.8361 71.6243Z" stroke="#61DAFB"/>
</svg>
