<svg width="128" height="128" viewBox="0 0 128 128" fill="none" xmlns="http://www.w3.org/2000/svg">
<path fill-rule="evenodd" clip-rule="evenodd" d="M21.6723 48.7681L21.6722 48.768C21.065 47.8345 20.7885 47.4691 20.4988 47.2697C20.2718 47.1135 19.9405 47 19.0048 47H17.5265C16.5914 47 16.2981 47.1147 16.1025 47.2562C15.8275 47.4551 15.5771 47.8135 14.9562 48.768C14.3863 49.6441 11.1351 55.5913 7.99062 61.468C6.42688 64.3904 4.90199 67.2719 3.76885 69.4594C3.20183 70.5541 2.7355 71.47 2.41207 72.1287C2.24972 72.4593 2.12753 72.7167 2.04754 72.8962C2.02955 72.9366 2.01474 72.9707 2.00275 72.999C2.02577 73.6151 2.20247 74.2469 2.87665 75.2336L2.05637 75.7941L2.87666 75.2336C3.20539 75.7147 3.60648 76.0131 3.93063 76.1145C4.19126 76.196 4.41275 76.1672 4.65571 75.9176C4.65298 75.9203 4.65693 75.9148 4.66833 75.8989C4.69903 75.8563 4.78375 75.7386 4.93775 75.5029C5.12517 75.216 5.37153 74.824 5.66862 74.3425C6.2622 73.3804 7.04266 72.0867 7.92995 70.616L8.7862 71.1325C7.01371 74.0706 5.65233 76.3272 5.37299 76.6144C4.32453 77.6925 2.88658 77.0206 2.051 75.7978C1.22837 74.5939 1 73.7485 1 72.8467C1 72.2324 12.9178 50.0677 14.1179 48.2227L14.13 48.2041C15.2743 46.4451 15.5638 46 17.5265 46H19.0048C20.9803 46 21.3563 46.4482 22.5105 48.2227C23.7107 50.0677 35.6285 72.2324 35.6285 72.8467C35.6285 73.7485 35.4001 74.5939 34.5775 75.7978C33.7419 77.0206 32.304 77.6925 31.2555 76.6144C30.9762 76.3272 29.6148 74.0706 27.8423 71.1325L27.8407 71.1298C25.1228 66.6247 21.4393 60.5189 19.2075 57.4535C18.9242 57.0361 18.5053 56.983 18.2538 56.983C18.0023 56.983 17.6923 57.0361 17.4091 57.4535C15.2413 60.4311 11.7148 66.2775 9.02364 70.7389C8.94374 70.8714 8.86457 71.0026 8.7862 71.1325L7.92995 70.6159C8.01401 70.4766 8.09904 70.3356 8.18496 70.1932C10.86 65.7583 14.3972 59.8942 16.592 56.8769C16.8204 56.5452 17.101 56.3004 17.4304 56.151C17.7568 56.003 18.0573 55.983 18.2538 55.983C18.6279 55.983 19.4632 56.064 20.0244 56.8765C22.2824 59.9805 25.9726 66.0975 28.6731 70.5736L28.6986 70.6159L27.8904 71.1035L28.6986 70.616C29.5858 72.0867 30.3663 73.3804 30.9599 74.3425C31.257 74.824 31.5033 75.216 31.6907 75.5029C31.8448 75.7386 31.9295 75.8564 31.9602 75.899C31.9721 75.9156 31.9759 75.9208 31.9724 75.9172C32.2155 76.1672 32.4371 76.196 32.6979 76.1145C33.022 76.0131 33.4231 75.7147 33.7519 75.2336C34.426 74.247 34.6027 73.6152 34.6257 72.999C34.6137 72.9707 34.5989 72.9366 34.5809 72.8962C34.5009 72.7167 34.3787 72.4593 34.2164 72.1287C33.893 71.47 33.4266 70.5541 32.8596 69.4594C31.7265 67.2719 30.2016 64.3904 28.6379 61.468C25.4933 55.5912 22.2422 49.644 21.6723 48.7681Z" fill="#131212"/>
<path d="M49.1341 69.6499V70.1499H49.6341H59.9946V74.6698H44.4141V48.4592H59.9946V52.9791H49.6341H49.1341V53.4791V58.377V58.877H49.6341H58.7965V63.3968H49.6341H49.1341V63.8968V69.6499Z" stroke="#131212"/>
<path d="M63.3231 74.6698L69.6175 65.6206L69.8158 65.3355L69.6179 65.0501L63.7465 56.5835H69.1001L72.0816 60.8778L72.4898 61.4658L72.9013 60.8802L75.9212 56.5835H81.1971L75.3285 65.0104L75.1295 65.2962L75.3286 65.582L81.6606 74.6698H76.3093L72.8641 69.7144L72.4536 69.1239L72.0431 69.7144L68.5979 74.6698H63.3231Z" stroke="#131212"/>
<path d="M89.9554 58.7657V60.425L90.8721 59.0419C92.0873 57.2087 93.9738 56.1948 96.446 56.1948C101.023 56.1948 104.758 60.344 104.758 65.6072C104.758 70.873 101.021 75.0584 96.446 75.0584C93.9738 75.0584 92.0873 74.0446 90.8721 72.2113L89.9554 70.8282V72.4876V80.967H85.5059V56.5835H89.9554V58.7657ZM89.9554 65.6072C89.9554 68.5735 92.2743 70.8108 95.2093 70.8108C98.1055 70.8108 100.463 68.5346 100.463 65.6072C100.463 62.7214 98.1082 60.4037 95.2093 60.4037C92.2716 60.4037 89.9554 62.6824 89.9554 65.6072Z" stroke="#131212"/>
<path d="M107.789 65.6461C107.789 60.2428 111.821 56.1948 117.145 56.1948C122.431 56.1948 126.5 60.2441 126.5 65.6461C126.5 71.0453 122.434 75.0584 117.145 75.0584C111.818 75.0584 107.789 71.0466 107.789 65.6461ZM122.167 65.6461C122.167 62.6627 119.985 60.4425 117.145 60.4425C114.262 60.4425 112.123 62.6656 112.123 65.6461C112.123 68.5487 114.262 70.8108 117.145 70.8108C119.985 70.8108 122.167 68.5517 122.167 65.6461Z" stroke="#131212"/>
</svg>
