<svg width="128" height="128" viewBox="0 0 128 128" fill="none" xmlns="http://www.w3.org/2000/svg">
<mask id="path-1-outside-1_785_3616" maskUnits="userSpaceOnUse" x="8" y="55" width="112" height="28" fill="black">
<rect fill="white" x="8" y="55" width="112" height="28"/>
<path d="M43.1263 81.5477V57.4816H44.4327V61.2675C44.5869 61.0997 44.7295 60.9216 44.8592 60.7342C45.393 59.6261 46.2317 58.6931 47.2768 58.0446C48.322 57.3961 49.5303 57.059 50.7602 57.0728C53.7374 56.9839 56.1547 58.0859 57.5766 60.7342C58.4813 62.3794 58.9792 64.2172 59.0287 66.0941C59.0782 67.971 58.6778 69.8325 57.861 71.5231C56.5368 74.4914 53.2664 75.9666 49.7649 75.4245C48.6752 75.3317 47.6262 74.9675 46.7134 74.3652C45.8006 73.7629 45.0532 72.9417 44.5393 71.9764V81.5477H43.1263ZM44.4327 65.9954C44.5482 67.1685 44.5926 68.0038 44.7259 68.8214C45.2414 72.0386 47.1432 73.9493 50.1292 74.2959C51.5313 74.5263 52.97 74.2635 54.1999 73.5521C55.4299 72.8406 56.3751 71.7247 56.8745 70.3945C57.4483 69.0262 57.7245 67.5515 57.6847 66.0683C57.6448 64.5851 57.2899 63.1273 56.6435 61.7918C56.1104 60.5995 55.2039 59.613 54.0608 58.9813C52.9177 58.3497 51.6001 58.1071 50.307 58.2903C49.0929 58.3783 47.9364 58.8423 46.9983 59.618C46.0602 60.3937 45.387 61.4424 45.0725 62.6183C44.7942 63.7307 44.5805 64.8583 44.4327 65.9954V65.9954ZM85.6774 69.2658C85.4795 70.9602 84.6729 72.5251 83.4076 73.6694C82.1424 74.8137 80.5046 75.4595 78.7989 75.4867C73.3244 75.7622 70.7561 72.1274 70.3473 67.9327C70.0635 65.6548 70.4334 63.3431 71.4137 61.2675C72.0964 59.8437 73.2145 58.674 74.6061 57.9279C75.9977 57.1818 77.5906 56.8978 79.1543 57.1172C80.641 57.2432 82.0503 57.8337 83.1827 58.805C84.3151 59.7763 85.1133 61.0793 85.4641 62.5294C85.7423 63.8501 85.947 65.1852 86.0774 66.5286H71.6892C71.4226 70.3322 73.4666 73.3894 76.3638 74.127C79.972 75.0157 83.0558 73.4516 84.1755 70.0212C84.4244 69.1414 84.8776 69.017 85.6774 69.2658V69.2658ZM71.6892 65.3111H84.5488C84.4688 61.2586 81.9449 58.3258 78.5234 58.2814C74.6486 58.2192 71.8581 61.0453 71.6892 65.3111ZM88.3258 69.3547H89.5877C89.6343 70.2832 89.9361 71.181 90.4597 71.9493C90.9834 72.7175 91.7087 73.3265 92.556 73.7093C93.62 74.1881 94.7782 74.4208 95.9445 74.39C97.1108 74.3592 98.2552 74.0658 99.2924 73.5316C99.8576 73.2768 100.331 72.8547 100.649 72.3223C100.967 71.79 101.114 71.1729 101.07 70.5544C101.102 69.9579 100.939 69.3671 100.606 68.8715C100.272 68.376 99.7862 68.0027 99.2213 67.8083C97.8349 67.2929 96.3597 67.0085 94.9466 66.5552C93.4764 66.1366 92.0388 65.6108 90.6453 64.9822C88.3702 63.8714 88.228 59.5434 90.8053 58.1748C92.1249 57.4301 93.6101 57.0277 95.1252 57.0044C96.6403 56.9811 98.1371 57.3377 99.479 58.0414C100.292 58.4907 100.949 59.1771 101.361 60.0091C101.774 60.8411 101.924 61.7792 101.79 62.6983H100.705C100.705 62.6449 100.608 62.6005 100.608 62.5472C100.474 59.0901 97.5772 58.0237 94.4667 58.3258C93.5382 58.4404 92.6363 58.7139 91.8006 59.1346C91.2985 59.3642 90.8801 59.744 90.6031 60.2215C90.3262 60.6991 90.2043 61.2509 90.2543 61.8007C90.2558 62.3507 90.4275 62.8868 90.7457 63.3355C91.0639 63.7842 91.5131 64.1235 92.0317 64.3068C93.4003 64.8045 94.8311 65.1244 96.2352 65.5155C97.3639 65.8265 98.537 66.0309 99.6301 66.4042C100.402 66.6571 101.078 67.1383 101.57 67.7842C102.062 68.4301 102.346 69.2102 102.385 70.0212C102.517 70.9098 102.366 71.8173 101.952 72.615C101.539 73.4126 100.885 74.0599 100.083 74.4647C97.1151 76.1444 92.2272 75.7 90.0499 73.576C89.498 73.021 89.0616 72.3623 88.7657 71.6378C88.4698 70.9132 88.3203 70.1373 88.3258 69.3547ZM118.382 62.6983H117.2C117.2 62.5383 117.138 62.3961 117.12 62.2628C117.101 61.3768 116.778 60.5243 116.205 59.848C115.632 59.1718 114.845 58.7128 113.974 58.548C112.331 58.0766 110.578 58.161 108.988 58.788C108.36 58.9682 107.806 59.3468 107.411 59.8674C107.015 60.3879 106.798 61.0225 106.793 61.6763C106.771 62.3183 106.971 62.9484 107.36 63.46C107.748 63.9717 108.301 64.3335 108.926 64.4846C110.703 65.0356 112.525 65.3733 114.329 65.8709C114.914 66.0113 115.49 66.1864 116.053 66.3953C116.895 66.6965 117.627 67.2446 118.152 67.968C118.677 68.6915 118.972 69.5566 118.998 70.4503C119.024 71.344 118.78 72.2247 118.297 72.9774C117.815 73.7301 117.116 74.3197 116.293 74.6691C115.039 75.2386 113.68 75.5399 112.303 75.5537C110.925 75.5675 109.56 75.2934 108.295 74.7491C107.254 74.3003 106.376 73.5436 105.779 72.5807C105.182 71.6179 104.893 70.4951 104.953 69.3636H106.109C106.322 70.3947 106.784 71.3582 107.454 72.1707C108.124 72.9831 108.982 73.62 109.954 74.0261C110.926 74.4323 111.981 74.5954 113.03 74.5015C114.079 74.4076 115.089 74.0594 115.973 73.4871C116.512 73.2074 116.959 72.779 117.261 72.2529C117.564 71.7268 117.709 71.125 117.68 70.5189C117.706 69.922 117.538 69.3327 117.199 68.8404C116.861 68.348 116.371 67.9794 115.805 67.7905C114.418 67.2751 112.943 66.9996 111.53 66.5464C110.051 66.1341 108.605 65.6143 107.202 64.9911C104.98 63.898 104.802 59.6056 107.335 58.237C108.671 57.4611 110.185 57.0443 111.73 57.0271C113.275 57.01 114.798 57.3931 116.151 58.1392C116.925 58.6011 117.548 59.278 117.944 60.0874C118.34 60.8968 118.492 61.8039 118.382 62.6983V62.6983ZM40.9667 75.0513C40.5014 75.2275 39.9877 75.2271 39.5226 75.0502C39.0576 74.8734 38.6734 74.5323 38.4428 74.0915C36.9942 71.923 35.3945 69.8523 33.8571 67.7372L33.1905 66.8485C31.3598 69.3013 29.5291 71.6564 27.8583 74.1004C27.6406 74.5217 27.2772 74.8495 26.8358 75.0228C26.3944 75.1961 25.905 75.2031 25.4588 75.0424L32.3285 65.8265L25.9387 57.4993C26.3987 57.3333 26.9018 57.331 27.3633 57.4929C27.8247 57.6548 28.2162 57.971 28.4715 58.388C29.9557 60.5565 31.5998 62.6272 33.235 64.8223C34.8791 62.6449 36.5054 60.5654 38.0251 58.4147C38.244 58.0002 38.6076 57.6807 39.0467 57.5168C39.4859 57.3529 39.9699 57.3562 40.4068 57.526L37.9273 60.8142C36.8165 62.2806 35.7233 63.7558 34.568 65.1866C34.4749 65.27 34.4005 65.372 34.3495 65.4861C34.2985 65.6002 34.2722 65.7238 34.2722 65.8487C34.2722 65.9737 34.2985 66.0972 34.3495 66.2113C34.4005 66.3254 34.4749 66.4275 34.568 66.5108C36.692 69.328 38.7983 72.1541 40.9667 75.0513V75.0513ZM70.134 57.4105V58.6547C69.2351 58.5957 68.3339 58.7259 67.4885 59.0368C66.6431 59.3477 65.8722 59.8324 65.2257 60.4596C64.5792 61.0869 64.0714 61.8427 63.7351 62.6783C63.3988 63.514 63.2414 64.4108 63.2732 65.3111V75.0868H62.0023V57.4816H63.2465V61.0897C64.784 58.4591 67.1568 57.4816 70.134 57.4105V57.4105ZM9 65.711C9.18663 64.8223 9.30216 63.8536 9.55988 62.9471C11.0973 57.4816 17.3627 55.2065 21.6729 58.5924C24.1968 60.5743 24.8278 63.3826 24.7034 66.5464H10.4841C10.2531 72.1985 14.3322 75.6112 19.5489 73.8693C20.3951 73.5666 21.1527 73.0579 21.7531 72.3892C22.3536 71.7205 22.778 70.9128 22.9882 70.039C23.2637 69.1503 23.7081 68.9992 24.5523 69.2569C24.4133 70.3388 24.0307 71.3751 23.4335 72.2879C22.8362 73.2007 22.0398 73.9662 21.1042 74.5269C19.5582 75.3723 17.7844 75.7073 16.0366 75.4838C14.2888 75.2603 12.6564 74.4899 11.3728 73.2827C10.103 71.855 9.33522 70.051 9.18663 68.146C9.18663 67.8439 9.0711 67.5417 9.00889 67.2573C9.00296 66.73 9 66.2146 9 65.711V65.711ZM10.5019 65.3288H23.3615C23.2815 61.2319 20.6954 58.3258 17.2472 58.2992C13.408 58.2459 10.6619 61.0897 10.493 65.3111L10.5019 65.3288Z"/>
</mask>
<path d="M43.1263 81.5477V57.4816H44.4327V61.2675C44.5869 61.0997 44.7295 60.9216 44.8592 60.7342C45.393 59.6261 46.2317 58.6931 47.2768 58.0446C48.322 57.3961 49.5303 57.059 50.7602 57.0728C53.7374 56.9839 56.1547 58.0859 57.5766 60.7342C58.4813 62.3794 58.9792 64.2172 59.0287 66.0941C59.0782 67.971 58.6778 69.8325 57.861 71.5231C56.5368 74.4914 53.2664 75.9666 49.7649 75.4245C48.6752 75.3317 47.6262 74.9675 46.7134 74.3652C45.8006 73.7629 45.0532 72.9417 44.5393 71.9764V81.5477H43.1263ZM44.4327 65.9954C44.5482 67.1685 44.5926 68.0038 44.7259 68.8214C45.2414 72.0386 47.1432 73.9493 50.1292 74.2959C51.5313 74.5263 52.97 74.2635 54.1999 73.5521C55.4299 72.8406 56.3751 71.7247 56.8745 70.3945C57.4483 69.0262 57.7245 67.5515 57.6847 66.0683C57.6448 64.5851 57.2899 63.1273 56.6435 61.7918C56.1104 60.5995 55.2039 59.613 54.0608 58.9813C52.9177 58.3497 51.6001 58.1071 50.307 58.2903C49.0929 58.3783 47.9364 58.8423 46.9983 59.618C46.0602 60.3937 45.387 61.4424 45.0725 62.6183C44.7942 63.7307 44.5805 64.8583 44.4327 65.9954V65.9954ZM85.6774 69.2658C85.4795 70.9602 84.6729 72.5251 83.4076 73.6694C82.1424 74.8137 80.5046 75.4595 78.7989 75.4867C73.3244 75.7622 70.7561 72.1274 70.3473 67.9327C70.0635 65.6548 70.4334 63.3431 71.4137 61.2675C72.0964 59.8437 73.2145 58.674 74.6061 57.9279C75.9977 57.1818 77.5906 56.8978 79.1543 57.1172C80.641 57.2432 82.0503 57.8337 83.1827 58.805C84.3151 59.7763 85.1133 61.0793 85.4641 62.5294C85.7423 63.8501 85.947 65.1852 86.0774 66.5286H71.6892C71.4226 70.3322 73.4666 73.3894 76.3638 74.127C79.972 75.0157 83.0558 73.4516 84.1755 70.0212C84.4244 69.1414 84.8776 69.017 85.6774 69.2658V69.2658ZM71.6892 65.3111H84.5488C84.4688 61.2586 81.9449 58.3258 78.5234 58.2814C74.6486 58.2192 71.8581 61.0453 71.6892 65.3111ZM88.3258 69.3547H89.5877C89.6343 70.2832 89.9361 71.181 90.4597 71.9493C90.9834 72.7175 91.7087 73.3265 92.556 73.7093C93.62 74.1881 94.7782 74.4208 95.9445 74.39C97.1108 74.3592 98.2552 74.0658 99.2924 73.5316C99.8576 73.2768 100.331 72.8547 100.649 72.3223C100.967 71.79 101.114 71.1729 101.07 70.5544C101.102 69.9579 100.939 69.3671 100.606 68.8715C100.272 68.376 99.7862 68.0027 99.2213 67.8083C97.8349 67.2929 96.3597 67.0085 94.9466 66.5552C93.4764 66.1366 92.0388 65.6108 90.6453 64.9822C88.3702 63.8714 88.228 59.5434 90.8053 58.1748C92.1249 57.4301 93.6101 57.0277 95.1252 57.0044C96.6403 56.9811 98.1371 57.3377 99.479 58.0414C100.292 58.4907 100.949 59.1771 101.361 60.0091C101.774 60.8411 101.924 61.7792 101.79 62.6983H100.705C100.705 62.6449 100.608 62.6005 100.608 62.5472C100.474 59.0901 97.5772 58.0237 94.4667 58.3258C93.5382 58.4404 92.6363 58.7139 91.8006 59.1346C91.2985 59.3642 90.8801 59.744 90.6031 60.2215C90.3262 60.6991 90.2043 61.2509 90.2543 61.8007C90.2558 62.3507 90.4275 62.8868 90.7457 63.3355C91.0639 63.7842 91.5131 64.1235 92.0317 64.3068C93.4003 64.8045 94.8311 65.1244 96.2352 65.5155C97.3639 65.8265 98.537 66.0309 99.6301 66.4042C100.402 66.6571 101.078 67.1383 101.57 67.7842C102.062 68.4301 102.346 69.2102 102.385 70.0212C102.517 70.9098 102.366 71.8173 101.952 72.615C101.539 73.4126 100.885 74.0599 100.083 74.4647C97.1151 76.1444 92.2272 75.7 90.0499 73.576C89.498 73.021 89.0616 72.3623 88.7657 71.6378C88.4698 70.9132 88.3203 70.1373 88.3258 69.3547ZM118.382 62.6983H117.2C117.2 62.5383 117.138 62.3961 117.12 62.2628C117.101 61.3768 116.778 60.5243 116.205 59.848C115.632 59.1718 114.845 58.7128 113.974 58.548C112.331 58.0766 110.578 58.161 108.988 58.788C108.36 58.9682 107.806 59.3468 107.411 59.8674C107.015 60.3879 106.798 61.0225 106.793 61.6763C106.771 62.3183 106.971 62.9484 107.36 63.46C107.748 63.9717 108.301 64.3335 108.926 64.4846C110.703 65.0356 112.525 65.3733 114.329 65.8709C114.914 66.0113 115.49 66.1864 116.053 66.3953C116.895 66.6965 117.627 67.2446 118.152 67.968C118.677 68.6915 118.972 69.5566 118.998 70.4503C119.024 71.344 118.78 72.2247 118.297 72.9774C117.815 73.7301 117.116 74.3197 116.293 74.6691C115.039 75.2386 113.68 75.5399 112.303 75.5537C110.925 75.5675 109.56 75.2934 108.295 74.7491C107.254 74.3003 106.376 73.5436 105.779 72.5807C105.182 71.6179 104.893 70.4951 104.953 69.3636H106.109C106.322 70.3947 106.784 71.3582 107.454 72.1707C108.124 72.9831 108.982 73.62 109.954 74.0261C110.926 74.4323 111.981 74.5954 113.03 74.5015C114.079 74.4076 115.089 74.0594 115.973 73.4871C116.512 73.2074 116.959 72.779 117.261 72.2529C117.564 71.7268 117.709 71.125 117.68 70.5189C117.706 69.922 117.538 69.3327 117.199 68.8404C116.861 68.348 116.371 67.9794 115.805 67.7905C114.418 67.2751 112.943 66.9996 111.53 66.5464C110.051 66.1341 108.605 65.6143 107.202 64.9911C104.98 63.898 104.802 59.6056 107.335 58.237C108.671 57.4611 110.185 57.0443 111.73 57.0271C113.275 57.01 114.798 57.3931 116.151 58.1392C116.925 58.6011 117.548 59.278 117.944 60.0874C118.34 60.8968 118.492 61.8039 118.382 62.6983V62.6983ZM40.9667 75.0513C40.5014 75.2275 39.9877 75.2271 39.5226 75.0502C39.0576 74.8734 38.6734 74.5323 38.4428 74.0915C36.9942 71.923 35.3945 69.8523 33.8571 67.7372L33.1905 66.8485C31.3598 69.3013 29.5291 71.6564 27.8583 74.1004C27.6406 74.5217 27.2772 74.8495 26.8358 75.0228C26.3944 75.1961 25.905 75.2031 25.4588 75.0424L32.3285 65.8265L25.9387 57.4993C26.3987 57.3333 26.9018 57.331 27.3633 57.4929C27.8247 57.6548 28.2162 57.971 28.4715 58.388C29.9557 60.5565 31.5998 62.6272 33.235 64.8223C34.8791 62.6449 36.5054 60.5654 38.0251 58.4147C38.244 58.0002 38.6076 57.6807 39.0467 57.5168C39.4859 57.3529 39.9699 57.3562 40.4068 57.526L37.9273 60.8142C36.8165 62.2806 35.7233 63.7558 34.568 65.1866C34.4749 65.27 34.4005 65.372 34.3495 65.4861C34.2985 65.6002 34.2722 65.7238 34.2722 65.8487C34.2722 65.9737 34.2985 66.0972 34.3495 66.2113C34.4005 66.3254 34.4749 66.4275 34.568 66.5108C36.692 69.328 38.7983 72.1541 40.9667 75.0513V75.0513ZM70.134 57.4105V58.6547C69.2351 58.5957 68.3339 58.7259 67.4885 59.0368C66.6431 59.3477 65.8722 59.8324 65.2257 60.4596C64.5792 61.0869 64.0714 61.8427 63.7351 62.6783C63.3988 63.514 63.2414 64.4108 63.2732 65.3111V75.0868H62.0023V57.4816H63.2465V61.0897C64.784 58.4591 67.1568 57.4816 70.134 57.4105V57.4105ZM9 65.711C9.18663 64.8223 9.30216 63.8536 9.55988 62.9471C11.0973 57.4816 17.3627 55.2065 21.6729 58.5924C24.1968 60.5743 24.8278 63.3826 24.7034 66.5464H10.4841C10.2531 72.1985 14.3322 75.6112 19.5489 73.8693C20.3951 73.5666 21.1527 73.0579 21.7531 72.3892C22.3536 71.7205 22.778 70.9128 22.9882 70.039C23.2637 69.1503 23.7081 68.9992 24.5523 69.2569C24.4133 70.3388 24.0307 71.3751 23.4335 72.2879C22.8362 73.2007 22.0398 73.9662 21.1042 74.5269C19.5582 75.3723 17.7844 75.7073 16.0366 75.4838C14.2888 75.2603 12.6564 74.4899 11.3728 73.2827C10.103 71.855 9.33522 70.051 9.18663 68.146C9.18663 67.8439 9.0711 67.5417 9.00889 67.2573C9.00296 66.73 9 66.2146 9 65.711V65.711ZM10.5019 65.3288H23.3615C23.2815 61.2319 20.6954 58.3258 17.2472 58.2992C13.408 58.2459 10.6619 61.0897 10.493 65.3111L10.5019 65.3288Z" stroke="#131212" stroke-width="2" mask="url(#path-1-outside-1_785_3616)"/>
</svg>
