<svg width="128" height="128" viewBox="0 0 128 128" fill="none" xmlns="http://www.w3.org/2000/svg">
<path d="M64.1699 64.0001C64.1699 60.3313 65.6274 56.8128 68.2216 54.2185C70.8159 51.6242 74.3344 50.1668 78.0033 50.1668C81.6721 50.1668 85.1907 51.6242 87.7849 54.2185C90.3792 56.8128 91.8366 60.3313 91.8366 64.0001C91.8366 67.669 90.3792 71.1875 87.7849 73.7818C85.1907 76.376 81.6721 77.8335 78.0033 77.8335C74.3344 77.8335 70.8159 76.376 68.2216 73.7818C65.6274 71.1875 64.1699 67.669 64.1699 64.0001Z" stroke="#61DAFB"/>
<path d="M39.5517 102.448C36.9574 99.8541 35.5 96.3355 35.5 92.6667C35.5 88.9979 36.9574 85.4793 39.5517 82.8851C42.1459 80.2908 45.6645 78.8334 49.3333 78.8334H63.1667V92.6667C63.1667 96.3355 61.7092 99.8541 59.115 102.448C56.5207 105.043 53.0022 106.5 49.3333 106.5C45.6645 106.5 42.1459 105.043 39.5517 102.448Z" stroke="#97EE5B"/>
<path d="M78.0033 49.1667H64.1699V21.5H78.0033C81.6721 21.5 85.1907 22.9574 87.7849 25.5517C90.3792 28.1459 91.8366 31.6645 91.8366 35.3333C91.8366 39.0022 90.3792 42.5207 87.7849 45.115C85.1907 47.7092 81.6721 49.1667 78.0033 49.1667Z" stroke="#FDAE52"/>
<path d="M39.5517 45.115C36.9574 42.5207 35.5 39.0022 35.5 35.3333C35.5 31.6645 36.9574 28.1459 39.5517 25.5517C42.1459 22.9574 45.6645 21.5 49.3333 21.5H63.1667V49.1667H49.3333C45.6645 49.1667 42.1459 47.7092 39.5517 45.115Z" stroke="#FE4444"/>
<path d="M39.5517 73.7818C36.9574 71.1875 35.5 67.669 35.5 64.0001C35.5 60.3313 36.9574 56.8128 39.5517 54.2185C42.1459 51.6242 45.6645 50.1668 49.3333 50.1668H63.1667V77.8335H49.3333C45.6645 77.8335 42.1459 76.3761 39.5517 73.7818Z" stroke="#985EF6"/>
</svg>
