<svg width="128" height="128" viewBox="0 0 128 128" fill="none" xmlns="http://www.w3.org/2000/svg">
<path d="M50.3818 21.2282C50.3818 21.2279 50.3819 21.2275 50.3819 21.2272C50.5158 20.3998 51.5985 20.2445 51.9658 20.9466L51.9658 20.9466L51.9677 20.9503L58.1292 32.49L44.9546 56.0074L50.3818 21.2282ZM43.4043 67.6795L78.1368 32.8417C78.1369 32.8417 78.137 32.8416 78.137 32.8415C78.6264 32.3525 79.4774 32.637 79.5815 33.304L79.5819 33.3067L85.1156 67.5267L65.7678 78.2913C64.7079 78.8779 63.376 78.8781 62.316 78.292C62.3156 78.2918 62.3152 78.2915 62.3148 78.2913L43.4043 67.6795ZM45.3313 61.4734L63.377 29.3059L63.3805 29.2996L63.3839 29.2931C63.7084 28.6732 64.5727 28.6795 64.8877 29.2904L64.8877 29.2904L64.8895 29.2938L69.2267 37.5507L45.3313 61.4734Z" stroke="#FDAE52"/>
<path d="M18.5809 107.983H16V87.9785H27.6753V90.4463H18.5809V97.0216H26.8069V99.4238H18.5973V107.983H18.5809ZM32.1161 90.8644C31.7638 91.2169 31.3295 91.3891 30.8297 91.3891C30.3299 91.3891 29.8875 91.2169 29.5434 90.8644C29.1911 90.5119 29.019 90.0773 29.019 89.5772C29.019 89.0771 29.1911 88.6344 29.5434 88.29C29.8957 87.9375 30.3299 87.7653 30.8297 87.7653C31.3295 87.7653 31.772 87.9375 32.1161 88.29C32.4602 88.6426 32.6404 89.0771 32.6404 89.5772C32.6404 90.0773 32.4602 90.4873 32.1161 90.8644ZM32.1161 107.983H29.5434V94.2914H32.1161V107.983ZM37.4826 107.983H34.91V94.2914H37.3761V96.5214H37.4826C37.7448 95.7754 38.2692 95.1687 39.0967 94.685C39.9078 94.2012 40.6944 93.9635 41.4563 93.9635C42.2183 93.9635 42.8574 94.0701 43.3736 94.2914L42.3904 96.6936C42.0626 96.5624 41.6038 96.4969 41.0139 96.4969C40.0717 96.4969 39.2688 96.8658 38.5477 97.6119C37.8267 98.3579 37.4744 99.3172 37.4744 100.498V107.983H37.4826ZM49.5758 108.442C47.5029 108.442 45.8233 107.745 44.537 106.368C43.2507 104.991 42.5952 103.244 42.5952 101.145C42.5952 99.1614 43.2261 97.4315 44.4715 95.9885C45.7414 94.5456 47.3309 93.8241 49.2973 93.8241C51.3292 93.8241 52.9432 94.48 54.164 95.8082C55.3848 97.1445 55.9993 98.9072 55.9993 101.113L55.9747 101.596H45.1679C45.2334 102.974 45.7168 104.064 46.5443 104.876C47.3964 105.688 48.3796 106.081 49.5103 106.081C51.3456 106.081 52.6073 105.294 53.2628 103.72L55.5569 104.679C55.1226 105.753 54.3771 106.622 53.3529 107.344C52.3288 108.073 51.0588 108.442 49.5758 108.442ZM53.271 99.4893C53.2054 98.7023 52.8531 97.9562 52.1977 97.2593C51.5422 96.5624 50.559 96.1853 49.2481 96.1853C48.2895 96.1853 47.4784 96.4886 46.7819 97.0789C46.0855 97.6692 45.6021 98.4809 45.3399 99.4811L53.271 99.4893ZM65.0364 108.442C63.9877 108.442 63.0537 108.221 62.218 107.762C61.3905 107.327 60.776 106.753 60.3663 106.081H60.2598V107.983H57.7936V87.9785H60.3663V94.2914L60.2598 96.1935H60.3663C60.7842 95.513 61.3905 94.9719 62.218 94.5128C63.0455 94.0783 63.9877 93.8323 65.0364 93.8323C66.8062 93.8323 68.3301 94.5292 69.6246 95.9311C70.911 97.3331 71.5419 99.0548 71.5419 101.129C71.5419 103.203 70.911 104.933 69.6246 106.327C68.3301 107.745 66.8062 108.442 65.0364 108.442ZM64.594 106.089C65.7984 106.089 66.8226 105.63 67.6747 104.736C68.5268 103.843 68.961 102.638 68.961 101.154C68.961 99.6697 68.5268 98.4645 67.6747 97.5709C66.8226 96.6772 65.7984 96.2181 64.594 96.2181C63.3896 96.2181 62.3491 96.6526 61.5134 97.5545C60.6858 98.4481 60.2434 99.6533 60.2434 101.162C60.2434 102.67 60.6613 103.867 61.5134 104.769C62.3736 105.647 63.3978 106.089 64.594 106.089ZM77.9326 108.442C76.466 108.442 75.2698 108.024 74.2866 107.171C73.3034 106.343 72.82 105.228 72.82 103.851C72.82 102.367 73.3853 101.186 74.5406 100.334C75.6958 99.4811 77.1132 99.063 78.8174 99.063C80.325 99.063 81.5704 99.35 82.529 99.8911V99.4975C82.529 98.4891 82.1767 97.6856 81.5048 97.0707C80.8084 96.4559 79.9727 96.1525 78.9731 96.1525C78.2275 96.1525 77.5557 96.3247 76.9412 96.6772C76.3267 97.0298 75.917 97.5053 75.6958 98.1448L73.3362 97.1363C73.6639 96.3083 74.2784 95.5622 75.2124 94.8653C76.1546 94.1684 77.3754 93.8159 78.8994 93.8159C80.6445 93.8159 82.1111 94.316 83.2664 95.349C84.4216 96.3739 84.9869 97.8168 84.9869 99.6779V107.975H82.5208V106.073H82.4143C81.4065 107.655 79.8989 108.442 77.9326 108.442ZM78.3504 106.089C79.4237 106.089 80.3824 105.696 81.2344 104.909C82.1111 104.122 82.5454 103.187 82.5454 102.088C81.8244 101.498 80.7347 101.195 79.2681 101.195C78.0227 101.195 77.0887 101.457 76.4496 102.006C75.8187 102.556 75.491 103.187 75.491 103.908C75.491 104.589 75.7778 105.114 76.3677 105.507C76.9494 105.892 77.6048 106.089 78.3504 106.089ZM92.1478 108.442C90.6157 108.442 89.3539 108.073 88.3707 107.327C87.3984 106.616 86.6436 105.648 86.1913 104.532L88.4854 103.572C89.2065 105.294 90.4518 106.147 92.197 106.147C93.0081 106.147 93.6636 105.974 94.1634 105.622C94.6631 105.269 94.9253 104.794 94.9253 104.22C94.9253 103.326 94.2944 102.711 93.0491 102.408L90.2716 101.736C89.3949 101.514 88.5674 101.08 87.7808 100.465C86.9943 99.8337 86.601 98.9974 86.601 97.9316C86.601 96.7264 87.15 95.7508 88.2151 94.9801C89.2884 94.2176 90.5501 93.8405 92.0331 93.8405C93.2375 93.8405 94.3272 94.1274 95.2612 94.6686C96.2198 95.2179 96.8999 96.0049 97.2932 97.0298L95.0646 97.948C94.5648 96.7428 93.5161 96.1361 91.943 96.1361C91.181 96.1361 90.5419 96.2919 90.0258 96.6198C89.5014 96.9478 89.2392 97.3659 89.2392 97.907C89.2392 98.6941 89.8537 99.2188 91.0499 99.5057L93.7537 100.137C95.04 100.44 95.9822 100.949 96.6131 101.67C97.2276 102.392 97.5308 103.22 97.5308 104.138C97.5308 105.36 97.031 106.384 96.0232 107.221C95.0318 108.049 93.7373 108.442 92.1478 108.442ZM105.577 108.442C103.504 108.442 101.824 107.745 100.538 106.368C99.2513 104.991 98.5959 103.244 98.5959 101.145C98.5959 99.1614 99.2268 97.4315 100.472 95.9885C101.742 94.5456 103.332 93.8241 105.298 93.8241C107.33 93.8241 108.944 94.48 110.165 95.8082C111.386 97.1445 112 98.9072 112 101.113L111.975 101.596H101.169C101.234 102.974 101.718 104.064 102.545 104.876C103.397 105.688 104.38 106.081 105.511 106.081C107.346 106.081 108.608 105.294 109.263 103.72L111.558 104.679C111.123 105.753 110.378 106.622 109.354 107.344C108.321 108.073 107.059 108.442 105.577 108.442ZM109.263 99.4893C109.198 98.7023 108.846 97.9562 108.19 97.2593C107.535 96.5624 106.552 96.1853 105.241 96.1853C104.282 96.1853 103.471 96.4886 102.774 97.0789C102.078 97.6692 101.595 98.4809 101.332 99.4811L109.263 99.4893Z" stroke="#131212"/>
</svg>
