<svg width="128" height="128" viewBox="0 0 128 128" fill="none" xmlns="http://www.w3.org/2000/svg">
<path d="M45.2165 70.8357C47.0258 72.1916 49.9871 73.2206 54.6804 72.3329C54.6887 73.7401 54.7004 75.0766 54.7097 76.149C54.7185 77.1579 54.7253 77.9333 54.7253 78.3143C54.7253 78.6775 54.5981 79.0372 54.3421 79.2707C54.1046 79.4873 53.68 79.6643 52.9296 79.5325C39.0737 74.9063 29.0869 61.8267 29.0869 46.4143C29.0869 27.1309 44.7219 11.5 64.0013 11.5C83.284 11.5 98.9156 27.1317 98.914 46.411C98.914 61.8193 88.9394 74.8944 75.0899 79.5258C74.3245 79.6673 73.8991 79.4902 73.6642 79.2757C73.4102 79.0437 73.2839 78.682 73.2839 78.3126C73.2839 77.9276 73.2883 77.2526 73.2942 76.3483C73.2971 75.8878 73.3005 75.3678 73.3039 74.7963C73.3139 73.1045 73.3239 70.9656 73.3239 68.5952C73.3239 65.7877 72.5323 63.7291 71.4714 62.4109C75.1343 61.917 78.8768 60.8896 81.7853 58.4555C84.9824 55.7799 87.0926 51.474 87.0926 44.5639C87.0926 40.6862 85.7527 37.484 83.5248 34.9517C83.9942 33.6503 84.8908 30.1201 83.0654 25.5014L82.9783 25.2811L82.7528 25.209L82.6004 25.6852C82.7528 25.209 82.7523 25.2088 82.7518 25.2086L82.7507 25.2083L82.7484 25.2076L82.7429 25.2059L82.7286 25.2017C82.7175 25.1985 82.7035 25.1947 82.6865 25.1905C82.6525 25.182 82.6065 25.1717 82.5484 25.1612C82.4321 25.1402 82.2676 25.1185 82.0535 25.1087C81.6249 25.0892 81.0001 25.1175 80.1672 25.2933C78.5336 25.6381 76.1037 26.5491 72.782 28.7734C69.9701 28.0171 66.9741 27.6381 64.002 27.6241L63.9974 27.6241C61.0261 27.6372 58.0317 28.0162 55.2237 28.7733C51.8987 26.5486 49.4664 25.6375 47.8311 25.2926C46.9975 25.1168 46.372 25.0884 45.9431 25.1079C45.7287 25.1177 45.5641 25.1394 45.4478 25.1604C45.3896 25.1708 45.3436 25.1811 45.3096 25.1896C45.2925 25.1939 45.2785 25.1977 45.2675 25.2008L45.2531 25.205L45.2476 25.2067L45.2453 25.2074L45.2443 25.2078C45.2438 25.2079 45.2433 25.2081 45.3955 25.6843L45.2433 25.2081L45.0173 25.2803L44.9304 25.501C43.1097 30.1197 44.0068 33.6506 44.4762 34.9513C42.2533 37.4842 40.9033 40.6851 40.9033 44.5631C40.9033 51.4575 43.0096 55.7653 46.1992 58.4497C49.1029 60.8936 52.8397 61.9349 56.4963 62.4383C55.7363 63.3908 55.1188 64.7288 54.8366 66.4526C53.8363 66.8706 52.2692 67.3495 50.608 67.2012C48.8374 67.0432 46.9136 66.1706 45.4185 63.6101L45.4138 63.6017L45.3941 63.5676C45.3773 63.5388 45.3531 63.4982 45.3214 63.4473C45.2581 63.3456 45.1651 63.2027 45.0426 63.0317C44.798 62.6902 44.4333 62.2331 43.9506 61.767C42.9884 60.838 41.5262 59.8452 39.5896 59.7092L39.5754 59.7082L39.5611 59.708L39.5546 60.208C39.5611 59.708 39.5609 59.708 39.5608 59.708L39.5603 59.708L39.5592 59.708L39.5561 59.708L39.5462 59.7079L39.5124 59.708C39.4839 59.7083 39.444 59.709 39.3951 59.7107C39.2977 59.714 39.1624 59.7216 39.0103 59.7383C38.726 59.7696 38.3069 59.8402 37.9813 60.0259C37.8131 60.1218 37.6233 60.2746 37.5191 60.5144C37.4081 60.7696 37.4293 61.0405 37.5344 61.2907C37.7237 61.7417 38.2234 62.221 39.0309 62.7733L39.0643 62.7961L39.0984 62.8121L39.0992 62.8125L39.1 62.8128L39.1004 62.813L39.1009 62.8133L39.1104 62.8182C39.1221 62.8242 39.1421 62.8348 39.1695 62.8503C39.2245 62.8815 39.3095 62.9326 39.4189 63.0074C39.6375 63.1569 39.9538 63.4012 40.3213 63.7697C41.0538 64.5043 41.9969 65.7393 42.7763 67.7163L42.7807 67.7288C42.7863 67.7446 42.7942 67.7663 42.8046 67.7933C42.8254 67.8472 42.8561 67.9228 42.8982 68.0161C42.9824 68.2027 43.1124 68.4612 43.3 68.7619C43.675 69.3629 44.2824 70.1357 45.2165 70.8357Z" stroke="#131212"/>
<mask id="path-2-inside-1_785_3648" fill="white">
<path d="M31.4162 99.8916H22.5096C22.3992 99.8916 22.2933 99.9355 22.2153 100.014C22.1372 100.092 22.0934 100.197 22.0934 100.308V104.663C22.0934 104.773 22.1372 104.879 22.2153 104.957C22.2933 105.035 22.3992 105.079 22.5096 105.079H25.9832V110.49C25.9832 110.49 25.2032 110.756 23.0448 110.756C20.501 110.756 16.9458 109.827 16.9458 102.009C16.9458 94.1905 20.6483 93.1609 24.1244 93.1609C27.1327 93.1609 28.4279 93.6902 29.2536 93.9458C29.5117 94.024 29.7531 93.766 29.7531 93.5363L30.7461 89.3285C30.7477 89.2655 30.734 89.203 30.7062 89.1465C30.6784 89.0899 30.6372 89.041 30.5863 89.0039C30.2509 88.7641 28.2082 87.6221 23.0465 87.6221C17.0998 87.6221 11 90.1509 11 102.314C11 114.475 17.9838 116.287 23.8689 116.287C28.7417 116.287 31.6976 114.205 31.6976 114.205C31.8191 114.138 31.8324 113.967 31.8324 113.888V100.307C31.8324 100.197 31.7886 100.091 31.7105 100.013C31.6325 99.9346 31.5266 99.8908 31.4162 99.8908V99.8916ZM76.9076 88.6609H71.8915C71.8368 88.6611 71.7827 88.6721 71.7322 88.6933C71.6817 88.7145 71.6359 88.7454 71.5974 88.7843C71.5589 88.8232 71.5285 88.8693 71.5078 88.9199C71.4871 88.9706 71.4767 89.0249 71.477 89.0796L71.4787 98.772H63.6608V89.0796C63.6611 89.0249 63.6507 88.9708 63.6301 88.9201C63.6095 88.8695 63.5791 88.8235 63.5407 88.7846C63.5023 88.7457 63.4566 88.7148 63.4062 88.6935C63.3558 88.6723 63.3018 88.6612 63.2471 88.6609H58.2319C58.1772 88.6611 58.123 88.6721 58.0726 88.6933C58.0221 88.7145 57.9763 88.7454 57.9378 88.7843C57.8993 88.8232 57.8688 88.8693 57.8482 88.9199C57.8275 88.9706 57.817 89.0249 57.8174 89.0796V115.325C57.8174 115.556 58.0038 115.744 58.2319 115.744H63.2471C63.3018 115.743 63.356 115.732 63.4064 115.711C63.4568 115.69 63.5025 115.659 63.541 115.62C63.5794 115.581 63.6098 115.535 63.6303 115.484C63.6509 115.433 63.6612 115.379 63.6608 115.324V104.099H71.4787L71.4654 115.324C71.4654 115.556 71.6518 115.744 71.8816 115.744H76.9076C76.9623 115.743 77.0164 115.732 77.0669 115.711C77.1173 115.69 77.163 115.659 77.2014 115.62C77.2399 115.581 77.2702 115.535 77.2908 115.484C77.3114 115.433 77.3217 115.379 77.3213 115.324V89.0788C77.3218 89.0241 77.3115 88.9698 77.291 88.9192C77.2704 88.8685 77.2401 88.8224 77.2016 88.7835C77.1631 88.7447 77.1173 88.7138 77.0669 88.6928C77.0164 88.6717 76.9623 88.6609 76.9076 88.6609V88.6609ZM37.6467 89.2577C35.8621 89.2577 34.4137 90.7169 34.4137 92.5232C34.4137 94.327 35.8621 95.7904 37.6467 95.7904C39.433 95.7904 40.8806 94.327 40.8806 92.5232C40.8806 90.7169 39.4322 89.2577 37.6467 89.2577ZM40.1073 97.2554H35.1079C34.8782 97.2554 34.6734 97.4918 34.6734 97.7216V115.079C34.6734 115.589 34.9914 115.74 35.4026 115.74H39.9058C40.4011 115.74 40.5218 115.497 40.5218 115.07V97.6741C40.522 97.6195 40.5115 97.5653 40.4908 97.5147C40.4701 97.4641 40.4396 97.4181 40.4011 97.3793C40.3626 97.3405 40.3168 97.3097 40.2664 97.2886C40.216 97.2674 40.1619 97.2565 40.1073 97.2562V97.2554ZM96.3823 97.2945H91.4046C91.35 97.295 91.2959 97.3062 91.2456 97.3275C91.1953 97.3488 91.1496 97.3798 91.1113 97.4188C91.0729 97.4577 91.0427 97.5039 91.0221 97.5545C91.0016 97.6052 90.9913 97.6594 90.9917 97.7141V110.583C90.9917 110.583 89.7265 111.507 87.9327 111.507C86.1389 111.507 85.6627 110.694 85.6627 108.936V97.7141C85.6632 97.6593 85.6528 97.6051 85.6322 97.5543C85.6117 97.5036 85.5813 97.4575 85.5429 97.4185C85.5045 97.3795 85.4587 97.3485 85.4083 97.3272C85.3579 97.306 85.3038 97.2949 85.249 97.2945H80.198C80.0875 97.2954 79.9818 97.3401 79.9041 97.4187C79.8264 97.4973 79.7831 97.6035 79.7835 97.7141V109.785C79.7835 115.005 82.6927 116.282 86.6941 116.282C89.977 116.282 92.6241 114.467 92.6241 114.467C92.6241 114.467 92.7489 115.424 92.8072 115.537C92.8655 115.65 93.0128 115.764 93.1735 115.764L96.3865 115.75C96.4414 115.749 96.4957 115.738 96.5463 115.717C96.5969 115.696 96.6428 115.665 96.6815 115.626C96.7201 115.587 96.7507 115.541 96.7715 115.49C96.7923 115.439 96.8029 115.385 96.8027 115.33L96.8002 97.7116C96.7998 97.6012 96.7558 97.4954 96.6779 97.4172C96.6 97.3389 96.4944 97.2946 96.384 97.2937L96.3823 97.2945ZM109.985 96.7052C107.159 96.7052 105.236 97.9663 105.236 97.9663V89.0788C105.236 89.0241 105.226 88.9699 105.205 88.9193C105.184 88.8687 105.154 88.8226 105.116 88.7837C105.077 88.7449 105.031 88.7139 104.981 88.6927C104.931 88.6715 104.877 88.6604 104.822 88.6601H99.7935C99.7386 88.6601 99.6843 88.6709 99.6337 88.692C99.583 88.7131 99.537 88.7439 99.4983 88.7829C99.4596 88.8218 99.429 88.8679 99.4083 88.9187C99.3875 88.9695 99.377 89.0239 99.3773 89.0788V115.324C99.377 115.379 99.3875 115.434 99.4083 115.484C99.429 115.535 99.4596 115.581 99.4983 115.62C99.537 115.659 99.583 115.69 99.6337 115.711C99.6843 115.732 99.7386 115.743 99.7935 115.743H103.283C103.441 115.743 103.559 115.662 103.647 115.52C103.732 115.378 103.858 114.31 103.858 114.31C103.858 114.31 105.914 116.257 109.808 116.257C114.378 116.257 117 113.94 117 105.851C117 97.7615 112.813 96.7044 109.985 96.7044L109.985 96.7052ZM108.021 111.492C106.295 111.439 105.124 110.656 105.124 110.656V102.345C105.124 102.345 106.28 101.637 107.696 101.509C109.488 101.348 111.216 101.89 111.216 106.165C111.216 110.674 110.437 111.564 108.022 111.491L108.021 111.492ZM55.0064 111.394C54.7874 111.394 54.2264 111.483 53.6496 111.483C51.8016 111.483 51.1748 110.624 51.1748 109.512V102.132H54.9373C54.9922 102.132 55.0466 102.121 55.0973 102.1C55.148 102.078 55.1941 102.048 55.2328 102.009C55.2714 101.97 55.302 101.923 55.3228 101.872C55.3435 101.821 55.3539 101.767 55.3535 101.712V97.6699C55.3537 97.6152 55.3431 97.5609 55.3223 97.5102C55.3015 97.4595 55.2708 97.4134 55.2322 97.3746C55.1935 97.3357 55.1475 97.3049 55.0969 97.2839C55.0463 97.2629 54.9921 97.2521 54.9373 97.2521H51.1748L51.169 92.2827C51.169 92.0937 51.0725 91.9997 50.8544 91.9997H45.7268C45.5287 91.9997 45.4213 92.0879 45.4213 92.2785V97.4144C45.4213 97.4144 42.8517 98.0345 42.6786 98.0845C42.5921 98.1097 42.5162 98.1623 42.4621 98.2343C42.4081 98.3064 42.3789 98.394 42.3789 98.484V101.711C42.3786 101.766 42.389 101.82 42.4096 101.871C42.4302 101.921 42.4606 101.967 42.499 102.006C42.5374 102.045 42.5831 102.076 42.6335 102.097C42.6839 102.119 42.7379 102.13 42.7926 102.13H45.4213V109.895C45.4213 115.663 49.4668 116.229 52.197 116.229C53.4431 116.229 54.9356 115.83 55.182 115.738C55.3318 115.682 55.4176 115.528 55.4176 115.361L55.4209 111.811C55.4192 111.701 55.3748 111.596 55.2972 111.518C55.2196 111.44 55.1147 111.395 55.0047 111.393L55.0064 111.394Z"/>
</mask>
<path d="M31.4162 99.8916H22.5096C22.3992 99.8916 22.2933 99.9355 22.2153 100.014C22.1372 100.092 22.0934 100.197 22.0934 100.308V104.663C22.0934 104.773 22.1372 104.879 22.2153 104.957C22.2933 105.035 22.3992 105.079 22.5096 105.079H25.9832V110.49C25.9832 110.49 25.2032 110.756 23.0448 110.756C20.501 110.756 16.9458 109.827 16.9458 102.009C16.9458 94.1905 20.6483 93.1609 24.1244 93.1609C27.1327 93.1609 28.4279 93.6902 29.2536 93.9458C29.5117 94.024 29.7531 93.766 29.7531 93.5363L30.7461 89.3285C30.7477 89.2655 30.734 89.203 30.7062 89.1465C30.6784 89.0899 30.6372 89.041 30.5863 89.0039C30.2509 88.7641 28.2082 87.6221 23.0465 87.6221C17.0998 87.6221 11 90.1509 11 102.314C11 114.475 17.9838 116.287 23.8689 116.287C28.7417 116.287 31.6976 114.205 31.6976 114.205C31.8191 114.138 31.8324 113.967 31.8324 113.888V100.307C31.8324 100.197 31.7886 100.091 31.7105 100.013C31.6325 99.9346 31.5266 99.8908 31.4162 99.8908V99.8916ZM76.9076 88.6609H71.8915C71.8368 88.6611 71.7827 88.6721 71.7322 88.6933C71.6817 88.7145 71.6359 88.7454 71.5974 88.7843C71.5589 88.8232 71.5285 88.8693 71.5078 88.9199C71.4871 88.9706 71.4767 89.0249 71.477 89.0796L71.4787 98.772H63.6608V89.0796C63.6611 89.0249 63.6507 88.9708 63.6301 88.9201C63.6095 88.8695 63.5791 88.8235 63.5407 88.7846C63.5023 88.7457 63.4566 88.7148 63.4062 88.6935C63.3558 88.6723 63.3018 88.6612 63.2471 88.6609H58.2319C58.1772 88.6611 58.123 88.6721 58.0726 88.6933C58.0221 88.7145 57.9763 88.7454 57.9378 88.7843C57.8993 88.8232 57.8688 88.8693 57.8482 88.9199C57.8275 88.9706 57.817 89.0249 57.8174 89.0796V115.325C57.8174 115.556 58.0038 115.744 58.2319 115.744H63.2471C63.3018 115.743 63.356 115.732 63.4064 115.711C63.4568 115.69 63.5025 115.659 63.541 115.62C63.5794 115.581 63.6098 115.535 63.6303 115.484C63.6509 115.433 63.6612 115.379 63.6608 115.324V104.099H71.4787L71.4654 115.324C71.4654 115.556 71.6518 115.744 71.8816 115.744H76.9076C76.9623 115.743 77.0164 115.732 77.0669 115.711C77.1173 115.69 77.163 115.659 77.2014 115.62C77.2399 115.581 77.2702 115.535 77.2908 115.484C77.3114 115.433 77.3217 115.379 77.3213 115.324V89.0788C77.3218 89.0241 77.3115 88.9698 77.291 88.9192C77.2704 88.8685 77.2401 88.8224 77.2016 88.7835C77.1631 88.7447 77.1173 88.7138 77.0669 88.6928C77.0164 88.6717 76.9623 88.6609 76.9076 88.6609V88.6609ZM37.6467 89.2577C35.8621 89.2577 34.4137 90.7169 34.4137 92.5232C34.4137 94.327 35.8621 95.7904 37.6467 95.7904C39.433 95.7904 40.8806 94.327 40.8806 92.5232C40.8806 90.7169 39.4322 89.2577 37.6467 89.2577ZM40.1073 97.2554H35.1079C34.8782 97.2554 34.6734 97.4918 34.6734 97.7216V115.079C34.6734 115.589 34.9914 115.74 35.4026 115.74H39.9058C40.4011 115.74 40.5218 115.497 40.5218 115.07V97.6741C40.522 97.6195 40.5115 97.5653 40.4908 97.5147C40.4701 97.4641 40.4396 97.4181 40.4011 97.3793C40.3626 97.3405 40.3168 97.3097 40.2664 97.2886C40.216 97.2674 40.1619 97.2565 40.1073 97.2562V97.2554ZM96.3823 97.2945H91.4046C91.35 97.295 91.2959 97.3062 91.2456 97.3275C91.1953 97.3488 91.1496 97.3798 91.1113 97.4188C91.0729 97.4577 91.0427 97.5039 91.0221 97.5545C91.0016 97.6052 90.9913 97.6594 90.9917 97.7141V110.583C90.9917 110.583 89.7265 111.507 87.9327 111.507C86.1389 111.507 85.6627 110.694 85.6627 108.936V97.7141C85.6632 97.6593 85.6528 97.6051 85.6322 97.5543C85.6117 97.5036 85.5813 97.4575 85.5429 97.4185C85.5045 97.3795 85.4587 97.3485 85.4083 97.3272C85.3579 97.306 85.3038 97.2949 85.249 97.2945H80.198C80.0875 97.2954 79.9818 97.3401 79.9041 97.4187C79.8264 97.4973 79.7831 97.6035 79.7835 97.7141V109.785C79.7835 115.005 82.6927 116.282 86.6941 116.282C89.977 116.282 92.6241 114.467 92.6241 114.467C92.6241 114.467 92.7489 115.424 92.8072 115.537C92.8655 115.65 93.0128 115.764 93.1735 115.764L96.3865 115.75C96.4414 115.749 96.4957 115.738 96.5463 115.717C96.5969 115.696 96.6428 115.665 96.6815 115.626C96.7201 115.587 96.7507 115.541 96.7715 115.49C96.7923 115.439 96.8029 115.385 96.8027 115.33L96.8002 97.7116C96.7998 97.6012 96.7558 97.4954 96.6779 97.4172C96.6 97.3389 96.4944 97.2946 96.384 97.2937L96.3823 97.2945ZM109.985 96.7052C107.159 96.7052 105.236 97.9663 105.236 97.9663V89.0788C105.236 89.0241 105.226 88.9699 105.205 88.9193C105.184 88.8687 105.154 88.8226 105.116 88.7837C105.077 88.7449 105.031 88.7139 104.981 88.6927C104.931 88.6715 104.877 88.6604 104.822 88.6601H99.7935C99.7386 88.6601 99.6843 88.6709 99.6337 88.692C99.583 88.7131 99.537 88.7439 99.4983 88.7829C99.4596 88.8218 99.429 88.8679 99.4083 88.9187C99.3875 88.9695 99.377 89.0239 99.3773 89.0788V115.324C99.377 115.379 99.3875 115.434 99.4083 115.484C99.429 115.535 99.4596 115.581 99.4983 115.62C99.537 115.659 99.583 115.69 99.6337 115.711C99.6843 115.732 99.7386 115.743 99.7935 115.743H103.283C103.441 115.743 103.559 115.662 103.647 115.52C103.732 115.378 103.858 114.31 103.858 114.31C103.858 114.31 105.914 116.257 109.808 116.257C114.378 116.257 117 113.94 117 105.851C117 97.7615 112.813 96.7044 109.985 96.7044L109.985 96.7052ZM108.021 111.492C106.295 111.439 105.124 110.656 105.124 110.656V102.345C105.124 102.345 106.28 101.637 107.696 101.509C109.488 101.348 111.216 101.89 111.216 106.165C111.216 110.674 110.437 111.564 108.022 111.491L108.021 111.492ZM55.0064 111.394C54.7874 111.394 54.2264 111.483 53.6496 111.483C51.8016 111.483 51.1748 110.624 51.1748 109.512V102.132H54.9373C54.9922 102.132 55.0466 102.121 55.0973 102.1C55.148 102.078 55.1941 102.048 55.2328 102.009C55.2714 101.97 55.302 101.923 55.3228 101.872C55.3435 101.821 55.3539 101.767 55.3535 101.712V97.6699C55.3537 97.6152 55.3431 97.5609 55.3223 97.5102C55.3015 97.4595 55.2708 97.4134 55.2322 97.3746C55.1935 97.3357 55.1475 97.3049 55.0969 97.2839C55.0463 97.2629 54.9921 97.2521 54.9373 97.2521H51.1748L51.169 92.2827C51.169 92.0937 51.0725 91.9997 50.8544 91.9997H45.7268C45.5287 91.9997 45.4213 92.0879 45.4213 92.2785V97.4144C45.4213 97.4144 42.8517 98.0345 42.6786 98.0845C42.5921 98.1097 42.5162 98.1623 42.4621 98.2343C42.4081 98.3064 42.3789 98.394 42.3789 98.484V101.711C42.3786 101.766 42.389 101.82 42.4096 101.871C42.4302 101.921 42.4606 101.967 42.499 102.006C42.5374 102.045 42.5831 102.076 42.6335 102.097C42.6839 102.119 42.7379 102.13 42.7926 102.13H45.4213V109.895C45.4213 115.663 49.4668 116.229 52.197 116.229C53.4431 116.229 54.9356 115.83 55.182 115.738C55.3318 115.682 55.4176 115.528 55.4176 115.361L55.4209 111.811C55.4192 111.701 55.3748 111.596 55.2972 111.518C55.2196 111.44 55.1147 111.395 55.0047 111.393L55.0064 111.394Z" stroke="#131212" stroke-width="2" mask="url(#path-2-inside-1_785_3648)"/>
</svg>
