<svg width="128" height="128" viewBox="0 0 128 128" fill="none" xmlns="http://www.w3.org/2000/svg">
<path d="M46.9602 70.2286C48.6038 71.4603 51.2833 72.391 55.5127 71.6036C55.5202 72.8578 55.5306 74.0468 55.539 75.0037C55.5469 75.9171 55.5531 76.6189 55.5531 76.9639C55.5531 77.2829 55.4412 77.5947 55.2214 77.7952C55.0199 77.979 54.6522 78.1377 53.9856 78.0214C41.4572 73.8368 32.4277 62.0096 32.4277 48.0734C32.4277 30.6351 46.5666 16.5 64.0011 16.5C81.4387 16.5 95.5745 30.6359 95.573 48.0703C95.573 62.003 86.5544 73.8261 74.0318 78.0153C73.3514 78.1404 72.9832 77.9814 72.7843 77.7998C72.5665 77.6008 72.4552 77.2874 72.4552 76.9624C72.4552 76.6138 72.4592 76.0028 72.4645 75.1839C72.4672 74.7668 72.4702 74.2958 72.4733 73.7781C72.4823 72.2458 72.4914 70.3086 72.4914 68.1617C72.4914 65.656 71.7974 63.802 70.855 62.5964C74.1499 62.1443 77.5154 61.2093 80.1376 59.0147C83.0463 56.5805 84.9611 52.666 84.9611 46.3975C84.9611 42.8844 83.7506 39.9803 81.7366 37.6818C82.1667 36.4751 82.9571 33.2819 81.3106 29.116L81.2235 28.8957L80.998 28.8236L80.8456 29.2998C80.998 28.8236 80.9975 28.8234 80.997 28.8232L80.996 28.8229L80.9937 28.8222L80.9883 28.8206L80.9746 28.8165C80.9641 28.8135 80.9509 28.81 80.935 28.806C80.9032 28.7981 80.8605 28.7885 80.8069 28.7788C80.6995 28.7594 80.5485 28.7395 80.3525 28.7306C79.9601 28.7127 79.3902 28.7388 78.6322 28.8987C77.1484 29.2119 74.948 30.0372 71.945 32.0455C69.4002 31.3631 66.6902 31.0212 64.002 31.0086L63.9974 31.0086C61.3099 31.0205 58.6013 31.3624 56.06 32.0455C53.054 30.0368 50.8514 29.2113 49.3662 28.8981C48.6075 28.7381 48.0371 28.712 47.6444 28.7299C47.4482 28.7388 47.297 28.7587 47.1896 28.7781C47.1359 28.7877 47.0932 28.7973 47.0614 28.8052C47.0454 28.8092 47.0323 28.8128 47.0218 28.8157L47.008 28.8198L47.0027 28.8214L47.0004 28.8221L46.9994 28.8224C46.9989 28.8226 46.9984 28.8228 47.1506 29.299L46.9984 28.8228L46.7724 28.895L46.6855 29.1156C45.0432 33.2816 45.8341 36.4754 46.2643 37.6816C44.2547 39.9804 43.0351 42.8833 43.0351 46.3968C43.0351 52.6511 44.9463 56.5672 47.8481 59.0094C50.4662 61.2129 53.8269 62.1604 57.1163 62.621C56.4496 63.4813 55.911 64.6706 55.6587 66.1877C54.7556 66.5623 53.3563 66.9844 51.8756 66.8523C50.2869 66.7104 48.5585 65.9286 47.2123 63.6234L47.2082 63.616L47.1901 63.5846C47.1747 63.5582 47.1525 63.521 47.1236 63.4745C47.0658 63.3817 46.9809 63.2514 46.8693 63.0956C46.6465 62.7846 46.3145 62.3682 45.8747 61.9437C44.9987 61.0979 43.6645 60.1911 41.8957 60.067L41.8815 60.066L41.8672 60.0658L41.8607 60.5657C41.8672 60.0658 41.8671 60.0658 41.8669 60.0658L41.8665 60.0658L41.8654 60.0658L41.8625 60.0657L41.8532 60.0657L41.8221 60.0658C41.796 60.066 41.7594 60.0666 41.7146 60.0682C41.6256 60.0713 41.5019 60.0782 41.3626 60.0935C41.1041 60.1219 40.7163 60.1866 40.4125 60.3598C40.2552 60.4495 40.0739 60.5945 39.974 60.8244C39.8673 61.0697 39.8886 61.3287 39.9876 61.5646C40.1649 61.9868 40.6281 62.4275 41.3598 62.9279L41.3932 62.9508L41.4271 62.9667C41.4268 62.9665 41.4269 62.9665 41.4275 62.9668L41.4275 62.9669L41.4281 62.9671L41.4288 62.9675L41.4293 62.9677L41.4369 62.9716C41.4469 62.9768 41.4644 62.986 41.4887 62.9998C41.5374 63.0274 41.6133 63.073 41.7112 63.14C41.9069 63.2738 42.191 63.4932 42.5217 63.8248C43.1805 64.4854 44.0308 65.5982 44.7342 67.3821L44.738 67.3929C44.7432 67.4076 44.7505 67.4275 44.7601 67.4524C44.7792 67.502 44.8074 67.5712 44.8459 67.6566C44.9229 67.8273 45.0416 68.0633 45.2127 68.3376C45.5548 68.8859 46.1087 69.5905 46.9602 70.2286Z" stroke="#131212"/>
<mask id="path-2-inside-1_785_3648" fill="white">
<path d="M34.4902 96.5056H26.4238C26.3238 96.5056 26.2279 96.5453 26.1572 96.616C26.0865 96.6867 26.0468 96.7826 26.0468 96.8825V100.827C26.0468 100.927 26.0865 101.023 26.1572 101.093C26.2279 101.164 26.3238 101.204 26.4238 101.204H29.5697V106.104C29.5697 106.104 28.8633 106.345 26.9085 106.345C24.6047 106.345 21.3849 105.504 21.3849 98.4234C21.3849 91.3423 24.7381 90.4098 27.8863 90.4098C30.6107 90.4098 31.7838 90.8893 32.5316 91.1207C32.7653 91.1916 32.9839 90.9579 32.9839 90.7498L33.8833 86.939C33.8847 86.8819 33.8723 86.8254 33.8471 86.7742C33.8219 86.723 33.7847 86.6786 33.7385 86.645C33.4347 86.4279 31.5847 85.3936 26.91 85.3936C21.5244 85.3936 16 87.6838 16 98.6994C16 109.713 22.325 111.355 27.6548 111.355C32.068 111.355 34.745 109.468 34.745 109.468C34.855 109.408 34.8671 109.254 34.8671 109.182V96.8818C34.8671 96.7818 34.8274 96.6859 34.7567 96.6152C34.686 96.5446 34.5901 96.5048 34.4902 96.5048V96.5056ZM75.6899 86.3344H71.1471C71.0975 86.3346 71.0485 86.3446 71.0027 86.3637C70.957 86.3829 70.9156 86.4109 70.8807 86.4461C70.8458 86.4813 70.8182 86.5231 70.7995 86.569C70.7808 86.6149 70.7713 86.664 70.7716 86.7136L70.7731 95.4916H63.6928V86.7136C63.6931 86.6641 63.6836 86.615 63.665 86.5692C63.6463 86.5233 63.6188 86.4816 63.584 86.4464C63.5492 86.4112 63.5078 86.3832 63.4622 86.3639C63.4166 86.3447 63.3676 86.3347 63.3181 86.3344H58.7761C58.7265 86.3346 58.6775 86.3446 58.6318 86.3637C58.586 86.3829 58.5446 86.4109 58.5097 86.4461C58.4748 86.4813 58.4472 86.5231 58.4285 86.569C58.4098 86.6149 58.4003 86.664 58.4006 86.7136V110.483C58.4006 110.692 58.5695 110.862 58.7761 110.862H63.3181C63.3677 110.862 63.4167 110.852 63.4624 110.833C63.508 110.813 63.5495 110.785 63.5843 110.75C63.6191 110.715 63.6466 110.673 63.6652 110.627C63.6838 110.581 63.6932 110.532 63.6928 110.482V100.316H70.7731L70.7611 110.482C70.7611 110.692 70.9299 110.862 71.138 110.862H75.6899C75.7394 110.862 75.7885 110.852 75.8341 110.833C75.8798 110.813 75.9212 110.785 75.956 110.75C75.9908 110.715 76.0183 110.673 76.0369 110.627C76.0556 110.581 76.0649 110.532 76.0645 110.482V86.7128C76.065 86.6633 76.0557 86.6142 76.0371 86.5683C76.0185 86.5224 75.991 86.4806 75.9562 86.4455C75.9213 86.4103 75.8798 86.3823 75.8341 86.3633C75.7884 86.3442 75.7394 86.3344 75.6899 86.3344V86.3344ZM40.1329 86.8749C38.5166 86.8749 37.2048 88.1964 37.2048 89.8323C37.2048 91.466 38.5166 92.7913 40.1329 92.7913C41.7507 92.7913 43.0617 91.466 43.0617 89.8323C43.0617 88.1964 41.7499 86.8749 40.1329 86.8749ZM42.3613 94.1181H37.8336C37.6255 94.1181 37.44 94.3322 37.44 94.5403V110.26C37.44 110.722 37.728 110.859 38.1004 110.859H42.1789C42.6274 110.859 42.7367 110.639 42.7367 110.252V94.4973C42.7369 94.4478 42.7274 94.3987 42.7086 94.3529C42.6899 94.3071 42.6623 94.2655 42.6274 94.2303C42.5925 94.1952 42.5511 94.1672 42.5054 94.1481C42.4598 94.129 42.4108 94.119 42.3613 94.1188V94.1181ZM93.3274 94.1535H88.8193C88.7698 94.1539 88.7208 94.1641 88.6752 94.1834C88.6297 94.2027 88.5883 94.2308 88.5536 94.2661C88.5189 94.3013 88.4915 94.3431 88.4729 94.389C88.4543 94.4349 88.445 94.484 88.4453 94.5335V106.188C88.4453 106.188 87.2995 107.025 85.6749 107.025C84.0503 107.025 83.6191 106.289 83.6191 104.697V94.5335C83.6195 94.4839 83.6101 94.4348 83.5915 94.3888C83.5728 94.3429 83.5453 94.3011 83.5105 94.2658C83.4757 94.2305 83.4343 94.2024 83.3887 94.1831C83.343 94.1639 83.294 94.1538 83.2444 94.1535H78.6699C78.5698 94.1543 78.4741 94.1947 78.4037 94.266C78.3334 94.3372 78.2941 94.4334 78.2945 94.5335V105.466C78.2945 110.193 80.9293 111.349 84.5531 111.349C87.5264 111.349 89.9237 109.706 89.9237 109.706C89.9237 109.706 90.0368 110.573 90.0895 110.675C90.1423 110.777 90.2757 110.88 90.4212 110.88L93.3312 110.868C93.3809 110.867 93.43 110.857 93.4759 110.838C93.5217 110.819 93.5633 110.791 93.5983 110.756C93.6333 110.72 93.661 110.679 93.6799 110.633C93.6987 110.587 93.7083 110.537 93.7081 110.488L93.7058 94.5312C93.7055 94.4312 93.6657 94.3354 93.5951 94.2646C93.5245 94.1937 93.4289 94.1536 93.3289 94.1528L93.3274 94.1535ZM105.647 93.6198C103.087 93.6198 101.346 94.7619 101.346 94.7619V86.7128C101.346 86.6633 101.336 86.6143 101.318 86.5684C101.299 86.5226 101.272 86.4808 101.237 86.4456C101.202 86.4104 101.161 86.3824 101.115 86.3632C101.069 86.344 101.02 86.3339 100.971 86.3336H96.4168C96.3671 86.3336 96.3179 86.3435 96.272 86.3625C96.2261 86.3816 96.1845 86.4096 96.1494 86.4448C96.1144 86.4801 96.0867 86.5219 96.0679 86.5679C96.0491 86.6139 96.0395 86.6631 96.0398 86.7128V110.482C96.0395 110.532 96.0491 110.581 96.0679 110.627C96.0867 110.673 96.1144 110.715 96.1494 110.75C96.1845 110.786 96.2261 110.814 96.272 110.833C96.3179 110.852 96.3671 110.862 96.4168 110.862H99.577C99.7202 110.862 99.8273 110.788 99.9064 110.66C99.9841 110.531 100.098 109.563 100.098 109.563C100.098 109.563 101.96 111.327 105.487 111.327C109.625 111.327 112 109.229 112 101.903C112 94.5764 108.208 93.619 105.646 93.619L105.647 93.6198ZM103.868 107.012C102.305 106.964 101.245 106.255 101.245 106.255V98.7273C101.245 98.7273 102.291 98.0865 103.574 97.9704C105.197 97.8249 106.761 98.3156 106.761 102.188C106.761 106.271 106.056 107.077 103.869 107.011L103.868 107.012ZM55.8548 106.923C55.6566 106.923 55.1484 107.003 54.626 107.003C52.9524 107.003 52.3848 106.225 52.3848 105.218V98.5343H55.7922C55.842 98.5343 55.8913 98.5244 55.9372 98.5053C55.9831 98.4861 56.0248 98.4581 56.0599 98.4228C56.0949 98.3875 56.1226 98.3456 56.1414 98.2995C56.1601 98.2534 56.1696 98.2041 56.1692 98.1543V94.4935C56.1694 94.4439 56.1598 94.3947 56.1409 94.3488C56.1221 94.3029 56.0943 94.2612 56.0593 94.226C56.0243 94.1908 55.9827 94.1629 55.9368 94.1439C55.891 94.1249 55.8419 94.1151 55.7922 94.1151H52.3848L52.3795 89.6145C52.3795 89.4433 52.292 89.3582 52.0945 89.3582H47.4507C47.2713 89.3582 47.174 89.4381 47.174 89.6107V94.2621C47.174 94.2621 44.8468 94.8237 44.69 94.8689C44.6117 94.8918 44.5429 94.9394 44.494 95.0046C44.4451 95.0699 44.4186 95.1492 44.4186 95.2308V98.1536C44.4183 98.2031 44.4278 98.2521 44.4464 98.298C44.4651 98.3438 44.4926 98.3855 44.5274 98.4208C44.5622 98.456 44.6036 98.484 44.6492 98.5032C44.6948 98.5224 44.7438 98.5325 44.7933 98.5327H47.174V105.565C47.174 110.789 50.8378 111.302 53.3105 111.302C54.4391 111.302 55.7907 110.94 56.0139 110.857C56.1496 110.807 56.2272 110.667 56.2272 110.516L56.2302 107.3C56.2287 107.201 56.1885 107.105 56.1182 107.035C56.0479 106.964 55.9529 106.924 55.8533 106.922L55.8548 106.923Z"/>
</mask>
<path d="M34.4902 96.5056H26.4238C26.3238 96.5056 26.2279 96.5453 26.1572 96.616C26.0865 96.6867 26.0468 96.7826 26.0468 96.8825V100.827C26.0468 100.927 26.0865 101.023 26.1572 101.093C26.2279 101.164 26.3238 101.204 26.4238 101.204H29.5697V106.104C29.5697 106.104 28.8633 106.345 26.9085 106.345C24.6047 106.345 21.3849 105.504 21.3849 98.4234C21.3849 91.3423 24.7381 90.4098 27.8863 90.4098C30.6107 90.4098 31.7838 90.8893 32.5316 91.1207C32.7653 91.1916 32.9839 90.9579 32.9839 90.7498L33.8833 86.939C33.8847 86.8819 33.8723 86.8254 33.8471 86.7742C33.8219 86.723 33.7847 86.6786 33.7385 86.645C33.4347 86.4279 31.5847 85.3936 26.91 85.3936C21.5244 85.3936 16 87.6838 16 98.6994C16 109.713 22.325 111.355 27.6548 111.355C32.068 111.355 34.745 109.468 34.745 109.468C34.855 109.408 34.8671 109.254 34.8671 109.182V96.8818C34.8671 96.7818 34.8274 96.6859 34.7567 96.6152C34.686 96.5446 34.5901 96.5048 34.4902 96.5048V96.5056ZM75.6899 86.3344H71.1471C71.0975 86.3346 71.0485 86.3446 71.0027 86.3637C70.957 86.3829 70.9156 86.4109 70.8807 86.4461C70.8458 86.4813 70.8182 86.5231 70.7995 86.569C70.7808 86.6149 70.7713 86.664 70.7716 86.7136L70.7731 95.4916H63.6928V86.7136C63.6931 86.6641 63.6836 86.615 63.665 86.5692C63.6463 86.5233 63.6188 86.4816 63.584 86.4464C63.5492 86.4112 63.5078 86.3832 63.4622 86.3639C63.4166 86.3447 63.3676 86.3347 63.3181 86.3344H58.7761C58.7265 86.3346 58.6775 86.3446 58.6318 86.3637C58.586 86.3829 58.5446 86.4109 58.5097 86.4461C58.4748 86.4813 58.4472 86.5231 58.4285 86.569C58.4098 86.6149 58.4003 86.664 58.4006 86.7136V110.483C58.4006 110.692 58.5695 110.862 58.7761 110.862H63.3181C63.3677 110.862 63.4167 110.852 63.4624 110.833C63.508 110.813 63.5495 110.785 63.5843 110.75C63.6191 110.715 63.6466 110.673 63.6652 110.627C63.6838 110.581 63.6932 110.532 63.6928 110.482V100.316H70.7731L70.7611 110.482C70.7611 110.692 70.9299 110.862 71.138 110.862H75.6899C75.7394 110.862 75.7885 110.852 75.8341 110.833C75.8798 110.813 75.9212 110.785 75.956 110.75C75.9908 110.715 76.0183 110.673 76.0369 110.627C76.0556 110.581 76.0649 110.532 76.0645 110.482V86.7128C76.065 86.6633 76.0557 86.6142 76.0371 86.5683C76.0185 86.5224 75.991 86.4806 75.9562 86.4455C75.9213 86.4103 75.8798 86.3823 75.8341 86.3633C75.7884 86.3442 75.7394 86.3344 75.6899 86.3344V86.3344ZM40.1329 86.8749C38.5166 86.8749 37.2048 88.1964 37.2048 89.8323C37.2048 91.466 38.5166 92.7913 40.1329 92.7913C41.7507 92.7913 43.0617 91.466 43.0617 89.8323C43.0617 88.1964 41.7499 86.8749 40.1329 86.8749ZM42.3613 94.1181H37.8336C37.6255 94.1181 37.44 94.3322 37.44 94.5403V110.26C37.44 110.722 37.728 110.859 38.1004 110.859H42.1789C42.6274 110.859 42.7367 110.639 42.7367 110.252V94.4973C42.7369 94.4478 42.7274 94.3987 42.7086 94.3529C42.6899 94.3071 42.6623 94.2655 42.6274 94.2303C42.5925 94.1952 42.5511 94.1672 42.5054 94.1481C42.4598 94.129 42.4108 94.119 42.3613 94.1188V94.1181ZM93.3274 94.1535H88.8193C88.7698 94.1539 88.7208 94.1641 88.6752 94.1834C88.6297 94.2027 88.5883 94.2308 88.5536 94.2661C88.5189 94.3013 88.4915 94.3431 88.4729 94.389C88.4543 94.4349 88.445 94.484 88.4453 94.5335V106.188C88.4453 106.188 87.2995 107.025 85.6749 107.025C84.0503 107.025 83.6191 106.289 83.6191 104.697V94.5335C83.6195 94.4839 83.6101 94.4348 83.5915 94.3888C83.5728 94.3429 83.5453 94.3011 83.5105 94.2658C83.4757 94.2305 83.4343 94.2024 83.3887 94.1831C83.343 94.1639 83.294 94.1538 83.2444 94.1535H78.6699C78.5698 94.1543 78.4741 94.1947 78.4037 94.266C78.3334 94.3372 78.2941 94.4334 78.2945 94.5335V105.466C78.2945 110.193 80.9293 111.349 84.5531 111.349C87.5264 111.349 89.9237 109.706 89.9237 109.706C89.9237 109.706 90.0368 110.573 90.0895 110.675C90.1423 110.777 90.2757 110.88 90.4212 110.88L93.3312 110.868C93.3809 110.867 93.43 110.857 93.4759 110.838C93.5217 110.819 93.5633 110.791 93.5983 110.756C93.6333 110.72 93.661 110.679 93.6799 110.633C93.6987 110.587 93.7083 110.537 93.7081 110.488L93.7058 94.5312C93.7055 94.4312 93.6657 94.3354 93.5951 94.2646C93.5245 94.1937 93.4289 94.1536 93.3289 94.1528L93.3274 94.1535ZM105.647 93.6198C103.087 93.6198 101.346 94.7619 101.346 94.7619V86.7128C101.346 86.6633 101.336 86.6143 101.318 86.5684C101.299 86.5226 101.272 86.4808 101.237 86.4456C101.202 86.4104 101.161 86.3824 101.115 86.3632C101.069 86.344 101.02 86.3339 100.971 86.3336H96.4168C96.3671 86.3336 96.3179 86.3435 96.272 86.3625C96.2261 86.3816 96.1845 86.4096 96.1494 86.4448C96.1144 86.4801 96.0867 86.5219 96.0679 86.5679C96.0491 86.6139 96.0395 86.6631 96.0398 86.7128V110.482C96.0395 110.532 96.0491 110.581 96.0679 110.627C96.0867 110.673 96.1144 110.715 96.1494 110.75C96.1845 110.786 96.2261 110.814 96.272 110.833C96.3179 110.852 96.3671 110.862 96.4168 110.862H99.577C99.7202 110.862 99.8273 110.788 99.9064 110.66C99.9841 110.531 100.098 109.563 100.098 109.563C100.098 109.563 101.96 111.327 105.487 111.327C109.625 111.327 112 109.229 112 101.903C112 94.5764 108.208 93.619 105.646 93.619L105.647 93.6198ZM103.868 107.012C102.305 106.964 101.245 106.255 101.245 106.255V98.7273C101.245 98.7273 102.291 98.0865 103.574 97.9704C105.197 97.8249 106.761 98.3156 106.761 102.188C106.761 106.271 106.056 107.077 103.869 107.011L103.868 107.012ZM55.8548 106.923C55.6566 106.923 55.1484 107.003 54.626 107.003C52.9524 107.003 52.3848 106.225 52.3848 105.218V98.5343H55.7922C55.842 98.5343 55.8913 98.5244 55.9372 98.5053C55.9831 98.4861 56.0248 98.4581 56.0599 98.4228C56.0949 98.3875 56.1226 98.3456 56.1414 98.2995C56.1601 98.2534 56.1696 98.2041 56.1692 98.1543V94.4935C56.1694 94.4439 56.1598 94.3947 56.1409 94.3488C56.1221 94.3029 56.0943 94.2612 56.0593 94.226C56.0243 94.1908 55.9827 94.1629 55.9368 94.1439C55.891 94.1249 55.8419 94.1151 55.7922 94.1151H52.3848L52.3795 89.6145C52.3795 89.4433 52.292 89.3582 52.0945 89.3582H47.4507C47.2713 89.3582 47.174 89.4381 47.174 89.6107V94.2621C47.174 94.2621 44.8468 94.8237 44.69 94.8689C44.6117 94.8918 44.5429 94.9394 44.494 95.0046C44.4451 95.0699 44.4186 95.1492 44.4186 95.2308V98.1536C44.4183 98.2031 44.4278 98.2521 44.4464 98.298C44.4651 98.3438 44.4926 98.3855 44.5274 98.4208C44.5622 98.456 44.6036 98.484 44.6492 98.5032C44.6948 98.5224 44.7438 98.5325 44.7933 98.5327H47.174V105.565C47.174 110.789 50.8378 111.302 53.3105 111.302C54.4391 111.302 55.7907 110.94 56.0139 110.857C56.1496 110.807 56.2272 110.667 56.2272 110.516L56.2302 107.3C56.2287 107.201 56.1885 107.105 56.1182 107.035C56.0479 106.964 55.9529 106.924 55.8533 106.922L55.8548 106.923Z" stroke="#131212" stroke-width="2" mask="url(#path-2-inside-1_785_3648)"/>
</svg>
