<svg width="128" height="128" viewBox="0 0 128 128" fill="none" xmlns="http://www.w3.org/2000/svg">
<path d="M61.218 32.6097L36.2707 78.1863L33.8915 76.3562L58.9118 31.368L61.218 32.6097Z" stroke="#F83BFC"/>
<path d="M38.1533 82.1326H89.0717V85.051H38.1533V82.1326Z" stroke="#F83BFC"/>
<path d="M56.8413 29.9967L37.3364 41.0416L35.8982 38.7045L55.5542 27.2385L56.8413 29.9967Z" stroke="#F83BFC"/>
<path d="M91.6167 38.4931L72.1118 27.4482L70.6736 29.7853L90.3295 41.2512L91.6167 38.4931Z" stroke="#F83BFC"/>
<path d="M92.8862 76.6539L90.9157 78.8035L67.211 32.1125L69.2875 30.9013L92.8862 76.6539ZM28.0596 52.7448H31.13V75.255H28.0596V52.7448ZM96.3103 52.7448H99.3808V75.255H96.3103V52.7448Z" stroke="#F83BFC"/>
<path d="M90.1718 88.1428L91.5063 89.8108L71.9067 100.777L70.6471 98.258L90.1718 88.1428Z" stroke="#F83BFC"/>
<path d="M56.8092 98.2512L36.8257 87.9068L35.4568 89.789L55.5722 100.548L56.8092 98.2512Z" stroke="#F83BFC"/>
<mask id="path-8-inside-1_785_3620" fill="white">
<path d="M105.272 87.9996C104.135 89.9634 102.265 91.3965 100.074 91.9849C97.8821 92.5733 95.5465 92.2691 93.5787 91.1389C91.6149 90.0017 90.1819 88.1326 89.5935 85.9409C89.005 83.7492 89.3093 81.4137 90.4395 79.4459C91.5766 77.482 93.4458 76.049 95.6374 75.4606C97.8291 74.8722 100.165 75.1764 102.132 76.3066C106.251 78.6842 107.649 83.9067 105.269 87.9996M36.973 48.5557C35.8358 50.5196 33.9667 51.9526 31.775 52.541C29.5833 53.1294 27.2478 52.8252 25.28 51.695C23.3153 50.5578 21.8816 48.6881 21.2932 46.4957C20.7047 44.3032 21.0095 41.9669 22.1407 39.9988C23.2779 38.035 25.147 36.6019 27.3387 36.0135C29.5304 35.4251 31.8659 35.7293 33.8337 36.8595C35.7975 37.9967 37.2306 39.8658 37.819 42.0575C38.4074 44.2492 38.1032 46.5847 36.973 48.5525M22.1663 87.9996C21.0361 86.0318 20.7319 83.6962 21.3203 81.5046C21.9087 79.3129 23.3418 77.4438 25.3056 76.3066C27.2734 75.1764 29.609 74.8722 31.8006 75.4606C33.9923 76.049 35.8614 77.482 36.9986 79.4459C38.1288 81.4137 38.433 83.7492 37.8446 85.9409C37.2562 88.1326 35.8231 90.0017 33.8593 91.1389C29.7409 93.4909 24.5152 92.0989 22.1663 88.0028M90.4651 48.5589C89.3349 46.5911 89.0306 44.2556 89.619 42.0639C90.2075 39.8722 91.6405 38.0031 93.6043 36.8659C95.5721 35.7357 97.9077 35.4315 100.099 36.0199C102.291 36.6083 104.16 38.0414 105.297 40.0052C106.428 41.973 106.732 44.3086 106.143 46.5002C105.555 48.6919 104.122 50.561 102.158 51.6982C100.19 52.8284 97.8547 53.1326 95.663 52.5442C93.4714 51.9558 91.6022 50.5228 90.4651 48.5589ZM63.719 112C62.0265 112 60.372 111.498 58.9647 110.558C57.5575 109.617 56.4607 108.281 55.8131 106.717C55.1656 105.153 54.9963 103.432 55.3267 101.773C55.6572 100.113 56.4725 98.5878 57.6695 97.3913C58.8665 96.1947 60.3915 95.38 62.0516 95.0501C63.7117 94.7203 65.4323 94.8902 66.9958 95.5384C68.5594 96.1865 69.8956 97.2838 70.8354 98.6914C71.7753 100.099 72.2766 101.754 72.276 103.446C72.2701 105.714 71.3665 107.886 69.763 109.489C68.1594 111.092 65.9864 111.995 63.719 112ZM63.719 33.1123C62.5948 33.114 61.4814 32.8938 60.4424 32.4644C59.4035 32.0349 58.4595 31.4047 57.6646 30.6098C56.8697 29.8149 56.2394 28.8709 55.81 27.8319C55.3806 26.793 55.1604 25.6795 55.1621 24.5553C55.1621 22.2863 56.0635 20.1102 57.6679 18.5058C59.2723 16.9014 61.4484 16 63.7174 16C65.9864 16 68.1625 16.9014 69.767 18.5058C71.3714 20.1102 72.2728 22.2863 72.2728 24.5553C72.274 25.679 72.0536 26.7919 71.6242 27.8302C71.1948 28.8686 70.5648 29.812 69.7703 30.6066C68.9757 31.4011 68.0323 32.0311 66.9939 32.4605C65.9555 32.89 64.8427 33.1103 63.719 33.1091"/>
</mask>
<path d="M93.5787 91.1389L93.0776 92.0042L93.0807 92.006L93.5787 91.1389ZM90.4395 79.4459L89.5741 78.9448L89.5723 78.9478L90.4395 79.4459ZM102.132 76.3066L102.632 75.4406L102.631 75.4395L102.132 76.3066ZM25.28 51.695L24.779 52.5605L24.7819 52.5621L25.28 51.695ZM22.1407 39.9988L21.2753 39.4977L21.2737 39.5005L22.1407 39.9988ZM33.8337 36.8595L34.3348 35.9942L34.3318 35.9924L33.8337 36.8595ZM25.3056 76.3066L24.8075 75.4394L24.8045 75.4412L25.3056 76.3066ZM36.9986 79.4459L37.8657 78.9478L37.864 78.9448L36.9986 79.4459ZM33.8593 91.1389L34.3553 92.0072L34.3604 92.0042L33.8593 91.1389ZM90.4651 48.5589L89.5979 49.057L89.5997 49.06L90.4651 48.5589ZM93.6043 36.8659L93.1063 35.9988L93.1032 36.0006L93.6043 36.8659ZM105.297 40.0052L106.164 39.5071L106.163 39.5041L105.297 40.0052ZM102.158 51.6982L102.656 52.5653L102.659 52.5636L102.158 51.6982ZM63.719 112L63.719 113L63.7213 113L63.719 112ZM72.276 103.446L73.276 103.449L73.276 103.447L72.276 103.446ZM55.1621 24.5553L56.1621 24.5568V24.5553H55.1621ZM63.7174 16V15V16ZM72.2728 24.5553L71.2728 24.5553L71.2728 24.5565L72.2728 24.5553ZM104.406 87.4985C103.402 89.2333 101.751 90.4993 99.8145 91.0191L100.333 92.9507C102.78 92.2937 104.867 90.6935 106.137 88.5007L104.406 87.4985ZM99.8145 91.0191C97.8783 91.5389 95.8151 91.2701 94.0768 90.2717L93.0807 92.006C95.278 93.268 97.8858 93.6077 100.333 92.9507L99.8145 91.0191ZM94.0798 90.2735C92.345 89.2689 91.079 87.6177 90.5592 85.6816L88.6277 86.2002C89.2847 88.6474 90.8848 90.7345 93.0776 92.0042L94.0798 90.2735ZM90.5592 85.6816C90.0395 83.7455 90.3082 81.6823 91.3066 79.9439L89.5723 78.9478C88.3103 81.1451 87.9706 83.753 88.6277 86.2002L90.5592 85.6816ZM91.3049 79.947C92.3094 78.2121 93.9606 76.9462 95.8967 76.4264L95.3781 74.4948C92.9309 75.1518 90.8438 76.752 89.5741 78.9448L91.3049 79.947ZM95.8967 76.4264C97.8329 75.9066 99.8961 76.1753 101.634 77.1738L102.631 75.4395C100.433 74.1775 97.8254 73.8378 95.3781 74.4948L95.8967 76.4264ZM101.632 77.1726C105.274 79.2751 106.505 83.8852 104.404 87.4968L106.133 88.5024C108.794 83.9282 107.228 78.0933 102.632 75.4406L101.632 77.1726ZM36.1076 48.0546C35.103 49.7895 33.4519 51.0554 31.5157 51.5752L32.0343 53.5068C34.4815 52.8498 36.5686 51.2496 37.8384 49.0568L36.1076 48.0546ZM31.5157 51.5752C29.5796 52.095 27.5164 51.8263 25.778 50.8278L24.7819 52.5621C26.9792 53.8241 29.5871 54.1638 32.0343 53.5068L31.5157 51.5752ZM25.7809 50.8295C24.0453 49.8249 22.7788 48.1732 22.259 46.2364L20.3274 46.7549C20.9844 49.203 22.5853 51.2907 24.779 52.5605L25.7809 50.8295ZM22.259 46.2364C21.7392 44.2996 22.0084 42.2357 23.0077 40.4971L21.2737 39.5005C20.0106 41.6981 19.6703 44.3068 20.3274 46.7549L22.259 46.2364ZM23.0061 40.4999C24.0107 38.7651 25.6619 37.4991 27.598 36.9793L27.0794 35.0477C24.6322 35.7047 22.5451 37.3049 21.2754 39.4977L23.0061 40.4999ZM27.598 36.9793C29.5341 36.4595 31.5973 36.7283 33.3357 37.7267L34.3318 35.9924C32.1345 34.7304 29.5266 34.3907 27.0794 35.0477L27.598 36.9793ZM33.3326 37.7249C35.0675 38.7295 36.3334 40.3807 36.8532 42.3168L38.7848 41.7982C38.1278 39.351 36.5276 37.2639 34.3348 35.9942L33.3326 37.7249ZM36.8532 42.3168C37.373 44.2529 37.1043 46.3161 36.1058 48.0545L37.8401 49.0506C39.1021 46.8533 39.4418 44.2454 38.7848 41.7982L36.8532 42.3168ZM23.0335 87.5016C22.0351 85.7632 21.7663 83.7 22.2861 81.7639L20.3545 81.2453C19.6975 83.6925 20.0372 86.3004 21.2992 88.4976L23.0335 87.5016ZM22.2861 81.7639C22.8059 79.8277 24.0719 78.1765 25.8067 77.172L24.8045 75.4412C22.6117 76.711 21.0115 78.798 20.3545 81.2453L22.2861 81.7639ZM25.8036 77.1738C27.542 76.1753 29.6052 75.9066 31.5413 76.4264L32.0599 74.4948C29.6127 73.8378 27.0048 74.1775 24.8075 75.4395L25.8036 77.1738ZM31.5413 76.4264C33.4775 76.9462 35.1286 78.2121 36.1332 79.947L37.864 78.9448C36.5942 76.752 34.5072 75.1518 32.0599 74.4948L31.5413 76.4264ZM36.1314 79.9439C37.1299 81.6823 37.3986 83.7455 36.8788 85.6816L38.8104 86.2002C39.4674 83.753 39.1277 81.1451 37.8657 78.9478L36.1314 79.9439ZM36.8788 85.6816C36.359 87.6177 35.0931 89.2689 33.3582 90.2735L34.3604 92.0042C36.5532 90.7345 38.1534 88.6474 38.8104 86.2002L36.8788 85.6816ZM33.3634 90.2705C29.7172 92.3528 25.1044 91.1162 23.0338 87.5053L21.2988 88.5002C23.9259 93.0815 29.7645 94.629 34.3553 92.0072L33.3634 90.2705ZM91.3322 48.0609C90.3338 46.3225 90.0651 44.2593 90.5848 42.3232L88.6532 41.8046C87.9962 44.2518 88.3359 46.8597 89.5979 49.057L91.3322 48.0609ZM90.5848 42.3232C91.1046 40.3871 92.3706 38.7359 94.1054 37.7313L93.1032 36.0006C90.9104 37.2703 89.3103 39.3574 88.6532 41.8046L90.5848 42.3232ZM94.1024 37.7331C95.8407 36.7347 97.9039 36.4659 99.8401 36.9857L100.359 35.0541C97.9114 34.3971 95.3036 34.7368 93.1063 35.9988L94.1024 37.7331ZM99.8401 36.9857C101.776 37.5055 103.427 38.7715 104.432 40.5063L106.163 39.5041C104.893 37.3113 102.806 35.7111 100.359 35.0541L99.8401 36.9857ZM104.43 40.5032C105.429 42.2416 105.697 44.3048 105.178 46.2409L107.109 46.7595C107.766 44.3123 107.426 41.7044 106.164 39.5072L104.43 40.5032ZM105.178 46.2409C104.658 48.1771 103.392 49.8282 101.657 50.8328L102.659 52.5636C104.852 51.2938 106.452 49.2068 107.109 46.7595L105.178 46.2409ZM101.66 50.831C99.9217 51.8295 97.8585 52.0982 95.9223 51.5784L95.4038 53.51C97.851 54.167 100.459 53.8273 102.656 52.5653L101.66 50.831ZM95.9223 51.5784C93.9862 51.0586 92.335 49.7927 91.3305 48.0578L89.5997 49.06C90.8694 51.2528 92.9565 52.853 95.4038 53.51L95.9223 51.5784ZM63.719 111C62.2243 111 60.7631 110.557 59.5203 109.726L58.4091 111.389C59.9808 112.439 61.8287 113 63.719 113L63.719 111ZM59.5203 109.726C58.2775 108.896 57.3089 107.715 56.7371 106.334L54.8892 107.1C55.6125 108.846 56.8374 110.339 58.4091 111.389L59.5203 109.726ZM56.7371 106.334C56.1652 104.953 56.0157 103.434 56.3075 101.968L54.346 101.577C53.9769 103.431 54.166 105.353 54.8892 107.1L56.7371 106.334ZM56.3075 101.968C56.5993 100.502 57.3193 99.1552 58.3765 98.0985L56.9625 96.684C55.6256 98.0204 54.715 99.7233 54.346 101.577L56.3075 101.968ZM58.3765 98.0985C59.4336 97.0417 60.7804 96.3222 62.2465 96.031L61.8568 94.0693C60.0027 94.4377 58.2994 95.3476 56.9625 96.684L58.3765 98.0985ZM62.2465 96.031C63.7126 95.7397 65.2321 95.8898 66.6129 96.4622L67.3788 94.6146C65.6326 93.8907 63.7109 93.701 61.8568 94.0693L62.2465 96.031ZM66.6129 96.4622C67.9937 97.0346 69.1737 98.0036 70.0038 99.2467L71.6671 98.1361C70.6174 96.564 69.125 95.3385 67.3788 94.6146L66.6129 96.4622ZM70.0038 99.2467C70.8338 100.49 71.2765 101.951 71.276 103.446L73.276 103.447C73.2767 101.556 72.7168 99.7082 71.6671 98.1361L70.0038 99.2467ZM71.276 103.444C71.2708 105.447 70.4726 107.366 69.056 108.782L70.4699 110.196C72.2605 108.407 73.2694 105.981 73.276 103.449L71.276 103.444ZM69.056 108.782C67.6394 110.198 65.7197 110.996 63.7168 111L63.7213 113C66.253 112.994 68.6794 111.986 70.4699 110.196L69.056 108.782ZM63.7175 32.1123C62.7249 32.1138 61.7418 31.9194 60.8244 31.5402L60.0604 33.3885C61.221 33.8682 62.4648 34.1142 63.7205 34.1123L63.7175 32.1123ZM60.8244 31.5402C59.9071 31.161 59.0736 30.6046 58.3717 29.9027L56.9575 31.3169C57.8455 32.2048 58.8999 32.9088 60.0604 33.3885L60.8244 31.5402ZM58.3717 29.9027C57.6698 29.2008 57.1134 28.3673 56.7342 27.4499L54.8858 28.2139C55.3655 29.3745 56.0695 30.4289 56.9575 31.3169L58.3717 29.9027ZM56.7342 27.4499C56.355 26.5326 56.1606 25.5495 56.1621 24.5568L54.1621 24.5538C54.1602 25.8096 54.4062 27.0534 54.8858 28.2139L56.7342 27.4499ZM56.1621 24.5553C56.1621 22.5515 56.9581 20.6298 58.375 19.2129L56.9608 17.7987C55.1688 19.5907 54.1621 22.0211 54.1621 24.5553H56.1621ZM58.375 19.2129C59.7919 17.796 61.7136 17 63.7174 17V15C61.1832 15 58.7528 16.0067 56.9608 17.7987L58.375 19.2129ZM63.7174 17C65.7212 17 67.643 17.796 69.0599 19.2129L70.4741 17.7987C68.6821 16.0067 66.2517 15 63.7174 15V17ZM69.0599 19.2129C70.4768 20.6298 71.2728 22.5515 71.2728 24.5553H73.2728C73.2728 22.0211 72.266 19.5907 70.4741 17.7987L69.0599 19.2129ZM71.2728 24.5565C71.2739 25.5486 71.0793 26.5312 70.7001 27.448L72.5483 28.2124C73.028 27.0525 73.2742 25.8094 73.2728 24.5542L71.2728 24.5565ZM70.7001 27.448C70.321 28.3649 69.7647 29.1979 69.0631 29.8995L70.4774 31.3137C71.3649 30.4261 72.0686 29.3723 72.5483 28.2124L70.7001 27.448ZM69.0631 29.8995C68.3616 30.601 67.5286 31.1573 66.6117 31.5364L67.3761 33.3846C68.536 32.905 69.5898 32.2012 70.4774 31.3137L69.0631 29.8995ZM66.6117 31.5364C65.6949 31.9156 64.7123 32.1102 63.7202 32.1091L63.7179 34.1091C64.9731 34.1105 66.2162 33.8643 67.3761 33.3846L66.6117 31.5364Z" fill="#F83BFC" mask="url(#path-8-inside-1_785_3620)"/>
</svg>
