<svg width="128" height="128" viewBox="0 0 128 128" fill="none" xmlns="http://www.w3.org/2000/svg">
<path d="M64.0616 96.16C64.7114 96.92 64.7115 96.92 64.7115 96.9199L64.7117 96.9198L64.7121 96.9195L64.7133 96.9184L64.7175 96.9148L64.7325 96.9019L64.7875 96.8543C64.8345 96.8134 64.9015 96.7548 64.983 96.6824C65.1455 96.5381 65.3678 96.3374 65.6051 96.1129C66.0431 95.6986 66.6532 95.0929 66.9507 94.612L67.1002 94.3702V94.0859V94.0187V93.9962L67.0992 93.9737L65.1613 50.9599C65.1525 50.6671 65.0289 50.3794 64.7953 50.1715C64.571 49.9719 64.3 49.8934 64.0616 49.8934C63.8231 49.8934 63.5521 49.9719 63.3278 50.1715C63.0942 50.3794 62.9706 50.6671 62.9618 50.96L61.0239 93.9737L61.0229 93.9962V94.0187V94.0859V94.3702L61.1725 94.612C61.47 95.0929 62.08 95.6986 62.518 96.1128C62.7554 96.3374 62.9776 96.5381 63.1402 96.6824C63.2216 96.7548 63.2886 96.8134 63.3356 96.8543L63.3906 96.9019L63.4056 96.9148L63.4098 96.9184L63.411 96.9195L63.4114 96.9198L63.4116 96.9199C63.4116 96.92 63.4117 96.92 64.0616 96.16ZM64.0616 96.16L64.7114 96.92L64.0616 97.4757L63.4117 96.92L64.0616 96.16ZM64.5128 105.907C64.5094 105.939 64.506 105.97 64.5028 106H64.0616H63.6208C63.6174 105.968 63.6139 105.936 63.6104 105.903C63.5437 105.286 63.4521 104.419 63.3521 103.425C63.1519 101.433 62.9194 98.9377 62.7869 96.8983L62.7549 96.4055L62.3442 96.1314L62.0669 95.9462L62.0662 95.9457C62.0515 95.9346 62.0284 95.917 61.9974 95.8931C61.9355 95.8453 61.8417 95.772 61.7194 95.6737C61.4747 95.477 61.1155 95.1804 60.667 94.7873C59.7695 94.0008 58.5156 92.8294 57.1039 91.3002C54.2775 88.2386 50.8359 83.7622 48.3465 78.089C45.8601 72.4226 44.3245 65.5663 45.2937 57.7171C46.2624 49.8722 49.7413 40.9689 57.3849 31.2162C60.2637 27.7995 62.8218 24.3465 64.0783 22.607C65.3348 24.3465 67.8929 27.7995 70.7717 31.2162C78.4153 40.9689 81.8942 49.8722 82.8624 57.7165C83.8311 65.5652 82.2945 72.4203 79.8061 78.0844C77.3147 83.7553 73.8703 88.2285 71.0396 91.2849C69.6258 92.8116 68.3697 93.9799 67.47 94.7625C67.1799 95.0148 66.9273 95.2267 66.7188 95.3973L66.7181 95.3966L66.0205 95.9399L65.7197 96.1741L65.3651 96.4503L65.3362 96.8988C65.2037 98.9546 64.9713 101.449 64.771 103.437C64.6711 104.429 64.5795 105.292 64.5128 105.907Z" stroke="#97EE5B" stroke-width="2"/>
</svg>
