<svg width="128" height="128" viewBox="0 0 128 128" fill="none" xmlns="http://www.w3.org/2000/svg">
<mask id="path-1-inside-1_792_3707" fill="white">
<path d="M57.4479 53.9364C55.5055 64.513 52.9404 72.2104 49.7568 76.9914C47.2783 80.6874 44.5606 82.5355 41.6038 82.5355C40.8161 82.5355 39.8429 82.2962 38.6882 81.8218V79.2725C39.2531 79.355 39.913 79.4004 40.6718 79.4004C42.0533 79.4004 43.1626 79.0168 44.0121 78.2536C45.0266 77.3214 45.5339 76.2777 45.5339 75.1186C45.5339 74.3266 45.138 72.7013 44.3503 70.2469L39.1129 53.9322H43.8018L47.5628 66.1342C48.4082 68.9062 48.7588 70.8409 48.6186 71.9423C50.6764 66.4312 52.1115 60.4292 52.9281 53.9405L57.4479 53.9364M36.7458 75.0361H31.9744C31.8054 66.9551 31.3394 59.3567 30.5806 52.2368H30.5393L23.2688 75.0361H19.6357L12.4106 52.2368H12.3693C11.8332 59.0721 11.4951 66.6704 11.3549 75.0361H7C7.28043 64.8637 7.98562 55.3306 9.11144 46.4329H15.0293L21.9162 67.446H21.9574L28.8856 46.4329H34.5478C35.7891 56.8569 36.519 66.3941 36.7458 75.0361"/>
</mask>
<path d="M49.7568 76.9914L50.5873 77.5483L50.5891 77.5456L49.7568 76.9914ZM38.6882 81.8218H37.6882V82.4921L38.3082 82.7468L38.6882 81.8218ZM38.6882 79.2725L38.8327 78.283L37.6882 78.1159V79.2725H38.6882ZM44.0121 78.2536L44.6805 78.9976L44.6888 78.9899L44.0121 78.2536ZM44.3503 70.2469L45.3025 69.9413L45.3024 69.9412L44.3503 70.2469ZM39.1129 53.9322V52.9322H37.7416L38.1608 54.2379L39.1129 53.9322ZM43.8018 53.9322L44.7575 53.6377L44.54 52.9322H43.8018V53.9322ZM47.5628 66.1342L48.5193 65.8425L48.5185 65.8396L47.5628 66.1342ZM48.6186 71.9423L47.6266 71.816L49.5554 72.2921L48.6186 71.9423ZM52.9281 53.9405L52.9271 52.9405L52.0459 52.9413L51.9359 53.8156L52.9281 53.9405ZM31.9744 75.0361L30.9747 75.057L30.9951 76.0361H31.9744V75.0361ZM30.5806 52.2368L31.5749 52.1309L31.4796 51.2368H30.5806V52.2368ZM30.5393 52.2368V51.2368H29.8086L29.5866 51.933L30.5393 52.2368ZM23.2688 75.0361V76.0361H23.9996L24.2216 75.3399L23.2688 75.0361ZM19.6357 75.0361L18.6824 75.3382L18.9036 76.0361H19.6357V75.0361ZM12.4106 52.2368L13.3639 51.9347L13.1427 51.2368H12.4106V52.2368ZM12.3693 52.2368V51.2368H11.4447L11.3724 52.1586L12.3693 52.2368ZM11.3549 75.0361V76.0361H12.3382L12.3547 75.0528L11.3549 75.0361ZM7 75.0361L6.00038 75.0085L5.97205 76.0361H7V75.0361ZM9.11144 46.4329V45.4329H8.23L8.11935 46.3073L9.11144 46.4329ZM15.0293 46.4329L15.9795 46.1214L15.7539 45.4329H15.0293V46.4329ZM21.9162 67.446L20.9659 67.7574L21.1916 68.446H21.9162V67.446ZM21.9574 67.446V68.446H22.6807L22.9072 67.7591L21.9574 67.446ZM28.8856 46.4329V45.4329H28.1624L27.9359 46.1197L28.8856 46.4329ZM34.5478 46.4329L35.5407 46.3146L35.4357 45.4329H34.5478V46.4329ZM56.4643 53.7557C54.5287 64.2955 51.9928 71.8293 48.9244 76.4371L50.5891 77.5456C53.888 72.5916 56.4823 64.7306 58.4314 54.117L56.4643 53.7557ZM48.9262 76.4344C46.5344 80.0013 44.0819 81.5355 41.6038 81.5355V83.5355C45.0394 83.5355 48.0222 81.3736 50.5873 77.5483L48.9262 76.4344ZM41.6038 81.5355C41.001 81.5355 40.1659 81.3478 39.0682 80.8968L38.3082 82.7468C39.5198 83.2446 40.6312 83.5355 41.6038 83.5355V81.5355ZM39.6882 81.8218V79.2725H37.6882V81.8218H39.6882ZM38.5437 80.262C39.1654 80.3528 39.8745 80.4004 40.6718 80.4004V78.4004C39.9514 78.4004 39.3409 78.3572 38.8327 78.283L38.5437 80.262ZM40.6718 80.4004C42.2483 80.4004 43.6122 79.9572 44.6804 78.9976L43.3439 77.5097C42.7131 78.0764 41.8583 78.4004 40.6718 78.4004V80.4004ZM44.6888 78.9899C45.8666 77.9076 46.5339 76.6108 46.5339 75.1186H44.5339C44.5339 75.9446 44.1867 76.7351 43.3355 77.5173L44.6888 78.9899ZM46.5339 75.1186C46.5339 74.5957 46.4093 73.8933 46.2092 73.0699C46.0039 72.2255 45.7001 71.1805 45.3025 69.9413L43.3981 70.5524C43.7881 71.7677 44.0762 72.7626 44.2658 73.5424C44.4604 74.3432 44.5339 74.8495 44.5339 75.1186H46.5339ZM45.3024 69.9412L40.0651 53.6266L38.1608 54.2379L43.3982 70.5525L45.3024 69.9412ZM39.1129 54.9322H43.8018V52.9322H39.1129V54.9322ZM42.8462 54.2268L46.6072 66.4287L48.5185 65.8396L44.7575 53.6377L42.8462 54.2268ZM46.6063 66.4259C47.0224 67.7903 47.3099 68.9269 47.4764 69.8434C47.6456 70.7753 47.6775 71.4161 47.6266 71.816L49.6106 72.0686C49.6999 71.3671 49.6265 70.4898 49.4442 69.486C49.2591 68.4669 48.9486 67.2501 48.5193 65.8425L46.6063 66.4259ZM49.5554 72.2921C51.6432 66.7006 53.0951 60.6222 53.9202 54.0653L51.9359 53.8156C51.1279 60.2362 49.7096 66.1618 47.6817 71.5925L49.5554 72.2921ZM52.929 54.9405L57.4488 54.9364L57.4469 52.9364L52.9271 52.9405L52.929 54.9405ZM36.7458 74.0361H31.9744V76.0361H36.7458V74.0361ZM32.9742 75.0152C32.8046 66.9091 32.3371 59.2821 31.5749 52.1309L29.5862 52.3428C30.3416 59.4313 30.8061 67.0011 30.9747 75.057L32.9742 75.0152ZM30.5806 51.2368H30.5393V53.2368H30.5806V51.2368ZM29.5866 51.933L22.3161 74.7323L24.2216 75.3399L31.492 52.5406L29.5866 51.933ZM23.2688 74.0361H19.6357V76.0361H23.2688V74.0361ZM20.589 74.734L13.3639 51.9347L11.4573 52.5389L18.6824 75.3382L20.589 74.734ZM12.4106 51.2368H12.3693V53.2368H12.4106V51.2368ZM11.3724 52.1586C10.8344 59.0182 10.4955 66.6374 10.355 75.0193L12.3547 75.0528C12.4947 66.7034 12.8321 59.126 13.3663 52.315L11.3724 52.1586ZM11.3549 74.0361H7V76.0361H11.3549V74.0361ZM7.99962 75.0636C8.27926 64.9199 8.98231 55.4198 10.1035 46.5584L8.11935 46.3073C6.98893 55.2415 6.2816 64.8075 6.00038 75.0085L7.99962 75.0636ZM9.11144 47.4329H15.0293V45.4329H9.11144V47.4329ZM14.079 46.7443L20.9659 67.7574L22.8665 67.1345L15.9795 46.1214L14.079 46.7443ZM21.9162 68.446H21.9574V66.446H21.9162V68.446ZM22.9072 67.7591L29.8353 46.746L27.9359 46.1197L21.0077 67.1328L22.9072 67.7591ZM28.8856 47.4329H34.5478V45.4329H28.8856V47.4329ZM33.5548 46.5511C34.7931 56.9505 35.5203 66.4564 35.7461 75.0623L37.7455 75.0098C37.5177 66.3317 36.785 56.7633 35.5407 46.3146L33.5548 46.5511Z" fill="#2871FF" mask="url(#path-1-inside-1_792_3707)"/>
<mask id="path-3-inside-2_792_3707" fill="white">
<path d="M121 75.0322H107.436V46.429H112.002V71.5094H121V75.0322ZM86.891 69.3066C85.7363 67.4421 85.159 64.4514 85.159 60.3264C85.159 53.124 87.3446 49.5187 91.7077 49.5187C93.9924 49.5187 95.6667 50.3808 96.7348 52.1051C97.8895 53.9696 98.4668 56.9356 98.4668 61.007C98.4668 68.2671 96.2812 71.9013 91.9181 71.9013C89.6375 71.8972 87.9591 71.0392 86.891 69.3066ZM103.877 75.7252L98.6359 73.1306C99.1019 72.7469 99.5473 72.3344 99.9473 71.8518C102.174 69.2283 103.288 65.3424 103.288 60.1985C103.288 50.7356 99.5844 46 92.1737 46C88.5406 46 85.7074 47.2004 83.6785 49.6053C81.4516 52.233 80.3381 56.1023 80.3381 61.2174C80.3381 66.2458 81.3237 69.9336 83.295 72.2767C85.093 74.397 87.8065 75.4571 91.4479 75.4571C92.8047 75.4571 94.0501 75.288 95.1801 74.9539L102.005 78.9387L103.865 75.7211M78.3545 67.1039C78.3545 69.5294 77.4679 71.5218 75.6946 73.0811C73.9213 74.6321 71.5377 75.4117 68.5561 75.4117C65.7683 75.4117 63.063 74.5166 60.4443 72.7387L61.6691 70.2802C63.9249 71.4104 65.9621 71.9756 67.7932 71.9756C69.5128 71.9756 70.8531 71.5919 71.8263 70.8329C72.7955 70.0698 73.3769 69.0055 73.3769 67.6566C73.3769 65.9571 72.1975 64.5051 70.0283 63.2882C68.0323 62.1909 64.0321 59.8891 64.0321 59.8891C61.8671 58.3051 60.7784 56.6055 60.7784 53.8046C60.7784 51.4863 61.5867 49.6136 63.2074 48.1904C64.8281 46.7631 66.9189 46.0495 69.484 46.0495C72.1315 46.0495 74.5399 46.759 76.7091 48.1698L75.608 50.6242C73.7522 49.8363 71.9253 49.4403 70.119 49.4403C68.6551 49.4403 67.5251 49.7909 66.7416 50.5004C65.9498 51.2017 65.4631 52.1092 65.4631 53.2106C65.4631 54.906 66.6714 56.3745 68.8984 57.6162C70.9232 58.7176 75.0224 61.0606 75.0224 61.0606C77.2493 62.6405 78.3628 64.3277 78.3628 67.108"/>
</mask>
<path d="M121 75.0322V76.0322H122V75.0322H121ZM107.436 75.0322H106.436V76.0322H107.436V75.0322ZM107.436 46.429V45.429H106.436V46.429H107.436ZM112.002 46.429H113.002V45.429H112.002V46.429ZM112.002 71.5094H111.002V72.5094H112.002V71.5094ZM121 71.5094H122V70.5094H121V71.5094ZM86.891 69.3066L87.7423 68.7819L87.7412 68.7801L86.891 69.3066ZM96.7348 52.1051L97.585 51.5786L97.5849 51.5785L96.7348 52.1051ZM91.9181 71.9013L91.9163 72.9013H91.9181V71.9013ZM98.6359 73.1306L98.0004 72.3585L96.8069 73.341L98.1923 74.0268L98.6359 73.1306ZM99.9473 71.8518L99.1849 71.2046L99.1774 71.2137L99.9473 71.8518ZM83.6785 49.6053L84.4414 50.2518L84.4428 50.2501L83.6785 49.6053ZM83.295 72.2767L82.5297 72.9205L82.5323 72.9235L83.295 72.2767ZM95.1801 74.9539L95.6843 74.0903L95.311 73.8723L94.8965 73.9949L95.1801 74.9539ZM102.005 78.9387L101.501 79.8023L102.368 80.3087L102.871 79.4391L102.005 78.9387ZM75.6946 73.0811L76.3529 73.8338L76.3549 73.832L75.6946 73.0811ZM60.4443 72.7387L59.5493 72.2928L59.1595 73.0751L59.8826 73.566L60.4443 72.7387ZM61.6691 70.2802L62.1171 69.3861L61.221 68.9371L60.7741 69.8342L61.6691 70.2802ZM71.8263 70.8329L72.4413 71.6215L72.445 71.6186L71.8263 70.8329ZM70.0283 63.2882L70.5176 62.416L70.5101 62.4118L70.0283 63.2882ZM64.0321 59.8891L63.4417 60.6962L63.4859 60.7285L63.5334 60.7559L64.0321 59.8891ZM63.2074 48.1904L63.8672 48.9418L63.8683 48.9409L63.2074 48.1904ZM76.7091 48.1698L77.6215 48.5791L77.9718 47.7981L77.2543 47.3315L76.7091 48.1698ZM75.608 50.6242L75.2172 51.5447L76.1192 51.9277L76.5204 51.0335L75.608 50.6242ZM66.7416 50.5004L67.4046 51.2491L67.4128 51.2417L66.7416 50.5004ZM68.8984 57.6162L68.4114 58.4897L68.4205 58.4946L68.8984 57.6162ZM75.0224 61.0606L75.601 60.245L75.5611 60.2167L75.5186 60.1924L75.0224 61.0606ZM121 74.0322H107.436V76.0322H121V74.0322ZM108.436 75.0322V46.429H106.436V75.0322H108.436ZM107.436 47.429H112.002V45.429H107.436V47.429ZM111.002 46.429V71.5094H113.002V46.429H111.002ZM112.002 72.5094H121V70.5094H112.002V72.5094ZM120 71.5094V75.0322H122V71.5094H120ZM87.7412 68.7801C86.738 67.1602 86.159 64.4037 86.159 60.3264H84.159C84.159 64.4992 84.7347 67.724 86.0408 69.8331L87.7412 68.7801ZM86.159 60.3264C86.159 56.7938 86.7008 54.3102 87.6524 52.7399C88.5553 51.25 89.8608 50.5187 91.7077 50.5187V48.5187C89.1916 48.5187 87.2227 49.59 85.942 51.7034C84.71 53.7363 84.159 56.6565 84.159 60.3264H86.159ZM91.7077 50.5187C93.6978 50.5187 95.0245 51.2431 95.8847 52.6317L97.5849 51.5785C96.3089 49.5186 94.287 48.5187 91.7077 48.5187V50.5187ZM95.8846 52.6316C96.8887 54.2528 97.4668 56.9862 97.4668 61.007H99.4668C99.4668 56.8849 98.8903 53.6864 97.585 51.5786L95.8846 52.6316ZM97.4668 61.007C97.4668 64.5692 96.9248 67.0758 95.9716 68.6614C95.067 70.1661 93.7613 70.9013 91.9181 70.9013V72.9013C94.438 72.9013 96.4066 71.8194 97.6857 69.6919C98.916 67.6454 99.4668 64.7049 99.4668 61.007H97.4668ZM91.9199 70.9013C89.9313 70.8977 88.6018 70.1761 87.7422 68.7819L86.0398 69.8314C87.3164 71.9023 89.3438 72.8966 91.9163 72.9013L91.9199 70.9013ZM104.321 74.829L99.0796 72.2344L98.1923 74.0268L103.434 76.6214L104.321 74.829ZM99.2715 73.9026C99.7669 73.4948 100.263 73.0376 100.717 72.4899L99.1774 71.2137C98.8313 71.6313 98.437 71.9991 98.0004 72.3585L99.2715 73.9026ZM100.71 72.4989C103.15 69.6237 104.288 65.466 104.288 60.1985H102.288C102.288 65.2189 101.198 68.8328 99.1849 71.2047L100.71 72.4989ZM104.288 60.1985C104.288 55.3639 103.346 51.5528 101.297 48.9344C99.2117 46.2693 96.1076 45 92.1737 45V47C95.6506 47 98.1035 48.0985 99.7222 50.1669C101.377 52.282 102.288 55.5701 102.288 60.1985H104.288ZM92.1737 45C88.2974 45 85.164 46.2938 82.9142 48.9605L84.4428 50.2501C86.2509 48.107 88.7838 47 92.1737 47V45ZM82.9156 48.9588C80.4765 51.8368 79.3381 55.9767 79.3381 61.2174H81.3381C81.3381 56.2279 82.4267 52.6291 84.4414 50.2518L82.9156 48.9588ZM79.3381 61.2174C79.3381 66.3407 80.3359 70.3129 82.5297 72.9205L84.0602 71.6329C82.3115 69.5544 81.3381 66.1509 81.3381 61.2174H79.3381ZM82.5323 72.9235C84.575 75.3323 87.6093 76.4571 91.4479 76.4571V74.4571C88.0037 74.4571 85.611 73.4617 84.0576 71.6299L82.5323 72.9235ZM91.4479 76.4571C92.8875 76.4571 94.2298 76.2777 95.4636 75.9128L94.8965 73.9949C93.8705 74.2983 92.7219 74.4571 91.4479 74.4571V76.4571ZM94.6759 75.8174L101.501 79.8023L102.509 78.0751L95.6843 74.0903L94.6759 75.8174ZM102.871 79.4391L104.731 76.2216L102.999 75.2207L101.139 78.4382L102.871 79.4391ZM77.3545 67.1039C77.3545 69.2508 76.585 70.9665 75.0342 72.3301L76.3549 73.832C78.3507 72.0771 79.3545 69.808 79.3545 67.1039H77.3545ZM75.0362 72.3284C73.4892 73.6815 71.3612 74.4117 68.5561 74.4117V76.4117C71.7141 76.4117 74.3534 75.5827 76.3529 73.8338L75.0362 72.3284ZM68.5561 74.4117C65.9961 74.4117 63.4833 73.5933 61.006 71.9114L59.8826 73.566C62.6427 75.4399 65.5405 76.4117 68.5561 76.4117V74.4117ZM61.3394 73.1846L62.5642 70.7261L60.7741 69.8342L59.5493 72.2928L61.3394 73.1846ZM61.2212 71.1742C63.5658 72.349 65.7588 72.9756 67.7932 72.9756V70.9756C66.1655 70.9756 64.2841 70.4719 62.1171 69.3861L61.2212 71.1742ZM67.7932 72.9756C69.6529 72.9756 71.2367 72.5609 72.4413 71.6215L71.2114 70.0444C70.4695 70.6229 69.3728 70.9756 67.7932 70.9756V72.9756ZM72.445 71.6186C73.6384 70.6788 74.3769 69.3324 74.3769 67.6566H72.3769C72.3769 68.6786 71.9525 69.4607 71.2077 70.0473L72.445 71.6186ZM74.3769 67.6566C74.3769 65.4157 72.8058 63.6997 70.5176 62.416L69.5391 64.1603C71.5892 65.3104 72.3769 66.4984 72.3769 67.6566H74.3769ZM70.5101 62.4118C69.5197 61.8674 68.0269 61.0212 66.7771 60.3085C66.1532 59.9527 65.5915 59.6311 65.1858 59.3984C64.983 59.2821 64.8192 59.188 64.7061 59.1231C64.6496 59.0906 64.6057 59.0654 64.576 59.0483C64.5612 59.0398 64.5499 59.0333 64.5423 59.0289C64.5385 59.0267 64.5356 59.0251 64.5337 59.024C64.5328 59.0234 64.5321 59.023 64.5316 59.0228C64.5313 59.0226 64.5312 59.0225 64.5311 59.0225C64.531 59.0224 64.531 59.0224 64.5309 59.0224C64.5309 59.0224 64.5309 59.0224 64.0321 59.8891C63.5334 60.7559 63.5334 60.7559 63.5335 60.7559C63.5335 60.7559 63.5335 60.7559 63.5336 60.756C63.5337 60.756 63.5339 60.7561 63.5342 60.7563C63.5347 60.7566 63.5354 60.757 63.5364 60.7576C63.5383 60.7587 63.5412 60.7604 63.5451 60.7626C63.5527 60.767 63.5641 60.7735 63.5791 60.7821C63.609 60.7993 63.653 60.8246 63.7098 60.8572C63.8232 60.9224 63.9875 61.0168 64.1909 61.1334C64.5976 61.3666 65.1607 61.689 65.7863 62.0458C67.0357 62.7583 68.5409 63.6116 69.5466 64.1645L70.5101 62.4118ZM64.6226 59.082C63.6106 58.3416 62.9162 57.6218 62.4667 56.816C62.022 56.0189 61.7784 55.0684 61.7784 53.8046H59.7784C59.7784 55.3418 60.0791 56.6415 60.7201 57.7904C61.3562 58.9307 62.2887 59.8526 63.4417 60.6962L64.6226 59.082ZM61.7784 53.8046C61.7784 51.7488 62.481 50.159 63.8672 48.9418L62.5475 47.439C60.6923 49.0681 59.7784 51.2239 59.7784 53.8046H61.7784ZM63.8683 48.9409C65.2733 47.7035 67.1143 47.0495 69.484 47.0495V45.0495C66.7235 45.0495 64.3828 45.8228 62.5465 47.4399L63.8683 48.9409ZM69.484 47.0495C71.9416 47.0495 74.16 47.7048 76.1639 49.0081L77.2543 47.3315C74.9198 45.8132 72.3214 45.0495 69.484 45.0495V47.0495ZM75.7967 47.7605L74.6956 50.2149L76.5204 51.0335L77.6215 48.5791L75.7967 47.7605ZM75.9988 49.7037C74.0348 48.8699 72.0754 48.4403 70.119 48.4403V50.4403C71.7753 50.4403 73.4696 50.8027 75.2172 51.5447L75.9988 49.7037ZM70.119 48.4403C68.5069 48.4403 67.1004 48.8264 66.0703 49.7592L67.4128 51.2417C67.9498 50.7554 68.8032 50.4403 70.119 50.4403V48.4403ZM66.0785 49.7518C65.1075 50.6119 64.4631 51.7793 64.4631 53.2106H66.4631C66.4631 52.4392 66.7921 51.7915 67.4046 51.2491L66.0785 49.7518ZM64.4631 53.2106C64.4631 55.4561 66.0751 57.187 68.4114 58.4896L69.3853 56.7428C67.2678 55.5621 66.4631 54.3559 66.4631 53.2106H64.4631ZM68.4205 58.4946C69.4246 59.0408 70.9488 59.8981 72.227 60.6217C72.8651 60.9829 73.44 61.3097 73.8554 61.5463C74.0631 61.6646 74.2308 61.7602 74.3467 61.8263C74.4046 61.8594 74.4495 61.885 74.4799 61.9024C74.4951 61.9111 74.5067 61.9177 74.5145 61.9221C74.5183 61.9244 74.5213 61.926 74.5232 61.9271C74.5242 61.9277 74.5249 61.9281 74.5254 61.9284C74.5257 61.9285 74.5258 61.9286 74.526 61.9287C74.526 61.9287 74.5261 61.9288 74.5261 61.9288C74.5261 61.9288 74.5261 61.9288 75.0224 61.0606C75.5186 60.1924 75.5186 60.1924 75.5186 60.1924C75.5185 60.1924 75.5185 60.1924 75.5184 60.1923C75.5183 60.1922 75.5181 60.1921 75.5178 60.192C75.5173 60.1917 75.5166 60.1913 75.5156 60.1907C75.5136 60.1896 75.5106 60.1879 75.5067 60.1856C75.4988 60.1811 75.4871 60.1744 75.4718 60.1657C75.4412 60.1482 75.396 60.1224 75.3379 60.0893C75.2216 60.0229 75.0534 59.9269 74.8451 59.8083C74.4286 59.5712 73.8522 59.2434 73.2123 58.8812C71.9347 58.1579 70.397 57.293 69.3762 56.7377L68.4205 58.4946ZM74.4438 61.8762C75.4879 62.617 76.201 63.3343 76.6611 64.1332C77.1151 64.9216 77.3628 65.8595 77.3628 67.108H79.3628C79.3628 65.5762 79.0537 64.2804 78.3943 63.1351C77.7408 62.0004 76.7838 61.0841 75.601 60.245L74.4438 61.8762Z" fill="#FDAE52" mask="url(#path-3-inside-2_792_3707)"/>
</svg>
