<svg viewBox="0 0 128 128" fill="none" xmlns="http://www.w3.org/2000/svg">
<path d="M93.6492 54.5615H85.2617V51.5106H106.209V54.5615H98.0026H97.5026V55.0615V75.8725H94.1492V55.0615V54.5615H93.6492Z" stroke="#131212"/>
<path d="M27.2197 54.5615V51.5106H48.1667V54.5615H31.0747H30.5747V55.0615V61.5781V62.0781H31.0747H44.7222V65.1289H31.0747H30.5747V65.6289V72.3216V72.8216H31.0747H48.1667V75.8725H27.2215V55.0615V54.5615H27.2197Z" stroke="#131212"/>
<path d="M67.3796 60.4822L74.5724 51.549L78.985 51.5422L69.4528 63.3976L69.2007 63.7111L69.453 64.0245L79.0017 75.8831H74.5722L54.9717 51.5213H59.3853L66.6007 60.4822L66.9902 60.9658L67.3796 60.4822Z" stroke="#131212"/>
<path d="M54.9557 75.9024L62.6171 66.3877L64.8285 69.1372L59.3849 75.9024H54.9557Z" stroke="#131212"/>
<path d="M4.85312 56.4211V75.8618H1.5V51.5H6.20207L25.8292 75.8724H21.6447L5.74268 56.1076L4.85312 55.002V56.4211Z" stroke="#131212"/>
<path d="M107.034 75.0856L107.034 75.0856L107.034 75.0764C107.033 74.9094 107.087 74.7747 107.219 74.646C107.353 74.516 107.499 74.4562 107.688 74.4562C107.86 74.4562 108.004 74.513 108.141 74.646L108.141 74.646L108.144 74.6484C108.277 74.7768 108.335 74.9122 108.338 75.0799C108.335 75.2024 108.305 75.3024 108.251 75.3895C108.183 75.4983 108.104 75.5739 108.007 75.6285L108.007 75.6284L107.998 75.6337C107.905 75.689 107.805 75.7175 107.688 75.7175C107.499 75.7175 107.353 75.6577 107.219 75.5278C107.09 75.4015 107.033 75.265 107.034 75.0856Z" stroke="#131212"/>
<path d="M111.113 74.6488L111.112 74.6467C110.956 74.4166 110.847 74.1368 110.794 73.7965H111.75C111.793 73.9714 111.86 74.1375 111.953 74.2919C112.127 74.582 112.37 74.8031 112.669 74.9547L112.671 74.9557C112.972 75.106 113.305 75.1742 113.656 75.1742C114.032 75.1742 114.393 75.0965 114.704 74.9079C115.017 74.7214 115.246 74.4463 115.398 74.1092L115.398 74.1092L115.399 74.1063C115.546 73.7746 115.613 73.3889 115.616 72.969L115.616 72.969V72.9652V66.0333H116.545V72.9642C116.542 73.5738 116.411 74.0673 116.175 74.4692C115.933 74.8761 115.6 75.1858 115.164 75.4084C114.729 75.6288 114.204 75.7495 113.582 75.7495C113.015 75.7495 112.522 75.6475 112.091 75.4577C111.673 75.2736 111.35 75.0031 111.113 74.6488Z" stroke="#131212"/>
<path d="M125.939 67.149C126.11 67.3889 126.229 67.6509 126.295 67.9398H125.385C125.255 67.5496 125.009 67.2232 124.655 66.9772C124.186 66.6503 123.609 66.5098 122.963 66.5098C122.51 66.5098 122.095 66.578 121.731 66.7277L121.731 66.7277L121.727 66.7294C121.378 66.877 121.073 67.0881 120.854 67.3828L120.853 67.3832C120.635 67.6782 120.527 68.0153 120.519 68.376L120.519 68.376V68.3875C120.519 68.6901 120.592 68.9785 120.754 69.2297C120.899 69.4574 121.092 69.6457 121.331 69.7934C121.545 69.9298 121.777 70.0379 122.022 70.1236L122.023 70.1242C122.256 70.2049 122.49 70.2734 122.724 70.3295C122.724 70.3296 122.725 70.3297 122.725 70.3298L123.728 70.5762L123.728 70.5763L123.735 70.5779C124.113 70.6649 124.477 70.7811 124.822 70.9284L124.822 70.9284L124.825 70.9297C125.159 71.0695 125.457 71.2463 125.715 71.4557L125.716 71.4559C125.96 71.6534 126.151 71.8893 126.293 72.1669L126.293 72.1669C126.425 72.4249 126.501 72.7424 126.501 73.1367C126.501 73.6646 126.367 74.1075 126.107 74.4874C125.847 74.866 125.464 75.1768 124.929 75.41C124.402 75.6379 123.742 75.764 122.93 75.764C122.148 75.764 121.491 75.6436 120.956 75.4192L120.953 75.4181C120.418 75.1977 120.019 74.8821 119.734 74.4786L119.734 74.4786C119.537 74.1996 119.398 73.8701 119.325 73.4826H120.26C120.336 73.7534 120.461 73.9996 120.637 74.2162L120.637 74.2162L120.641 74.2211C120.907 74.5402 121.248 74.7671 121.642 74.9155L121.642 74.9155L121.648 74.9173C122.037 75.0589 122.461 75.1277 122.916 75.1277C123.388 75.1277 123.822 75.0562 124.212 74.9047L124.213 74.9042C124.595 74.7543 124.924 74.5339 125.169 74.2264C125.427 73.9091 125.553 73.5337 125.557 73.1269L125.557 73.1269L125.557 73.1169C125.553 72.7378 125.436 72.3873 125.187 72.1051L125.187 72.105L125.184 72.1017C124.961 71.8544 124.671 71.6657 124.336 71.5229L124.334 71.5222C124.018 71.3884 123.656 71.2704 123.253 71.1694C123.253 71.1694 123.252 71.1694 123.252 71.1693L122.033 70.8616C122.033 70.8616 122.033 70.8616 122.033 70.8615C121.204 70.6511 120.585 70.3409 120.152 69.9534L120.151 69.9525C119.757 69.6021 119.552 69.14 119.552 68.5067C119.552 67.9824 119.694 67.5421 119.97 67.1672L119.97 67.1672L119.972 67.1653C120.255 66.7774 120.65 66.4664 121.172 66.2387L121.173 66.2382C121.695 66.0089 122.298 65.8909 122.989 65.8909C123.695 65.8909 124.288 66.0094 124.785 66.2355L124.785 66.2356L124.787 66.2364C125.29 66.4628 125.669 66.7697 125.939 67.1488L125.939 67.149Z" stroke="#131212"/>
</svg>
