<svg width="128" height="128" viewBox="0 0 128 128" fill="none" xmlns="http://www.w3.org/2000/svg">
<path d="M75.3847 21.6949L75.8476 21.6604L75.8476 21.6551C78.4798 21.4403 80.1222 21.4288 81.5117 21.747C82.9625 22.0794 84.1793 22.7815 85.9883 24.1073L85.9883 24.1073L85.9942 24.1115L101.434 35.0829C101.435 35.0838 101.437 35.0847 101.438 35.0857C102.555 35.9121 103.222 36.4102 103.632 36.9233C104.004 37.3899 104.169 37.8822 104.169 38.7512L104.169 97.4395C104.169 99.2323 103.842 100.548 103.049 101.458C102.26 102.362 100.923 102.964 98.6719 103.126C98.6709 103.127 98.67 103.127 98.669 103.127L43.8528 106.471C43.8518 106.471 43.8508 106.471 43.8498 106.471C42.1279 106.554 40.9266 106.465 39.9468 106.104C38.984 105.749 38.1845 105.111 37.3103 103.989C37.3097 103.988 37.3092 103.987 37.3086 103.986L26.217 89.4503C26.2164 89.4495 26.2158 89.4486 26.2152 89.4478C24.2607 86.818 23.5 84.9182 23.5 82.7251L23.5 30.5581C23.5 29.1206 23.8177 27.8644 24.5343 26.9374C25.2399 26.0246 26.3824 25.3662 28.1744 25.2094C28.1754 25.2093 28.1765 25.2092 28.1775 25.2091L75.3847 21.6949ZM30.2599 31.2468L30.2809 31.2683L30.3043 31.287L36.7665 36.4676C38.0659 37.5323 39.0334 38.0951 40.2843 38.3221C41.3915 38.5231 42.7009 38.4541 44.6165 38.3256L44.6165 38.3275L45.1513 38.2903L45.727 38.2501L45.7315 38.2498L92.5853 35.407C92.8779 35.4044 93.2454 35.3312 93.4401 35.0034C93.6291 34.6849 93.5178 34.349 93.4395 34.1778C93.3485 33.9787 93.2088 33.794 93.0774 33.6521C92.9627 33.5281 92.8185 33.3981 92.673 33.3146L84.9218 27.6542C84.1656 27.0612 83.2509 26.3992 82.024 25.9344C80.7902 25.467 79.2662 25.2082 77.2929 25.3814C77.2917 25.3815 77.2905 25.3816 77.2893 25.3817L31.9089 28.7239L31.9089 28.7237L31.8955 28.725C31.0232 28.813 30.3316 29.0886 29.997 29.5952C29.82 29.8631 29.7629 30.1708 29.8247 30.4752C29.8843 30.7689 30.0474 31.0299 30.2599 31.2468ZM39.3971 96.9381L39.3971 97.4381L39.4137 97.4381C39.4904 98.6105 39.8528 99.5356 40.619 100.15C41.4693 100.832 42.7016 101.034 44.2288 100.949L44.2302 100.949L95.7462 97.9387C97.3459 97.8496 98.354 97.2966 98.9204 96.361C99.4554 95.4773 99.5316 94.3437 99.5316 93.2574L99.5316 43.7675C99.5316 42.6361 99.32 41.6638 98.7812 40.9904C98.2177 40.2859 97.3744 40.0011 96.3434 40.0929L42.5154 43.2693L42.5153 43.2691L42.5025 43.2702C41.4361 43.3608 40.6118 43.6864 40.0788 44.3869C39.5632 45.0646 39.3971 45.9978 39.3971 47.1163L39.3971 96.9381ZM60.4025 91.5912L49.3878 92.2354C49.3851 92.1964 49.3838 92.1544 49.3842 92.1093C49.3862 91.9075 49.4234 91.6784 49.4995 91.4568C49.6556 91.0015 49.9372 90.6705 50.3004 90.5652C50.3011 90.565 50.3018 90.5647 50.3026 90.5645L53.2829 89.7313L53.6483 89.6292L53.6483 89.2498L53.6483 56.3122L53.6483 55.8514L53.189 55.8139L49.444 55.5082C49.4037 54.9542 49.5312 54.332 49.8479 53.8086C50.2241 53.1871 50.8691 52.6985 51.8581 52.6263C51.8585 52.6262 51.859 52.6262 51.8594 52.6262L63.8223 51.8146L80.5569 77.6486L81.4766 79.0683L81.4766 77.3768L81.4766 54.3033L81.4766 53.8578L81.0341 53.8066L77.1216 53.3534C77.0668 52.0396 78.0574 51.0901 79.3574 50.9577L90.336 50.3136C90.4036 50.847 90.3656 51.3298 90.2227 51.697C90.0569 52.1233 89.7498 52.4095 89.2011 52.4727L89.1806 52.4751L89.1603 52.4791L86.6773 52.9753L86.2753 53.0557L86.2753 53.4656L86.2753 89.9503C84.2554 91.0139 82.4499 91.5878 80.9757 91.5878C79.7082 91.5878 78.9944 91.3889 78.3638 90.9467C77.6958 90.4784 77.0865 89.7188 76.0855 88.4555L59.8623 62.7302L58.9394 61.2667L58.9394 62.9969L58.9394 87.9082L58.9394 88.307L59.3282 88.3957L64.0176 89.4658C63.9614 89.6989 63.8532 90.0011 63.6461 90.3018C63.2351 90.899 62.365 91.5904 60.4317 91.5904L60.4171 91.5904L60.4025 91.5912Z" stroke="#131212"/>
</svg>
