<svg width="128" height="128" viewBox="0 0 128 128" fill="none" xmlns="http://www.w3.org/2000/svg">
<path d="M34.6827 77.3534L34.668 77.3526H34.6533H26.4647H26.051L25.9736 77.759L24.231 86.9071H16.6084L23.6908 51.054H40.0976C43.6579 51.279 46.2518 52.2775 47.9548 53.9273C49.653 55.5724 50.5326 57.9306 50.5326 61.0187C50.5326 71.6423 42.1387 77.7921 34.6827 77.3534ZM27.791 70.9461L27.694 71.5283H28.2842H33.7441H33.7718L33.7994 71.5253C35.8709 71.295 37.9416 70.8264 39.5428 69.3482C41.1527 67.862 42.201 65.44 42.4324 61.5026L42.4332 61.488V61.4733C42.4332 59.9485 41.7877 58.7715 40.6862 57.9939C39.6065 57.2318 38.1279 56.8788 36.4738 56.8788H30.5593H30.1357L30.0661 57.2965L27.791 70.9461ZM57.0316 41.5H64.6612L62.9543 50.4604L62.8413 51.054H63.4455H71.6189C75.1826 51.2792 77.5385 52.2783 78.8955 53.6875C80.2382 55.0819 80.6738 56.9519 80.2442 59.1007L80.244 59.1007L80.2416 59.1146L77.1278 77.3526H69.0538L72.1254 61.1167C72.1256 61.1159 72.1258 61.1151 72.1259 61.1143C72.24 60.5432 72.3324 59.9975 72.3479 59.506C72.3635 59.0141 72.3044 58.5289 72.0738 58.1062C71.5885 57.2164 70.5202 56.8788 68.9054 56.8788H62.0806H61.6707L61.5904 57.2807L57.5762 77.3526H49.9497L57.0316 41.5ZM95.6501 77.3534L95.6354 77.3526H95.6207H87.4311H87.0174L86.9399 77.759L85.1974 86.9071H77.5753L84.6572 51.054H101.064C104.625 51.279 107.219 52.2775 108.922 53.9273C110.62 55.5724 111.5 57.9306 111.5 61.0187C111.5 71.6423 103.106 77.7921 95.6501 77.3534ZM88.7574 70.9461L88.6603 71.5283H89.2505H89.2511H94.711H94.7387L94.7662 71.5253C96.8378 71.295 98.9084 70.8264 100.51 69.3482C102.12 67.862 103.168 65.44 103.399 61.5026L103.4 61.488V61.4733C103.4 59.9485 102.755 58.7715 101.653 57.9939C100.573 57.2318 99.0948 56.8788 97.4407 56.8788H91.5257H91.1021L91.0325 57.2965L88.7574 70.9461Z" stroke="#2871FF"/>
</svg>
