<svg width="128" height="128" viewBox="0 0 128 128" fill="none" xmlns="http://www.w3.org/2000/svg">
<mask id="path-1-outside-1_792_3714" maskUnits="userSpaceOnUse" x="22" y="20" width="85" height="88" fill="black">
<rect fill="white" x="22" y="20" width="85" height="88"/>
<path d="M73.1804 107C67.1052 107.001 65.1812 102.19 64.3933 100.223C63.2416 97.3407 62.9924 86.1522 63.249 76.9766C63.2661 76.6702 63.402 76.3827 63.6279 76.175C63.8537 75.9673 64.1517 75.8559 64.4583 75.8645C64.765 75.8731 65.0563 76.001 65.2702 76.221C65.484 76.441 65.6036 76.7357 65.6036 77.0425C65.3076 87.6254 65.7282 97.2151 66.5802 99.348C67.9114 102.676 69.9298 105.586 75.6386 104.364C81.0578 103.201 83.0871 101.146 83.9905 95.9077C84.685 91.8866 86.0556 80.448 86.2242 78.1905C86.2474 77.8791 86.3933 77.5897 86.6299 77.3859C86.8665 77.1822 87.1744 77.0807 87.4858 77.1039C87.7971 77.1271 88.0866 77.2731 88.2903 77.5097C88.4941 77.7463 88.5956 78.0541 88.5724 78.3655C88.3964 80.7146 87.0313 92.1321 86.3103 96.3081C85.2429 102.497 82.4843 105.304 76.1315 106.667C75.1622 106.881 74.1731 106.993 73.1804 107V107ZM40.2426 83.5044C39.7117 83.5038 39.1844 83.4169 38.6814 83.247C34.7354 81.9304 30.9772 75.5043 27.5104 64.1454C24.8718 55.4984 23.1997 46.474 23.0531 43.5413C22.6179 34.8467 24.858 28.6945 29.7092 25.257C39.3072 18.4561 55.4541 24.9326 56.1366 25.2111C56.4231 25.331 56.6505 25.5592 56.7695 25.846C56.8885 26.1328 56.8894 26.455 56.7719 26.7425C56.6545 27.0299 56.4283 27.2593 56.1425 27.3807C55.8567 27.5021 55.5345 27.5057 55.2461 27.3907V27.3917C55.0903 27.3275 39.6068 21.125 31.0661 27.1819C26.9176 30.1237 25.0129 35.5879 25.4041 43.4249C25.5277 45.895 27.0898 54.7041 29.7624 63.4592C32.8572 73.5986 36.38 79.9982 39.4263 81.0133C39.9036 81.1736 41.3585 81.6583 43.4401 79.1571C47.3541 74.4479 50.9501 70.6897 50.9858 70.6521C51.2048 70.44 51.4975 70.321 51.8023 70.3201C52.1072 70.3192 52.4006 70.4366 52.6208 70.6475C52.8409 70.8584 52.9708 71.1465 52.983 71.4511C52.9952 71.7557 52.8888 72.0533 52.6863 72.2811C52.6505 72.3178 49.1095 76.0201 45.2505 80.6624C43.4227 82.8594 41.67 83.5044 40.2426 83.5044V83.5044ZM91.4757 73.583C91.262 73.5833 91.0521 73.5254 90.8688 73.4154C90.6855 73.3054 90.5356 73.1475 90.4352 72.9587C90.3349 72.7699 90.2879 72.5573 90.2993 72.3438C90.3107 72.1304 90.3801 71.924 90.5 71.747C101.468 55.4719 105.317 35.8078 102.02 31.5951C97.8698 26.2922 92.009 23.5217 84.6016 23.3632C79.1164 23.2441 74.7563 24.6449 74.0444 24.8896L73.8657 24.9619C73.1493 25.1873 72.5996 24.7943 72.3925 24.3353C72.2745 24.0723 72.2567 23.7752 72.3424 23.5C72.4281 23.2248 72.6115 22.9904 72.8579 22.841L73.1749 22.7109L73.1594 22.7154L73.1758 22.71C74.3861 22.2674 78.8122 20.939 84.2956 21.0022C92.4927 21.0883 99.2633 24.2501 103.875 30.143C106.058 32.9318 106.062 39.3571 103.889 47.7704C101.674 56.3477 97.5052 65.5673 92.4533 73.0635C92.3456 73.2238 92.2001 73.3551 92.0296 73.4457C91.8591 73.5363 91.6688 73.5835 91.4757 73.583V73.583ZM92.0355 81.1168C90.1629 81.1168 88.4844 80.8539 87.4793 80.251C86.4459 79.6326 86.2489 78.7906 86.2233 78.3444C85.9411 73.3934 88.6731 72.5312 90.0667 72.1382C89.8724 71.845 89.5957 71.4996 89.3108 71.1432C88.4981 70.1281 87.3859 68.7373 86.5283 66.6576C86.3946 66.3332 85.9731 65.5774 85.4857 64.7033C82.8444 59.9676 77.3491 50.1122 80.8791 45.0649C82.5136 42.7295 85.7661 41.8106 90.5596 42.3237C89.1496 38.0277 82.4339 24.5881 66.5014 24.327C61.7089 24.2464 57.7784 25.7205 54.8256 28.7018C48.2134 35.3799 48.4535 47.4626 48.4562 47.5826C48.4603 47.7371 48.4338 47.8909 48.3784 48.0353C48.323 48.1796 48.2397 48.3116 48.1332 48.4237C48.0268 48.5358 47.8993 48.6259 47.7581 48.6888C47.6169 48.7516 47.4646 48.7861 47.3101 48.7901C47.1555 48.7941 47.0017 48.7677 46.8574 48.7123C46.7131 48.6569 46.5811 48.5736 46.4689 48.4671C46.3568 48.3607 46.2667 48.2332 46.2039 48.092C46.141 47.9507 46.1066 47.7985 46.1025 47.644C46.0879 47.108 45.8405 34.4289 53.1526 27.0444C56.5746 23.5886 61.0785 21.8826 66.5399 21.9715C76.7352 22.1392 83.296 27.3211 87.0057 31.64C91.0479 36.3456 93.0305 41.5367 93.1936 43.2683C93.3155 44.5564 92.391 44.8148 92.2041 44.8523L91.7799 44.8624C87.0753 44.1093 84.0574 44.6315 82.8095 46.4154C80.1242 50.2523 85.3226 59.5745 87.5426 63.5563C88.1097 64.5714 88.5183 65.3053 88.7052 65.7588C89.4345 67.527 90.3855 68.7153 91.1496 69.67C91.8211 70.5101 92.4038 71.2376 92.6127 72.0933C92.7089 72.2628 94.0814 74.2912 102.222 72.611C104.262 72.1904 105.485 72.5505 105.859 73.6811C106.595 75.9065 102.467 78.5011 100.182 79.563C98.1318 80.5149 94.8638 81.1168 92.0355 81.1168V81.1168ZM88.5714 78.1502C88.8289 78.4113 90.1207 78.8603 92.7969 78.7457C95.1753 78.6431 97.6847 78.1255 99.191 77.4273C101.117 76.5331 102.401 75.5336 103.067 74.851L102.697 74.9188C97.4923 75.9935 93.8111 75.8506 91.7561 74.4928C91.6178 74.4017 91.4848 74.3029 91.3576 74.1969C91.1349 74.2848 90.9288 74.3425 90.7822 74.3838C89.6159 74.7108 88.4102 75.0489 88.5714 78.1502V78.1502ZM54.9502 84.7275C53.6574 84.7275 52.2969 84.5525 50.907 84.2035C49.4677 83.8434 47.0398 82.7595 47.0774 80.9794C47.1186 78.9812 50.0238 78.382 51.1187 78.1566C55.0693 77.3431 55.3267 77.0169 56.5617 75.4493C56.9218 74.9921 57.3698 74.4232 57.98 73.7406C58.887 72.7264 59.8783 72.2115 60.9264 72.2115C61.6557 72.2115 62.2549 72.4598 62.6498 72.6229C63.9105 73.1451 64.9622 74.4076 65.3947 75.9193C65.785 77.2826 65.599 78.5946 64.8706 79.6134C62.4812 82.9602 59.051 84.7275 54.9502 84.7275V84.7275ZM49.6207 81.0811C49.9762 81.355 50.6871 81.7215 51.4778 81.9203C52.6817 82.2208 53.8489 82.3738 54.9502 82.3738C58.3052 82.3738 60.9979 80.984 62.9549 78.2455C63.3626 77.6738 63.2407 76.9491 63.1317 76.567C62.9026 75.7681 62.3346 75.0416 61.7492 74.7979C61.4313 74.666 61.1683 74.5652 60.9264 74.5652C60.7963 74.5652 60.4015 74.5652 59.7354 75.31C59.1729 75.9385 58.7688 76.4516 58.4106 76.9051C56.8732 78.8575 56.1687 79.5199 51.5932 80.4627C50.4773 80.6935 49.9047 80.9263 49.6207 81.0811ZM58.6745 75.6499C58.3934 75.6495 58.1218 75.5486 57.9086 75.3655C57.6954 75.1824 57.5546 74.9291 57.5118 74.6513C57.4817 74.4558 57.4621 74.2589 57.4532 74.0613C54.4536 74.0045 51.5603 72.7181 49.3642 70.4258C46.5872 67.5279 45.3229 63.5132 45.8964 59.4115C46.5194 54.957 46.2867 51.0247 46.1612 48.912C46.1298 48.4774 46.1105 48.042 46.1035 47.6064C46.1053 47.2344 46.1126 46.2459 49.4155 44.572C50.59 43.9765 52.9455 42.9375 55.5182 42.6709C59.7821 42.2311 62.5921 44.1295 63.4331 48.0178C65.7034 58.5173 63.6127 63.1614 62.0863 66.5522C61.8014 67.1825 61.533 67.7799 61.3186 68.3571L61.1289 68.8674C60.3227 71.0296 59.6255 72.8977 59.8398 74.294C59.887 74.6026 59.8097 74.9174 59.6251 75.1692C59.4405 75.421 59.1635 75.5893 58.8549 75.6371L58.6745 75.6499V75.6499ZM48.4654 47.9316L48.5121 48.7727C48.6422 50.967 48.8841 55.0513 48.2281 59.7385C47.7553 63.1211 48.7888 66.4239 51.0637 68.7978C52.8612 70.6741 55.2287 71.7094 57.6612 71.7094H57.7115C57.9846 70.5614 58.4362 69.3502 58.9227 68.0447L59.1115 67.538C59.3543 66.8857 59.6383 66.2545 59.9388 65.5866C61.4084 62.3213 63.2371 58.2571 61.1307 48.5153C60.713 46.5867 59.7015 45.4699 58.0386 45.1015C54.6231 44.3466 49.5337 46.9156 48.4654 47.9316V47.9316ZM55.5713 47.4323C55.5127 47.8483 56.3345 48.9596 57.4046 49.108C58.4738 49.2574 59.3891 48.3888 59.4468 47.9729C59.5045 47.556 58.6836 47.0979 57.6126 46.9486C56.5434 46.7992 55.6281 47.0155 55.5713 47.4323V47.4323ZM57.6511 49.5185L57.3506 49.4974C56.6863 49.4049 56.0148 48.9862 55.5558 48.3769C55.3945 48.1634 55.1306 47.7475 55.1829 47.3774C55.258 46.8341 55.9195 46.5097 56.9539 46.5097C57.1856 46.5097 57.4257 46.5271 57.6685 46.5601C58.2329 46.6389 58.7578 46.802 59.1454 47.0182C59.8169 47.3938 59.8664 47.8116 59.8362 48.0288C59.7528 48.627 58.7981 49.5185 57.6511 49.5185V49.5185ZM55.9616 47.502C55.9955 47.7585 56.6304 48.606 57.4587 48.7205L57.6502 48.7342C58.4143 48.7342 58.986 48.1323 59.0528 47.9353C58.9823 47.8015 58.4912 47.4671 57.5585 47.3389C57.3579 47.31 57.1556 47.2953 56.9529 47.2949C56.3556 47.294 56.0358 47.4287 55.9616 47.502V47.502ZM88.139 46.583C88.1967 46.9999 87.3767 48.1112 86.3057 48.2596C85.2356 48.4081 84.3203 47.5404 84.2617 47.1236C84.2049 46.7076 85.0258 46.2486 86.0959 46.1002C87.166 45.9499 88.0804 46.168 88.139 46.583ZM86.0593 48.4722C85.0285 48.4722 84.1408 47.6705 84.0675 47.1511C83.9832 46.5271 85.0102 46.0525 86.0693 45.906C86.302 45.873 86.5329 45.8565 86.7556 45.8565C87.669 45.8565 88.2737 46.1249 88.3341 46.5564C88.3735 46.8368 88.1592 47.2683 87.789 47.6568C87.5453 47.9133 87.0322 48.3577 86.3341 48.4539L86.0593 48.4722ZM86.7546 46.2486C86.5503 46.2486 86.3378 46.2642 86.1225 46.2935C85.0579 46.441 84.4248 46.8689 84.455 47.0979C84.4907 47.3489 85.1696 48.0801 86.0583 48.0801L86.2773 48.0645C86.8582 47.983 87.2943 47.6046 87.5022 47.3856C87.8284 47.042 87.9585 46.7195 87.9429 46.6087C87.9237 46.4648 87.5316 46.2486 86.7546 46.2486V46.2486ZM89.6809 70.4845C89.4677 70.4844 89.2585 70.4263 89.0757 70.3166C88.8928 70.2068 88.7432 70.0495 88.6429 69.8613C88.5425 69.6732 88.4951 69.4613 88.5058 69.2484C88.5164 69.0354 88.5847 68.8293 88.7034 68.6521C91.2101 64.9077 90.751 61.0881 90.3076 57.3958C90.118 55.8218 89.9228 54.1956 89.9741 52.6335C90.0254 51.0274 90.2288 49.7026 90.4267 48.42C90.6603 46.9019 90.8811 45.4662 90.7895 43.7639C90.7828 43.458 90.8954 43.1614 91.1034 42.937C91.3114 42.7126 91.5986 42.5779 91.9042 42.5615C92.2098 42.5451 92.5098 42.6482 92.7407 42.849C92.9716 43.0498 93.1153 43.3326 93.1414 43.6375C93.2458 45.5835 92.9957 47.2069 92.7538 48.7782C92.5669 49.9903 92.3736 51.2437 92.3269 52.7086C92.282 54.0912 92.4588 55.5598 92.6457 57.1137C93.1185 61.0414 93.6526 65.4931 90.6603 69.9613C90.4331 70.3003 90.0602 70.4845 89.6809 70.4845Z"/>
</mask>
<path d="M73.1804 107C67.1052 107.001 65.1812 102.19 64.3933 100.223C63.2416 97.3407 62.9924 86.1522 63.249 76.9766C63.2661 76.6702 63.402 76.3827 63.6279 76.175C63.8537 75.9673 64.1517 75.8559 64.4583 75.8645C64.765 75.8731 65.0563 76.001 65.2702 76.221C65.484 76.441 65.6036 76.7357 65.6036 77.0425C65.3076 87.6254 65.7282 97.2151 66.5802 99.348C67.9114 102.676 69.9298 105.586 75.6386 104.364C81.0578 103.201 83.0871 101.146 83.9905 95.9077C84.685 91.8866 86.0556 80.448 86.2242 78.1905C86.2474 77.8791 86.3933 77.5897 86.6299 77.3859C86.8665 77.1822 87.1744 77.0807 87.4858 77.1039C87.7971 77.1271 88.0866 77.2731 88.2903 77.5097C88.4941 77.7463 88.5956 78.0541 88.5724 78.3655C88.3964 80.7146 87.0313 92.1321 86.3103 96.3081C85.2429 102.497 82.4843 105.304 76.1315 106.667C75.1622 106.881 74.1731 106.993 73.1804 107V107ZM40.2426 83.5044C39.7117 83.5038 39.1844 83.4169 38.6814 83.247C34.7354 81.9304 30.9772 75.5043 27.5104 64.1454C24.8718 55.4984 23.1997 46.474 23.0531 43.5413C22.6179 34.8467 24.858 28.6945 29.7092 25.257C39.3072 18.4561 55.4541 24.9326 56.1366 25.2111C56.4231 25.331 56.6505 25.5592 56.7695 25.846C56.8885 26.1328 56.8894 26.455 56.7719 26.7425C56.6545 27.0299 56.4283 27.2593 56.1425 27.3807C55.8567 27.5021 55.5345 27.5057 55.2461 27.3907V27.3917C55.0903 27.3275 39.6068 21.125 31.0661 27.1819C26.9176 30.1237 25.0129 35.5879 25.4041 43.4249C25.5277 45.895 27.0898 54.7041 29.7624 63.4592C32.8572 73.5986 36.38 79.9982 39.4263 81.0133C39.9036 81.1736 41.3585 81.6583 43.4401 79.1571C47.3541 74.4479 50.9501 70.6897 50.9858 70.6521C51.2048 70.44 51.4975 70.321 51.8023 70.3201C52.1072 70.3192 52.4006 70.4366 52.6208 70.6475C52.8409 70.8584 52.9708 71.1465 52.983 71.4511C52.9952 71.7557 52.8888 72.0533 52.6863 72.2811C52.6505 72.3178 49.1095 76.0201 45.2505 80.6624C43.4227 82.8594 41.67 83.5044 40.2426 83.5044V83.5044ZM91.4757 73.583C91.262 73.5833 91.0521 73.5254 90.8688 73.4154C90.6855 73.3054 90.5356 73.1475 90.4352 72.9587C90.3349 72.7699 90.2879 72.5573 90.2993 72.3438C90.3107 72.1304 90.3801 71.924 90.5 71.747C101.468 55.4719 105.317 35.8078 102.02 31.5951C97.8698 26.2922 92.009 23.5217 84.6016 23.3632C79.1164 23.2441 74.7563 24.6449 74.0444 24.8896L73.8657 24.9619C73.1493 25.1873 72.5996 24.7943 72.3925 24.3353C72.2745 24.0723 72.2567 23.7752 72.3424 23.5C72.4281 23.2248 72.6115 22.9904 72.8579 22.841L73.1749 22.7109L73.1594 22.7154L73.1758 22.71C74.3861 22.2674 78.8122 20.939 84.2956 21.0022C92.4927 21.0883 99.2633 24.2501 103.875 30.143C106.058 32.9318 106.062 39.3571 103.889 47.7704C101.674 56.3477 97.5052 65.5673 92.4533 73.0635C92.3456 73.2238 92.2001 73.3551 92.0296 73.4457C91.8591 73.5363 91.6688 73.5835 91.4757 73.583V73.583ZM92.0355 81.1168C90.1629 81.1168 88.4844 80.8539 87.4793 80.251C86.4459 79.6326 86.2489 78.7906 86.2233 78.3444C85.9411 73.3934 88.6731 72.5312 90.0667 72.1382C89.8724 71.845 89.5957 71.4996 89.3108 71.1432C88.4981 70.1281 87.3859 68.7373 86.5283 66.6576C86.3946 66.3332 85.9731 65.5774 85.4857 64.7033C82.8444 59.9676 77.3491 50.1122 80.8791 45.0649C82.5136 42.7295 85.7661 41.8106 90.5596 42.3237C89.1496 38.0277 82.4339 24.5881 66.5014 24.327C61.7089 24.2464 57.7784 25.7205 54.8256 28.7018C48.2134 35.3799 48.4535 47.4626 48.4562 47.5826C48.4603 47.7371 48.4338 47.8909 48.3784 48.0353C48.323 48.1796 48.2397 48.3116 48.1332 48.4237C48.0268 48.5358 47.8993 48.6259 47.7581 48.6888C47.6169 48.7516 47.4646 48.7861 47.3101 48.7901C47.1555 48.7941 47.0017 48.7677 46.8574 48.7123C46.7131 48.6569 46.5811 48.5736 46.4689 48.4671C46.3568 48.3607 46.2667 48.2332 46.2039 48.092C46.141 47.9507 46.1066 47.7985 46.1025 47.644C46.0879 47.108 45.8405 34.4289 53.1526 27.0444C56.5746 23.5886 61.0785 21.8826 66.5399 21.9715C76.7352 22.1392 83.296 27.3211 87.0057 31.64C91.0479 36.3456 93.0305 41.5367 93.1936 43.2683C93.3155 44.5564 92.391 44.8148 92.2041 44.8523L91.7799 44.8624C87.0753 44.1093 84.0574 44.6315 82.8095 46.4154C80.1242 50.2523 85.3226 59.5745 87.5426 63.5563C88.1097 64.5714 88.5183 65.3053 88.7052 65.7588C89.4345 67.527 90.3855 68.7153 91.1496 69.67C91.8211 70.5101 92.4038 71.2376 92.6127 72.0933C92.7089 72.2628 94.0814 74.2912 102.222 72.611C104.262 72.1904 105.485 72.5505 105.859 73.6811C106.595 75.9065 102.467 78.5011 100.182 79.563C98.1318 80.5149 94.8638 81.1168 92.0355 81.1168V81.1168ZM88.5714 78.1502C88.8289 78.4113 90.1207 78.8603 92.7969 78.7457C95.1753 78.6431 97.6847 78.1255 99.191 77.4273C101.117 76.5331 102.401 75.5336 103.067 74.851L102.697 74.9188C97.4923 75.9935 93.8111 75.8506 91.7561 74.4928C91.6178 74.4017 91.4848 74.3029 91.3576 74.1969C91.1349 74.2848 90.9288 74.3425 90.7822 74.3838C89.6159 74.7108 88.4102 75.0489 88.5714 78.1502V78.1502ZM54.9502 84.7275C53.6574 84.7275 52.2969 84.5525 50.907 84.2035C49.4677 83.8434 47.0398 82.7595 47.0774 80.9794C47.1186 78.9812 50.0238 78.382 51.1187 78.1566C55.0693 77.3431 55.3267 77.0169 56.5617 75.4493C56.9218 74.9921 57.3698 74.4232 57.98 73.7406C58.887 72.7264 59.8783 72.2115 60.9264 72.2115C61.6557 72.2115 62.2549 72.4598 62.6498 72.6229C63.9105 73.1451 64.9622 74.4076 65.3947 75.9193C65.785 77.2826 65.599 78.5946 64.8706 79.6134C62.4812 82.9602 59.051 84.7275 54.9502 84.7275V84.7275ZM49.6207 81.0811C49.9762 81.355 50.6871 81.7215 51.4778 81.9203C52.6817 82.2208 53.8489 82.3738 54.9502 82.3738C58.3052 82.3738 60.9979 80.984 62.9549 78.2455C63.3626 77.6738 63.2407 76.9491 63.1317 76.567C62.9026 75.7681 62.3346 75.0416 61.7492 74.7979C61.4313 74.666 61.1683 74.5652 60.9264 74.5652C60.7963 74.5652 60.4015 74.5652 59.7354 75.31C59.1729 75.9385 58.7688 76.4516 58.4106 76.9051C56.8732 78.8575 56.1687 79.5199 51.5932 80.4627C50.4773 80.6935 49.9047 80.9263 49.6207 81.0811ZM58.6745 75.6499C58.3934 75.6495 58.1218 75.5486 57.9086 75.3655C57.6954 75.1824 57.5546 74.9291 57.5118 74.6513C57.4817 74.4558 57.4621 74.2589 57.4532 74.0613C54.4536 74.0045 51.5603 72.7181 49.3642 70.4258C46.5872 67.5279 45.3229 63.5132 45.8964 59.4115C46.5194 54.957 46.2867 51.0247 46.1612 48.912C46.1298 48.4774 46.1105 48.042 46.1035 47.6064C46.1053 47.2344 46.1126 46.2459 49.4155 44.572C50.59 43.9765 52.9455 42.9375 55.5182 42.6709C59.7821 42.2311 62.5921 44.1295 63.4331 48.0178C65.7034 58.5173 63.6127 63.1614 62.0863 66.5522C61.8014 67.1825 61.533 67.7799 61.3186 68.3571L61.1289 68.8674C60.3227 71.0296 59.6255 72.8977 59.8398 74.294C59.887 74.6026 59.8097 74.9174 59.6251 75.1692C59.4405 75.421 59.1635 75.5893 58.8549 75.6371L58.6745 75.6499V75.6499ZM48.4654 47.9316L48.5121 48.7727C48.6422 50.967 48.8841 55.0513 48.2281 59.7385C47.7553 63.1211 48.7888 66.4239 51.0637 68.7978C52.8612 70.6741 55.2287 71.7094 57.6612 71.7094H57.7115C57.9846 70.5614 58.4362 69.3502 58.9227 68.0447L59.1115 67.538C59.3543 66.8857 59.6383 66.2545 59.9388 65.5866C61.4084 62.3213 63.2371 58.2571 61.1307 48.5153C60.713 46.5867 59.7015 45.4699 58.0386 45.1015C54.6231 44.3466 49.5337 46.9156 48.4654 47.9316V47.9316ZM55.5713 47.4323C55.5127 47.8483 56.3345 48.9596 57.4046 49.108C58.4738 49.2574 59.3891 48.3888 59.4468 47.9729C59.5045 47.556 58.6836 47.0979 57.6126 46.9486C56.5434 46.7992 55.6281 47.0155 55.5713 47.4323V47.4323ZM57.6511 49.5185L57.3506 49.4974C56.6863 49.4049 56.0148 48.9862 55.5558 48.3769C55.3945 48.1634 55.1306 47.7475 55.1829 47.3774C55.258 46.8341 55.9195 46.5097 56.9539 46.5097C57.1856 46.5097 57.4257 46.5271 57.6685 46.5601C58.2329 46.6389 58.7578 46.802 59.1454 47.0182C59.8169 47.3938 59.8664 47.8116 59.8362 48.0288C59.7528 48.627 58.7981 49.5185 57.6511 49.5185V49.5185ZM55.9616 47.502C55.9955 47.7585 56.6304 48.606 57.4587 48.7205L57.6502 48.7342C58.4143 48.7342 58.986 48.1323 59.0528 47.9353C58.9823 47.8015 58.4912 47.4671 57.5585 47.3389C57.3579 47.31 57.1556 47.2953 56.9529 47.2949C56.3556 47.294 56.0358 47.4287 55.9616 47.502V47.502ZM88.139 46.583C88.1967 46.9999 87.3767 48.1112 86.3057 48.2596C85.2356 48.4081 84.3203 47.5404 84.2617 47.1236C84.2049 46.7076 85.0258 46.2486 86.0959 46.1002C87.166 45.9499 88.0804 46.168 88.139 46.583ZM86.0593 48.4722C85.0285 48.4722 84.1408 47.6705 84.0675 47.1511C83.9832 46.5271 85.0102 46.0525 86.0693 45.906C86.302 45.873 86.5329 45.8565 86.7556 45.8565C87.669 45.8565 88.2737 46.1249 88.3341 46.5564C88.3735 46.8368 88.1592 47.2683 87.789 47.6568C87.5453 47.9133 87.0322 48.3577 86.3341 48.4539L86.0593 48.4722ZM86.7546 46.2486C86.5503 46.2486 86.3378 46.2642 86.1225 46.2935C85.0579 46.441 84.4248 46.8689 84.455 47.0979C84.4907 47.3489 85.1696 48.0801 86.0583 48.0801L86.2773 48.0645C86.8582 47.983 87.2943 47.6046 87.5022 47.3856C87.8284 47.042 87.9585 46.7195 87.9429 46.6087C87.9237 46.4648 87.5316 46.2486 86.7546 46.2486V46.2486ZM89.6809 70.4845C89.4677 70.4844 89.2585 70.4263 89.0757 70.3166C88.8928 70.2068 88.7432 70.0495 88.6429 69.8613C88.5425 69.6732 88.4951 69.4613 88.5058 69.2484C88.5164 69.0354 88.5847 68.8293 88.7034 68.6521C91.2101 64.9077 90.751 61.0881 90.3076 57.3958C90.118 55.8218 89.9228 54.1956 89.9741 52.6335C90.0254 51.0274 90.2288 49.7026 90.4267 48.42C90.6603 46.9019 90.8811 45.4662 90.7895 43.7639C90.7828 43.458 90.8954 43.1614 91.1034 42.937C91.3114 42.7126 91.5986 42.5779 91.9042 42.5615C92.2098 42.5451 92.5098 42.6482 92.7407 42.849C92.9716 43.0498 93.1153 43.3326 93.1414 43.6375C93.2458 45.5835 92.9957 47.2069 92.7538 48.7782C92.5669 49.9903 92.3736 51.2437 92.3269 52.7086C92.282 54.0912 92.4588 55.5598 92.6457 57.1137C93.1185 61.0414 93.6526 65.4931 90.6603 69.9613C90.4331 70.3003 90.0602 70.4845 89.6809 70.4845Z" stroke="#2871FF" stroke-width="2" mask="url(#path-1-outside-1_792_3714)"/>
</svg>
