<svg width="128" height="128" viewBox="0 0 128 128" fill="none" xmlns="http://www.w3.org/2000/svg">
<mask id="path-1-inside-1_785_3624" fill="white">
<path fill-rule="evenodd" clip-rule="evenodd" d="M46.6286 102.694H51.0845V86.3711H46.6286V102.694ZM46.4388 82.1517C46.4388 80.702 47.2478 79.9766 48.8644 79.9766C50.4807 79.9766 51.2895 80.702 51.2895 82.1517C51.2895 82.8431 51.0874 83.3808 50.6833 83.7654C50.279 84.15 49.6728 84.3418 48.8644 84.3418C47.2478 84.3418 46.4388 83.6118 46.4388 82.1517ZM107.573 95.1319L105.849 95.1901C104.554 95.2294 103.59 95.4634 102.957 95.8913C102.323 96.3198 102.007 96.9714 102.007 97.8478C102.007 99.1031 102.728 99.7312 104.169 99.7312C105.201 99.7312 106.027 99.4346 106.645 98.8403C107.264 98.2469 107.573 97.4585 107.573 96.4749V95.1319ZM108.888 102.695L108.026 100.476H107.909C107.159 101.42 106.387 102.075 105.594 102.44C104.8 102.805 103.765 102.987 102.49 102.987C100.921 102.987 99.687 102.539 98.7857 101.644C97.8851 100.749 97.4348 99.4734 97.4348 97.8184C97.4348 96.0862 98.0408 94.8087 99.2531 93.9859C100.466 93.1635 102.295 92.7084 104.739 92.6206L107.573 92.5331V91.8175C107.573 90.1631 106.726 89.3355 105.031 89.3355C103.726 89.3355 102.192 89.7294 100.429 90.5182L98.954 87.5105C100.834 86.5279 102.918 86.0356 105.207 86.0356C107.398 86.0356 109.078 86.513 110.247 87.4667C111.416 88.4206 112 89.8713 112 91.8175V102.695H108.888ZM84.4242 102.695H79.9682V93.1608C79.9682 91.9833 79.7706 91.1003 79.377 90.511C78.9819 89.9222 78.3612 89.6274 77.5138 89.6274C76.3747 89.6274 75.5467 90.0464 75.0304 90.8831C74.514 91.7205 74.2562 93.098 74.2562 95.0153V102.695H69.8V86.3716H73.2042L73.8031 88.4596H74.0518C74.4897 87.7105 75.1233 87.1239 75.9508 86.7005C76.7787 86.2768 77.7284 86.0649 78.7998 86.0649C81.2444 86.0649 82.8998 86.8634 83.767 88.4596H84.1611C84.5996 87.7002 85.2449 87.1114 86.0972 86.6928C86.9494 86.2742 87.9109 86.0649 88.9823 86.0649C90.8327 86.0649 92.2333 86.5397 93.1824 87.4887C94.1321 88.4379 94.6067 89.9589 94.6067 92.0509V102.695H90.1362V93.1608C90.1362 91.9833 89.9388 91.1003 89.5452 90.511C89.15 89.9222 88.5294 89.6274 87.6818 89.6274C86.5914 89.6274 85.7758 90.0171 85.2346 90.7956C84.6945 91.5745 84.4242 92.8103 84.4242 94.5038V102.695ZM65.0261 101.673C66.1903 100.797 66.7722 99.522 66.7722 97.8475C66.7722 97.0403 66.6313 96.3437 66.3486 95.7596C66.0659 95.1755 65.6275 94.6599 65.0338 94.2119C64.44 93.7644 63.5048 93.2829 62.2284 92.7668C60.797 92.1925 59.8695 91.7589 59.4455 91.4671C59.0225 91.1753 58.8099 90.8299 58.8099 90.4304C58.8099 89.72 59.4677 89.3647 60.7825 89.3647C61.5223 89.3647 62.2481 89.4771 62.959 89.7003C63.6698 89.9245 64.4348 90.2112 65.253 90.5619L66.5968 87.35C64.7366 86.4936 62.8228 86.0653 60.8553 86.0653C58.7902 86.0653 57.1959 86.4616 56.0712 87.255C54.9457 88.0484 54.3833 89.1703 54.3833 90.6201C54.3833 91.4671 54.5175 92.1806 54.7857 92.7595C55.053 93.3386 55.4816 93.852 56.0712 94.2996C56.6598 94.7476 57.5832 95.2342 58.8393 95.7596C59.7157 96.1297 60.4174 96.4535 60.9429 96.7308C61.4692 97.0083 61.8391 97.2568 62.0537 97.4754C62.2677 97.6944 62.375 97.979 62.375 98.3296C62.375 99.2638 61.5661 99.7309 59.9494 99.7309C59.1607 99.7309 58.2477 99.5994 57.2107 99.337C56.1729 99.074 55.2406 98.7482 54.4127 98.3584V102.038C55.1433 102.349 55.9274 102.585 56.7651 102.746C57.6027 102.907 58.6149 102.987 59.8035 102.987C62.1213 102.987 63.8622 102.549 65.0261 101.673ZM44.2649 86.1963C43.8656 86.1087 43.3642 86.0649 42.76 86.0649C41.7469 86.0649 40.8097 86.3448 39.9482 86.9046C39.0856 87.4646 38.4016 88.2018 37.895 89.1163H37.6762L37.0185 86.3716H33.6438V102.695H38.0998V94.3873C38.0998 93.0733 38.4964 92.0509 39.2898 91.3209C40.0843 90.5908 41.1918 90.2258 42.6141 90.2258C43.1305 90.2258 43.5684 90.2748 43.9291 90.3718L44.2649 86.1963ZM20.5288 91.3939H22.019C23.4118 91.3939 24.4534 91.119 25.1452 90.569C25.837 90.0193 26.1825 89.2182 26.1825 88.167C26.1825 87.1065 25.8926 86.3229 25.3133 85.8166C24.7334 85.3103 23.8256 85.0571 22.5885 85.0571H20.5288V91.3939ZM30.7551 88.0067C30.7551 90.3041 30.037 92.061 28.5999 93.2772C27.1638 94.4944 25.1209 95.1023 22.472 95.1023H20.5288V102.695H16V81.3489H22.8223C25.4134 81.3489 27.3829 81.9062 28.732 83.0208C30.081 84.1354 30.7551 85.7977 30.7551 88.0067Z"/>
</mask>
<path fill-rule="evenodd" clip-rule="evenodd" d="M46.6286 102.694H51.0845V86.3711H46.6286V102.694ZM46.4388 82.1517C46.4388 80.702 47.2478 79.9766 48.8644 79.9766C50.4807 79.9766 51.2895 80.702 51.2895 82.1517C51.2895 82.8431 51.0874 83.3808 50.6833 83.7654C50.279 84.15 49.6728 84.3418 48.8644 84.3418C47.2478 84.3418 46.4388 83.6118 46.4388 82.1517ZM107.573 95.1319L105.849 95.1901C104.554 95.2294 103.59 95.4634 102.957 95.8913C102.323 96.3198 102.007 96.9714 102.007 97.8478C102.007 99.1031 102.728 99.7312 104.169 99.7312C105.201 99.7312 106.027 99.4346 106.645 98.8403C107.264 98.2469 107.573 97.4585 107.573 96.4749V95.1319ZM108.888 102.695L108.026 100.476H107.909C107.159 101.42 106.387 102.075 105.594 102.44C104.8 102.805 103.765 102.987 102.49 102.987C100.921 102.987 99.687 102.539 98.7857 101.644C97.8851 100.749 97.4348 99.4734 97.4348 97.8184C97.4348 96.0862 98.0408 94.8087 99.2531 93.9859C100.466 93.1635 102.295 92.7084 104.739 92.6206L107.573 92.5331V91.8175C107.573 90.1631 106.726 89.3355 105.031 89.3355C103.726 89.3355 102.192 89.7294 100.429 90.5182L98.954 87.5105C100.834 86.5279 102.918 86.0356 105.207 86.0356C107.398 86.0356 109.078 86.513 110.247 87.4667C111.416 88.4206 112 89.8713 112 91.8175V102.695H108.888ZM84.4242 102.695H79.9682V93.1608C79.9682 91.9833 79.7706 91.1003 79.377 90.511C78.9819 89.9222 78.3612 89.6274 77.5138 89.6274C76.3747 89.6274 75.5467 90.0464 75.0304 90.8831C74.514 91.7205 74.2562 93.098 74.2562 95.0153V102.695H69.8V86.3716H73.2042L73.8031 88.4596H74.0518C74.4897 87.7105 75.1233 87.1239 75.9508 86.7005C76.7787 86.2768 77.7284 86.0649 78.7998 86.0649C81.2444 86.0649 82.8998 86.8634 83.767 88.4596H84.1611C84.5996 87.7002 85.2449 87.1114 86.0972 86.6928C86.9494 86.2742 87.9109 86.0649 88.9823 86.0649C90.8327 86.0649 92.2333 86.5397 93.1824 87.4887C94.1321 88.4379 94.6067 89.9589 94.6067 92.0509V102.695H90.1362V93.1608C90.1362 91.9833 89.9388 91.1003 89.5452 90.511C89.15 89.9222 88.5294 89.6274 87.6818 89.6274C86.5914 89.6274 85.7758 90.0171 85.2346 90.7956C84.6945 91.5745 84.4242 92.8103 84.4242 94.5038V102.695ZM65.0261 101.673C66.1903 100.797 66.7722 99.522 66.7722 97.8475C66.7722 97.0403 66.6313 96.3437 66.3486 95.7596C66.0659 95.1755 65.6275 94.6599 65.0338 94.2119C64.44 93.7644 63.5048 93.2829 62.2284 92.7668C60.797 92.1925 59.8695 91.7589 59.4455 91.4671C59.0225 91.1753 58.8099 90.8299 58.8099 90.4304C58.8099 89.72 59.4677 89.3647 60.7825 89.3647C61.5223 89.3647 62.2481 89.4771 62.959 89.7003C63.6698 89.9245 64.4348 90.2112 65.253 90.5619L66.5968 87.35C64.7366 86.4936 62.8228 86.0653 60.8553 86.0653C58.7902 86.0653 57.1959 86.4616 56.0712 87.255C54.9457 88.0484 54.3833 89.1703 54.3833 90.6201C54.3833 91.4671 54.5175 92.1806 54.7857 92.7595C55.053 93.3386 55.4816 93.852 56.0712 94.2996C56.6598 94.7476 57.5832 95.2342 58.8393 95.7596C59.7157 96.1297 60.4174 96.4535 60.9429 96.7308C61.4692 97.0083 61.8391 97.2568 62.0537 97.4754C62.2677 97.6944 62.375 97.979 62.375 98.3296C62.375 99.2638 61.5661 99.7309 59.9494 99.7309C59.1607 99.7309 58.2477 99.5994 57.2107 99.337C56.1729 99.074 55.2406 98.7482 54.4127 98.3584V102.038C55.1433 102.349 55.9274 102.585 56.7651 102.746C57.6027 102.907 58.6149 102.987 59.8035 102.987C62.1213 102.987 63.8622 102.549 65.0261 101.673ZM44.2649 86.1963C43.8656 86.1087 43.3642 86.0649 42.76 86.0649C41.7469 86.0649 40.8097 86.3448 39.9482 86.9046C39.0856 87.4646 38.4016 88.2018 37.895 89.1163H37.6762L37.0185 86.3716H33.6438V102.695H38.0998V94.3873C38.0998 93.0733 38.4964 92.0509 39.2898 91.3209C40.0843 90.5908 41.1918 90.2258 42.6141 90.2258C43.1305 90.2258 43.5684 90.2748 43.9291 90.3718L44.2649 86.1963ZM20.5288 91.3939H22.019C23.4118 91.3939 24.4534 91.119 25.1452 90.569C25.837 90.0193 26.1825 89.2182 26.1825 88.167C26.1825 87.1065 25.8926 86.3229 25.3133 85.8166C24.7334 85.3103 23.8256 85.0571 22.5885 85.0571H20.5288V91.3939ZM30.7551 88.0067C30.7551 90.3041 30.037 92.061 28.5999 93.2772C27.1638 94.4944 25.1209 95.1023 22.472 95.1023H20.5288V102.695H16V81.3489H22.8223C25.4134 81.3489 27.3829 81.9062 28.732 83.0208C30.081 84.1354 30.7551 85.7977 30.7551 88.0067Z" stroke="#131212" stroke-width="2" mask="url(#path-1-inside-1_785_3624)"/>
<path fill-rule="evenodd" clip-rule="evenodd" d="M65.1956 33.7209L65.1956 33.721L59.5817 61.6565C59.5377 61.8754 59.7429 62.0634 59.9581 61.9992C59.9581 61.9992 59.9581 61.9992 59.9581 61.9992L75.6301 57.3237L75.6302 57.3237C75.8006 57.2729 75.8882 57.0849 75.8179 56.9219M75.8179 56.9218L65.7597 33.6618C65.7597 33.6617 65.7597 33.6617 65.7597 33.6617C65.6441 33.3944 65.2528 33.4362 65.1956 33.7209M66.6776 33.2648L66.6776 33.2648L76.7358 56.525L76.7358 56.5251C77.0439 57.238 76.6604 58.06 75.916 58.282C75.916 58.282 75.9159 58.282 75.9159 58.282L60.244 62.9575L60.2439 62.9575C59.3071 63.2369 58.4086 62.4189 58.6013 61.4595L59.0915 61.558L58.6013 61.4595L64.2152 33.524C64.2152 33.5239 64.2152 33.5239 64.2152 33.5239C64.4656 32.2778 66.1733 32.0988 66.6776 33.2648ZM47.7636 53.7471L47.7637 53.7471L55.6239 66.139C55.8939 66.5646 56.4147 66.7591 56.8984 66.6141L79.5811 59.8134C80.2371 59.6167 80.566 58.8862 80.28 58.2659C80.28 58.2659 80.28 58.2659 80.28 58.2659L65.6984 26.654C65.3219 25.8379 64.1864 25.7706 63.7162 26.537L47.7547 52.5578C47.7547 52.5578 47.7547 52.5579 47.7547 52.5579C47.5304 52.9237 47.5339 53.385 47.7636 53.7471ZM46.9023 52.035C46.4784 52.7262 46.4849 53.5982 46.9192 54.2828L54.7795 66.6746C55.2896 67.4789 56.2729 67.8455 57.1856 67.572L79.8683 60.7712C81.1063 60.4 81.729 59.02 81.1881 57.8471L66.6064 26.2351C65.8953 24.6934 63.7516 24.5669 62.8638 26.0142L46.9023 52.035Z" fill="#131212"/>
</svg>
