<svg width="128" height="128" viewBox="0 0 128 128" fill="none" xmlns="http://www.w3.org/2000/svg">
<path d="M92.5884 46.7067L92.4719 47.173L92.9333 47.3078C94.8335 47.8626 96.6574 48.4975 98.4094 49.1353C103.362 51.0397 107.147 53.2874 109.687 55.7622C112.223 58.2325 113.5 60.9093 113.5 63.7004C113.5 66.4915 112.223 69.1683 109.687 71.6386C107.147 74.1141 103.36 76.3623 98.4052 78.2671L98.4052 78.267L98.3952 78.2711C96.6644 78.98 94.8496 79.5335 92.9333 80.0931L92.4719 80.2278L92.5884 80.6941C93.0642 82.5997 93.4609 84.5057 93.7784 86.3327C94.61 91.5287 94.5632 95.9327 93.6968 99.3829C92.8316 102.828 91.1586 105.294 88.7495 106.689L88.7493 106.689C87.3195 107.518 85.7315 107.901 83.8882 107.901C81.2107 107.901 78.1224 106.903 74.7893 105.017C71.4612 103.134 67.9205 100.384 64.3477 96.9264L63.9981 96.588L63.6503 96.9283C60.118 100.385 56.5979 103.135 53.2706 105.017C49.9389 106.902 46.8303 107.901 44.1118 107.901C42.2685 107.901 40.6805 107.518 39.2508 106.689L39.2453 106.686C36.8404 105.331 35.1683 102.888 34.3032 99.4429C33.4369 95.9929 33.3899 91.5691 34.2217 86.3327C34.5391 84.5057 34.9358 82.5997 35.4116 80.6941L35.5281 80.2278L35.0667 80.0931C33.1667 79.5383 31.3429 78.9034 29.5912 78.2657C24.6784 76.3613 20.8924 74.1135 18.3418 71.638C15.7951 69.1662 14.5 66.4894 14.5 63.7004C14.5 60.9093 15.7771 58.2325 18.3126 55.7622C20.8533 53.2867 24.6401 51.0385 29.5948 49.1337L29.5948 49.1338L29.6048 49.1297C31.3356 48.4208 33.1504 47.8673 35.0667 47.3078L35.5281 47.173L35.4116 46.7067C34.9358 44.8011 34.5391 42.8949 34.2216 41.0679C33.39 35.8719 33.4368 31.4681 34.3032 28.0179C35.1684 24.5728 36.8414 22.1065 39.2505 20.7122L39.2507 20.712C40.6805 19.8833 42.2685 19.5 44.1118 19.5C46.7893 19.5 49.8776 20.4982 53.2107 22.3839C56.5388 24.2668 60.0795 27.0167 63.6523 30.4744L64 30.8109L64.3477 30.4744C67.9205 27.0167 71.4612 24.2668 74.7893 22.3839C78.1224 20.4982 81.2107 19.5 83.8882 19.5C85.7315 19.5 87.3195 19.8833 88.7493 20.712L88.7492 20.7121L88.7547 20.7151C91.1596 22.0695 92.8317 24.5129 93.6968 27.9579C94.5631 31.4079 94.6101 35.8318 93.7783 41.0683C93.4609 42.8952 93.0642 44.8012 92.5884 46.7067ZM88.568 46.2754L89.0417 46.3849L89.1644 45.9143C89.6452 44.0688 90.0495 42.2906 90.293 40.586C90.9767 36.3562 91.0431 32.7171 90.5098 29.873C89.9784 27.0391 88.8336 24.9126 87.0188 23.8477C86.1313 23.3152 85.0817 23.058 83.9681 23.058C81.4023 23.058 78.5943 24.1074 75.7112 25.8595C72.8217 27.6155 69.8158 30.1025 66.8435 33.0379L66.5046 33.3727L66.8226 33.7274C69.6067 36.8333 72.39 40.2569 75.0934 44.0779L75.2274 44.2673L75.4586 44.2873C80.073 44.6855 84.4421 45.3222 88.568 46.2754ZM78.2538 71.9418L78.2545 71.9406C79.7761 69.2146 81.137 66.5696 82.4937 63.9331L82.4957 63.9292L82.6099 63.7072L82.5011 63.4825C81.2183 60.8335 79.7755 58.105 78.2526 55.4568C76.8075 52.8849 75.2024 50.314 73.4377 47.7442L73.3035 47.5487L73.0671 47.529C70.1731 47.2876 67.2029 47.2074 64.0799 47.2074C61.0362 47.2074 58.0667 47.2876 55.0937 47.5289L54.8567 47.5482L54.722 47.7442C52.9622 50.307 51.2756 52.8794 49.8273 55.4568C48.3044 58.105 46.8616 60.8335 45.5787 63.4825L45.4732 63.7004L45.5787 63.9183C46.8616 66.5673 48.3044 69.2958 49.8273 71.944C51.2724 74.5159 52.8774 77.0868 54.6421 79.6566L54.7764 79.8521L55.0127 79.8718C57.9068 80.1133 60.877 80.1934 64 80.1934C67.0436 80.1934 70.0132 80.1132 72.9861 79.8719L73.2232 79.8526L73.3579 79.6566C75.1182 77.0931 76.8053 74.52 78.2538 71.9418ZM84.9069 68.8613L84.5031 67.918L84.0091 68.8173C83.6971 69.3851 83.3872 69.9591 83.0749 70.5377C82.5002 71.6022 81.9171 72.6823 81.2974 73.768L81.2928 73.776L81.2886 73.7841C80.5275 75.2388 79.6448 76.6329 78.7883 77.9856C78.6694 78.1735 78.5509 78.3606 78.4333 78.547L77.8645 79.4487L78.9215 79.3095C81.9667 78.9083 84.8598 78.4259 87.5971 77.7811L88.125 77.6568L87.9582 77.1407C87.0769 74.4135 86.1132 71.6791 84.9069 68.8613ZM63.6324 91.0675L64 91.4662L64.3676 91.0675C66.2976 88.9742 68.145 86.7224 69.9097 84.3934L70.5521 83.5457L69.4894 83.5919C67.6506 83.672 65.8244 83.7514 64 83.7514C62.1756 83.7514 60.3494 83.672 58.5106 83.5919L57.4479 83.5457L58.0903 84.3934C59.855 86.7224 61.7024 88.9742 63.6324 91.0675ZM49.0785 79.2295L50.1048 79.3647L49.5726 78.4768C49.3301 78.0721 49.0886 77.6742 48.848 77.2777C48.1307 76.0957 47.4202 74.925 46.7074 73.6167L46.7025 73.6077L46.6972 73.5989C45.9943 72.4259 45.3365 71.2131 44.6841 70.0101C44.453 69.5839 44.2225 69.1589 43.9909 68.7373L43.4969 67.838L43.0931 68.7813C41.8862 71.6006 40.9222 74.4164 40.0432 77.0565L39.8703 77.5757L40.4029 77.7012C43.1402 78.346 46.0333 78.8284 49.0785 79.2295ZM43.0931 58.5395L43.4969 59.4828L43.9909 58.5835C44.3029 58.0156 44.6129 57.4415 44.9253 56.8628C45.4999 55.7984 46.083 54.7184 46.7026 53.6328L46.7071 53.6248L46.7114 53.6167C47.4725 52.162 48.3552 50.7679 49.2116 49.4152C49.3306 49.2273 49.4491 49.0402 49.5667 48.8538L50.1355 47.9521L49.0785 48.0913C46.0333 48.4925 43.1402 48.9749 40.4029 49.6197L39.875 49.744L40.0418 50.2601C40.9231 52.9873 41.8868 55.7217 43.0931 58.5395ZM64.3676 36.3333L64 35.9346L63.6324 36.3333C61.7024 38.4266 59.855 40.6785 58.0903 43.0074L57.4479 43.8551L58.5106 43.8089C60.3494 43.7288 62.1756 43.6494 64 43.6494C65.8244 43.6494 67.6506 43.7288 69.4894 43.8089L70.5521 43.8551L69.9097 43.0074C68.145 40.6785 66.2976 38.4266 64.3676 36.3333ZM78.9215 48.1713L77.8952 48.0361L78.4274 48.924L81.3027 53.7219C82.2525 55.3067 83.1245 56.973 84.0043 58.6545L84.4925 59.5877L84.9069 58.6195C86.1138 55.8002 87.0778 52.9844 87.9568 50.3443L88.1297 49.8251L87.5971 49.6996C84.8598 49.0548 81.9667 48.5724 78.9215 48.1713ZM37.7077 40.5904L37.7075 40.5904L37.7101 40.604C37.7404 40.7632 37.7707 40.9234 37.8012 41.0845C38.0913 42.6164 38.3973 44.2322 38.8356 45.9143L38.956 46.3763L39.4231 46.2774C43.5606 45.4011 47.933 44.685 52.5414 44.2873L52.7726 44.2673L52.9066 44.0779C55.6124 40.2534 58.3947 36.7522 61.1731 33.7322L61.4998 33.3771L61.1565 33.038C58.1437 30.0619 55.1175 27.5748 52.2278 25.8289C49.3446 24.0868 46.557 23.058 44.0319 23.058C42.9184 23.058 41.8688 23.3152 40.9813 23.8477C39.1664 24.9125 38.0216 27.0391 37.4902 29.873C36.9567 32.7181 37.0234 36.3588 37.7077 40.5904ZM36.6009 51.1536L36.455 50.6973L35.9929 50.8235C34.2255 51.3061 32.4515 51.8707 30.8331 52.5185C26.8081 54.01 23.6167 55.7743 21.4214 57.6639C19.2335 59.5473 17.9728 61.6126 17.9728 63.7004C17.9728 66.1897 19.8026 68.6389 22.8755 70.8249C25.9716 73.0273 30.4417 75.0464 35.9853 76.6551L36.4613 76.7933L36.6036 76.3185C37.7927 72.3499 39.4603 68.2142 41.3725 63.9864L41.4657 63.7804L41.3725 63.5743C39.464 59.3548 37.8734 55.1348 36.6009 51.1536ZM39.432 81.1254L38.9583 81.0159L38.8356 81.4865C38.3547 83.332 37.9505 85.1103 37.7069 86.815C37.0233 91.0447 36.9569 94.6838 37.4902 97.5278C38.0216 100.362 39.1665 102.489 40.9816 103.553C41.8691 104.086 42.9185 104.343 44.0319 104.343C46.5977 104.343 49.4057 103.293 52.2888 101.541C55.1783 99.7853 58.1842 97.2983 61.1565 94.3629L61.4954 94.0281L61.1774 93.6734C58.3933 90.5675 55.61 87.144 52.9066 83.3229L52.7726 83.1335L52.5414 83.1135C47.927 82.7153 43.5579 82.0786 39.432 81.1254ZM90.2923 86.8104L90.2925 86.8104L90.2899 86.7968C90.2596 86.6377 90.2293 86.4777 90.1988 86.3167C89.9087 84.7847 89.6027 83.1687 89.1644 81.4865L89.044 81.0245L88.5769 81.1234C84.4394 81.9997 80.067 82.7158 75.4586 83.1135L75.2274 83.1335L75.0934 83.3229C72.3876 87.1474 69.6053 90.6486 66.8269 93.6686L66.5002 94.0237L66.8435 94.3628C69.8563 97.3389 72.8825 99.826 75.7722 101.572C78.6554 103.314 81.443 104.343 83.9681 104.343C85.0815 104.343 86.131 104.086 87.0185 103.553C88.8335 102.488 89.9784 100.362 90.5098 97.5278C91.0433 94.6827 90.9766 91.042 90.2923 86.8104ZM91.3991 76.2472L91.545 76.7035L92.0071 76.5773C93.7748 76.0947 95.5491 75.5299 97.1678 74.882C101.153 73.3905 104.343 71.6264 106.548 69.7376C108.744 67.8563 110.027 65.7909 110.027 63.7004C110.027 61.2111 108.197 58.7619 105.124 56.5759C102.028 54.3735 97.5583 52.3544 92.0147 50.7457L91.5387 50.6075L91.3964 51.0824C90.2073 55.0509 88.5397 59.1867 86.6275 63.4144L86.5343 63.6204L86.6275 63.8265C88.536 68.046 90.1266 72.2661 91.3991 76.2472Z" stroke="#61DAFB"/>
<circle cx="63.9474" cy="63.4725" r="9.30674" stroke="#61DAFB"/>
</svg>
