<svg width="128" height="128" viewBox="0 0 128 128" fill="none" xmlns="http://www.w3.org/2000/svg">
<path d="M33.6502 37.8116L33.6502 37.8115L33.6424 37.808C32.7855 37.4152 32.1414 37.0551 31.7184 36.7216C31.2761 36.3729 31.1855 36.1407 31.1855 36.0203V29.9382H31.2579V29.4382C31.2579 29.3633 31.3192 29.168 31.732 28.8647C32.1231 28.5774 32.7267 28.2708 33.5424 27.9516C34.5392 27.5697 36.8765 26.6554 39.7903 25.5155C46.8772 22.7432 57.3742 18.6368 60.2895 17.6139L60.2922 17.6129C62.3145 16.8907 63.6055 16.5364 64.8034 16.5027C65.989 16.4693 67.1271 16.7491 68.8423 17.3922C68.8432 17.3925 68.8442 17.3929 68.8451 17.3932L93.7936 27.0834L93.7936 27.0834L93.799 27.0855C94.6564 27.407 95.2584 27.6964 95.6385 27.9656C96.03 28.2429 96.0785 28.42 96.0785 28.4979V35.08C96.0785 35.1912 96.0094 35.4093 95.6215 35.7559C95.2429 36.0942 94.6353 36.4874 93.7439 36.9509L93.7436 36.9511C92.1018 37.8062 87.08 39.9558 81.8387 42.1993C81.6085 42.2978 81.3779 42.3965 81.1471 42.4953C75.6961 44.8289 70.1584 47.2068 68.2136 48.2333C66.291 49.1941 64.8462 49.6478 63.5373 49.7066C62.2369 49.7649 61.0188 49.4356 59.5433 48.733C58.0804 48.0363 52.8988 45.8927 47.5239 43.6691C47.2613 43.5605 46.9982 43.4517 46.7351 43.3428C41.065 40.9969 35.37 38.6357 33.6502 37.8116ZM64.7785 39.6646L65.1525 39.8198L65.382 39.4863L70.0112 32.7595L70.6655 31.8087L69.5243 31.9817L54.2626 34.2963L52.4897 34.5652L54.1459 35.2525L64.7785 39.6646ZM88.226 29.1804L89.3968 28.7215L88.2305 28.2512L79.2615 24.6347L79.0756 24.5597L78.8894 24.6339L68.9078 28.6121L67.7375 29.0786L68.9092 29.5416L77.8782 33.0858L78.0595 33.1574L78.2414 33.0874L79.1817 32.7258L79.1847 32.7246L88.226 29.1804ZM68.5936 22.3529L69.5555 20.0081L69.9695 18.9991L68.9348 19.3439L64.768 20.7329L60.3808 18.9919L59.1243 18.4933L59.7539 19.6895L60.9346 21.9329L56.5519 23.5442L56.6807 24.5115L63.0109 25.068L64.9047 28.1793L65.4092 29.008L65.7914 28.1162L66.9772 25.3492L72.3982 24.8002L72.5242 23.8349L68.5936 22.3529ZM31.2579 47.3761V42.2102C31.7659 42.5853 32.4617 42.9626 33.2942 43.3444C35.0511 44.1857 40.7986 46.5606 46.4618 48.8962C46.7068 48.9973 46.9517 49.0982 47.196 49.199C52.6213 51.4363 57.8099 53.576 59.254 54.2631C60.8148 55.0429 62.2026 55.4574 63.7179 55.389C65.2243 55.3209 66.8004 54.7779 68.7446 53.751C70.6332 52.7895 76.0638 50.4556 81.5071 48.1164L81.6137 48.0706C87.0696 45.7259 92.5204 43.3825 94.2779 42.4672L94.2855 42.4632L94.293 42.459C95.0234 42.0461 95.6277 41.6744 96.0785 41.323V46.3635C96.0785 46.4747 96.0094 46.6928 95.6215 47.0395C95.2429 47.3777 94.6353 47.7709 93.7439 48.2345L93.7436 48.2346C92.1018 49.0897 87.0801 51.2393 81.8388 53.4827C81.6086 53.5813 81.3779 53.68 81.1471 53.7788C75.6959 56.1125 70.1582 58.4904 68.2135 59.5169C66.2909 60.4777 64.8461 60.9314 63.5373 60.9901C62.2369 61.0485 61.0188 60.7191 59.5433 60.0165C58.0803 59.3198 52.8986 57.1762 47.5236 54.9526C47.2611 54.844 46.9981 54.7352 46.7351 54.6264C41.0692 52.2821 35.3785 49.9228 33.654 49.097C32.7882 48.664 32.1407 48.303 31.7216 47.9826C31.2663 47.6344 31.2512 47.4636 31.2548 47.4314L31.2579 47.4038V47.3761ZM31.2579 58.2257V53.0598C31.7659 53.4349 32.4617 53.8122 33.2942 54.194C35.0511 55.0352 40.7986 57.4101 46.4618 59.7458L47.1955 60.0483C52.6209 62.2857 57.8099 64.4255 59.254 65.1126C60.8148 65.8924 62.2026 66.3069 63.7179 66.2385C65.2243 66.1705 66.8004 65.6274 68.7446 64.6006C70.6332 63.639 76.0636 61.3053 81.5067 58.9661L81.6137 58.9201C87.0696 56.5754 92.5204 54.232 94.2779 53.3167L94.2855 53.3127L94.293 53.3085C95.0234 52.8957 95.6277 52.524 96.0785 52.1725V57.2131C96.0785 57.3243 96.0094 57.5424 95.6215 57.889C95.2429 58.2273 94.6353 58.6205 93.7439 59.084L93.7436 59.0842C92.1018 59.9393 87.0799 62.0889 81.8385 64.3324C81.6084 64.4309 81.3778 64.5296 81.1471 64.6284C75.6959 66.962 70.1582 69.34 68.2135 70.3664C66.2909 71.3272 64.8461 71.7809 63.5373 71.8397C62.2369 71.898 61.0188 71.5687 59.5433 70.8661C58.0804 70.1694 52.899 68.0259 47.5242 65.8023C47.2615 65.6937 46.9983 65.5848 46.7351 65.4759C41.0692 63.1317 35.3785 60.7723 33.654 59.9466C32.7954 59.5171 32.1462 59.1379 31.7265 58.8087C31.5158 58.6435 31.3851 58.5078 31.3134 58.4035C31.2632 58.3305 31.2555 58.2934 31.2544 58.2845L31.2579 58.2568V58.2257ZM58.9604 29.2212C58.9604 28.5972 58.6275 28.0573 58.1511 27.6224C57.6741 27.1869 57.0121 26.8156 56.2372 26.5132C54.684 25.9071 52.5765 25.5387 50.2871 25.5387C47.9976 25.5387 45.8901 25.9071 44.337 26.5132C43.562 26.8156 42.9 27.1869 42.4231 27.6224C41.9467 28.0573 41.6137 28.5972 41.6137 29.2212C41.6137 29.8452 41.9467 30.3851 42.4231 30.8201C42.9 31.2556 43.562 31.6268 44.337 31.9293C45.8901 32.5354 47.9976 32.9038 50.2871 32.9038C52.6119 32.9038 54.72 32.5356 56.2653 31.9289C57.0364 31.6261 57.6922 31.2543 58.1638 30.8178C58.6355 30.3811 58.9604 29.8417 58.9604 29.2212Z" stroke="#FE4444"/>
<path fill-rule="evenodd" clip-rule="evenodd" d="M35.8762 97.9616L36.0315 97.3403C36.2358 96.523 36.8811 95.2327 37.9984 94.1154C39.1261 92.9876 40.7563 92.0155 42.9272 91.8992L42.9625 91.8973L42.9977 91.9004C45.185 92.0923 46.9273 93.052 48.1752 94.1474C49.4109 95.2322 50.1985 96.4832 50.4489 97.3179L50.642 97.9616H35.8762ZM71.2431 104.413L71.2541 104.403C72.3764 103.347 73.0444 101.752 72.9778 100.085L72.9774 100.075V100.065C72.9774 98.3086 72.3006 96.7026 71.2432 95.6452C70.0934 94.4954 68.697 93.8388 67.1123 93.8388C65.5193 93.8388 64.0583 94.5014 62.9919 95.6344L62.9867 95.6399L62.9814 95.6452C61.924 96.7026 61.2472 98.3086 61.2472 100.065C61.2472 101.747 61.9221 103.354 62.9814 104.413C64.1313 105.563 65.5276 106.22 67.1123 106.22C68.7053 106.22 70.1663 105.557 71.2327 104.424L71.2431 104.413ZM37.2218 96.9616H49.21C48.8837 96.3621 48.3187 95.6041 47.5154 94.8989C46.4013 93.9209 44.8646 93.0767 42.9455 92.8997C41.0835 93.0089 39.6873 93.8407 38.7055 94.8225C37.9821 95.5458 37.4951 96.3398 37.2218 96.9616ZM71.9505 105.121C70.7032 106.44 68.986 107.22 67.1123 107.22C65.2252 107.22 63.5836 106.43 62.2743 105.121C61.019 103.865 60.2472 102 60.2472 100.065C60.2472 98.0641 61.0149 96.2006 62.2689 94.9435C63.5167 93.6206 65.236 92.8388 67.1123 92.8388C68.9995 92.8388 70.641 93.6288 71.9503 94.9381C73.2054 96.1932 73.9748 98.055 73.9774 100.056C74.0521 101.997 73.2784 103.865 71.9505 105.121ZM30.2087 89.2033L30.1935 89.2028C28.0709 89.1385 26.1777 89.9104 24.7114 90.9101L24.621 90.9717L24.6143 90.9745C24.5983 90.9951 24.5713 91.0296 24.5094 91.1038C24.299 91.3564 23.9903 91.658 23.4345 91.8803L22.0631 92.4289V90.5902C22.0631 89.8234 21.4104 89.131 20.4592 89.131C19.6372 89.131 19 89.7682 19 90.5902V109.324C19 110.184 19.6746 110.855 20.4592 110.855C21.3719 110.855 22.0631 110.128 22.0631 109.324V99.9094L22.3942 99.6115C22.4266 99.5823 22.5028 99.4906 22.6163 99.2481C22.718 99.0311 22.8139 98.7748 22.9373 98.4452C22.9501 98.411 22.9632 98.376 22.9767 98.3401C23.244 97.6271 23.6051 96.6877 24.2625 95.8109C24.8905 94.8013 25.693 93.9096 26.7507 93.2451C27.7547 92.4472 28.9865 92.1218 30.2238 92.1218H30.2488L30.2738 92.123C31.0829 92.1635 31.7554 91.4612 31.7554 90.6625C31.7554 89.8595 31.1373 89.2033 30.2238 89.2033H30.2087ZM27.3306 94.0621C26.3903 94.6407 25.667 95.4363 25.0884 96.3766C24.4801 97.175 24.1515 98.0534 23.8717 98.8016C23.6191 99.4768 23.4062 100.046 23.0631 100.355V109.324C23.0631 110.698 21.9058 111.855 20.4592 111.855C19.085 111.855 18 110.698 18 109.324V90.5902C18 89.2159 19.085 88.131 20.4592 88.131C21.635 88.131 22.6196 88.8477 22.9471 89.8539C23.0226 90.0857 23.0631 90.3329 23.0631 90.5902V90.9519C23.3329 90.8439 23.5021 90.7159 23.627 90.5902C23.6981 90.5185 23.7549 90.4477 23.8077 90.3817C23.8816 90.2895 23.9477 90.2069 24.0347 90.1456C24.0687 90.1215 24.1059 90.1008 24.1481 90.0839C25.7393 88.9989 27.8369 88.131 30.2238 88.2033C31.6704 88.2033 32.7554 89.2883 32.7554 90.6625C32.7554 91.9645 31.6704 93.1941 30.2238 93.1218C29.1389 93.1218 28.1262 93.4111 27.3306 94.0621ZM54.2375 99.9208C54.2857 99.8726 54.2375 99.7279 54.2 99.6154C54.1813 99.5592 54.1652 99.511 54.1652 99.4868V99.2699C54.1652 92.7601 49.0297 88.131 42.8093 88.131C36.2996 88.131 31.3088 93.5558 31.2365 100.065C31.3088 106.575 36.3719 111.928 42.8816 112C46.2812 112 49.1021 110.987 51.4166 108.89C52.5016 107.877 52.0676 106.431 51.4166 105.78C50.7656 104.984 48.8851 104.839 47.8724 105.924C46.7151 106.865 44.6176 107.226 42.954 107.082C41.2904 106.937 39.4098 106.141 38.3972 104.984C37.8312 104.465 37.4189 103.608 37.1405 102.874C36.9919 102.482 36.8814 102.125 36.8059 101.874H51.9229C53.2249 101.874 54.0928 101.078 54.2375 99.9208ZM37.68 105.683C37.1166 105.149 36.7184 104.424 36.4442 103.809C36.155 103.161 35.9595 102.532 35.8481 102.161L35.4619 100.874H51.9229C52.3658 100.874 52.6672 100.741 52.8606 100.574C53.039 100.42 53.1779 100.192 53.2332 99.8767C53.2253 99.852 53.2131 99.8131 53.2022 99.7701C53.196 99.746 53.1879 99.7116 53.181 99.6709C53.1747 99.6337 53.1652 99.568 53.1652 99.4868V99.2699C53.1652 93.3542 48.5202 89.131 42.8093 89.131C36.9048 89.131 32.3089 94.0535 32.2365 100.065C32.3088 106.057 36.9589 110.931 42.8873 111C46.0621 110.999 48.6313 110.062 50.7391 108.154C51.0261 107.884 51.1001 107.588 51.0721 107.294C51.0403 106.96 50.8734 106.651 50.7095 106.487L50.6742 106.451L50.6427 106.413C50.5733 106.328 50.2814 106.147 49.7801 106.147C49.3144 106.147 48.8806 106.31 48.6035 106.607L48.5565 106.657L48.503 106.7C47.7585 107.305 46.7781 107.679 45.8147 107.887C44.8393 108.098 43.7985 108.159 42.8673 108.078C41.0353 107.918 38.9102 107.059 37.68 105.683ZM72.6944 89.6148C70.9075 88.6981 69.2112 88.131 67.257 88.131C60.8196 88.131 55.6118 93.5558 55.6118 100.065C55.6118 106.503 60.7472 111.928 67.1846 111.928C69.1925 111.928 71.0979 111.365 72.7288 110.454C73.0367 110.282 73.3349 110.098 73.622 109.902C73.6866 110.247 73.8216 110.566 74.0137 110.843C74.4673 111.499 75.2391 111.928 76.1536 111.928C77.6002 111.928 78.7575 110.77 78.7575 109.324V81.1873C78.7575 79.813 77.6725 78.5834 76.2259 78.5834C74.7793 78.5834 73.6944 79.7407 73.6944 81.1873V90.1562C73.3565 89.9648 73.0239 89.7838 72.6944 89.6148ZM74.6944 91.8723L73.2014 91.0263C71.0919 89.8309 69.3186 89.131 67.257 89.131C61.3995 89.131 56.6118 94.0799 56.6118 100.065C56.6118 105.983 61.3313 110.928 67.1846 110.928C69.3497 110.928 71.3988 110.205 73.0597 109.075L74.3233 108.216L74.6049 109.718C74.7306 110.389 75.3188 110.928 76.1536 110.928C77.0479 110.928 77.7575 110.218 77.7575 109.324V81.1873C77.7575 80.3096 77.0662 79.5834 76.2259 79.5834C75.3682 79.5834 74.6944 80.2556 74.6944 81.1873V91.8723ZM107.272 101.892L107.27 101.889C106.633 100.847 105.556 100.155 104.318 99.605L104.307 99.6001L104.296 99.5949C102.942 98.9537 101.667 98.4616 100.312 98.4616H99.5189L99.4015 98.1095C98.0013 97.796 96.8632 97.3234 96.16 96.8598C95.9157 96.7108 95.7158 96.5459 95.5634 96.3766C95.4861 96.2907 95.4101 96.1916 95.3474 96.0808C95.3241 96.0397 95.2779 95.9555 95.2414 95.8402C95.194 95.7271 95.1563 95.6035 95.1359 95.4602C95.1163 95.323 95.1166 95.1822 95.1167 95.0964C95.1168 95.0887 95.1168 95.0815 95.1168 95.0747C95.1168 94.4416 95.5028 93.7384 96.3274 93.1781C97.1802 92.527 98.4069 92.1218 99.8056 92.1218C101.653 92.1218 103.264 93.0911 104.744 94.0074L104.765 94.0201L104.784 94.0337C105.483 94.5143 106.441 94.3423 106.925 93.6583C107.333 92.9828 107.136 91.9967 106.405 91.4902C106.403 91.489 106.402 91.4878 106.4 91.4866L106.35 91.4533C104.83 90.4396 102.759 89.0586 99.8056 89.0586C97.846 89.0586 96.0177 89.6437 94.5147 90.6181C93.1317 91.6324 92.126 93.2297 92.126 95.0024C92.126 95.924 92.3743 96.812 92.7598 97.4225C93.4701 98.4828 94.4102 99.034 95.6233 99.6769C96.7956 100.226 98.0766 100.657 99.2993 100.657H99.5716L99.7563 100.734C100.441 101.019 101.062 101.232 101.634 101.428C101.757 101.47 101.878 101.512 101.996 101.553C102.611 101.766 103.258 102.001 103.75 102.337C104.26 102.651 104.597 103.073 104.751 103.379L104.759 103.396C104.839 103.555 105.001 103.878 105.001 104.333C105.001 105.093 104.56 105.849 103.797 106.527L103.737 106.58L103.67 106.623C102.74 107.215 101.406 107.716 99.897 107.72C97.6756 107.798 95.3468 106.553 94.0086 105.372L93.999 105.364L93.9897 105.355C93.4362 104.841 92.3915 104.949 91.9324 105.575L91.9099 105.606L91.8852 105.635C91.3893 106.213 91.4642 107.229 92.1123 107.747L92.116 107.75C93.909 109.198 96.5841 110.783 99.9503 110.783C102.053 110.783 104.026 110.127 105.604 109.078C107.105 108.011 108.124 106.36 108.136 104.441C108.07 103.612 107.767 102.696 107.272 101.892ZM109.136 104.405C109.136 106.72 107.907 108.673 106.171 109.902C104.435 111.06 102.265 111.783 99.9503 111.783C96.2614 111.783 93.3682 110.047 91.4876 108.528C90.4027 107.66 90.258 105.997 91.126 104.984C91.9216 103.899 93.6575 103.682 94.6702 104.622C95.8998 105.707 97.9974 106.792 99.878 106.72C101.18 106.72 102.337 106.286 103.133 105.78C103.784 105.201 104.001 104.695 104.001 104.333C104.001 104.116 103.928 103.971 103.856 103.827C103.784 103.682 103.567 103.393 103.205 103.176C102.781 102.879 102.132 102.656 101.318 102.377C100.744 102.18 100.089 101.956 99.3716 101.657H99.2993C97.8527 101.657 96.4061 101.15 95.1765 100.572C93.9469 99.9208 92.7896 99.2699 91.9216 97.9679C91.4153 97.1723 91.126 96.0873 91.126 95.0024C91.126 92.8324 92.3556 90.9519 93.9469 89.7946C95.6105 88.7096 97.6357 88.0586 99.8056 88.0586C103.064 88.0586 105.352 89.585 106.871 90.5992L106.966 90.6625C108.124 91.4582 108.485 93.0494 107.762 94.2067C106.966 95.364 105.375 95.6533 104.218 94.8577C102.699 93.9174 101.325 93.1218 99.8056 93.1218C98.576 93.1218 97.5634 93.4834 96.9124 93.9897C96.2614 94.4237 96.1168 94.8577 96.1168 95.0747C96.1168 95.2917 96.1168 95.364 96.1891 95.5087C96.1891 95.581 96.3338 95.798 96.6954 96.015C97.3464 96.449 98.576 96.9553 100.167 97.2446L100.24 97.4616H100.312C101.903 97.4616 103.35 98.0402 104.724 98.6912C106.026 99.2699 107.328 100.065 108.124 101.367C108.702 102.308 109.064 103.393 109.136 104.405ZM84.9056 79.5834C84.0479 79.5834 83.374 80.2556 83.374 81.1873V82.1999C83.374 83.1315 84.0479 83.8038 84.9056 83.8038C85.7633 83.8038 86.4371 83.1315 86.4371 82.1999V81.1873C86.4371 80.2556 85.7633 79.5834 84.9056 79.5834ZM84.9056 89.131C84.0298 89.131 83.374 89.7495 83.374 90.7349V109.324C83.374 110.255 84.0479 110.928 84.9056 110.928C85.7633 110.928 86.4371 110.255 86.4371 109.324V90.8072C86.4371 89.7848 85.7458 89.131 84.9056 89.131ZM84.9056 78.5834C83.459 78.5834 82.374 79.7407 82.374 81.1873V82.1999C82.374 83.6465 83.459 84.8038 84.9056 84.8038C86.3522 84.8038 87.4371 83.6465 87.4371 82.1999V81.1873C87.4371 79.7407 86.3522 78.5834 84.9056 78.5834ZM82.374 90.7349C82.374 89.2159 83.459 88.131 84.9056 88.131C86.3522 88.131 87.4371 89.2883 87.4371 90.8072V109.324C87.4371 110.77 86.3522 111.928 84.9056 111.928C83.459 111.928 82.374 110.77 82.374 109.324V90.7349Z" fill="#131212"/>
</svg>
