<svg width="128" height="128" viewBox="0 0 128 128" fill="none" xmlns="http://www.w3.org/2000/svg">
<mask id="path-1-outside-1_785_3628" maskUnits="userSpaceOnUse" x="6" y="80.3738" width="115" height="18" fill="black">
<rect fill="white" x="6" y="80.3738" width="115" height="18"/>
<path d="M16.6798 95.7018C17.1182 95.2868 17.6223 94.4786 17.5566 93.2336C17.4251 90.5472 14.7948 90.2414 13.0413 90.0229C10.8494 89.7827 10.4987 89.5424 10.4768 88.8872C10.4768 88.0572 11.6166 87.6423 12.6468 87.6859C14.5975 87.7515 16.3511 88.4067 16.3511 88.4067L17.0524 86.2444C16.9648 86.2226 14.9921 85.611 12.7125 85.5455C10.3453 85.48 8.17532 86.572 8.24106 88.9309C8.28498 91.7703 11.0028 92.0761 12.7783 92.2726C14.7948 92.5129 15.3428 92.7313 15.3867 93.3429C15.4086 93.8016 15.3867 95.0246 12.5372 94.8063C10.6522 94.6533 8.96442 93.8016 8.94251 93.7796L8 95.7454C8.10957 95.7891 10.17 96.7938 12.581 96.8593C13.8084 96.903 15.562 96.8375 16.6798 95.7018ZM24.8719 96.8375C27.02 96.8375 29.1462 95.9638 29.1462 95.9638L28.5762 94.0199C28.5762 94.0199 26.6912 94.7626 24.9597 94.7626C22.7459 94.7626 21.628 93.3647 21.628 92.0324H29.738L29.7384 90.7392C29.7433 90.3397 29.6986 85.5455 24.7624 85.5455C20.1871 85.5455 19.3092 89.4839 19.2833 91.0854L19.2826 91.1587C19.2826 92.6221 19.8526 96.8375 24.8719 96.8375ZM27.5241 90.0885H21.65C21.65 90.0885 21.9129 87.7078 24.7624 87.7078C27.6775 87.7078 27.5241 90.0885 27.5241 90.0885ZM34.7519 96.6628V89.8264C34.7519 89.0619 35.7382 88.0354 36.7245 88.0354H40.5384V85.7421H37.0533C35.0807 85.7421 34.5765 87.533 34.5765 87.8607L34.445 85.7421H32.297V96.6628H34.7519ZM49.1689 96.6628L52.6541 85.7421H50.3088L47.4155 94.5441L44.829 85.7421H42.3522L45.6839 96.6628H49.1689ZM59.5311 96.8375C61.6794 96.8375 63.8053 95.9638 63.8053 95.9638L63.235 94.0199C63.235 94.0199 61.3507 94.7626 59.6191 94.7626C57.4049 94.7626 56.2871 93.3647 56.2871 92.0324H64.3972V90.7392C64.4028 90.3397 64.3579 85.5455 59.4215 85.5455C54.8462 85.5455 53.9683 89.4839 53.9423 91.0854L53.9418 91.1587C53.9418 92.6221 54.5116 96.8375 59.5311 96.8375ZM62.1833 90.0885H56.309C56.309 90.0885 56.5721 87.7078 59.4215 87.7078C62.3369 87.7078 62.1833 90.0885 62.1833 90.0885ZM69.4113 96.6628V89.8264C69.4113 89.0619 70.3974 88.0354 71.3836 88.0354H75.1971V85.7421H71.7123C69.74 85.7421 69.2352 87.533 69.2352 87.8607L69.1041 85.7421H66.9557V96.6628H69.4113ZM85.5811 96.6628V94.3694H81.0662V81.3738H75.2139V83.3832H78.7211V96.6628H85.5811ZM92.6555 96.8375C94.8039 96.8375 96.9298 95.9638 96.9298 95.9638L96.3604 94.0199C96.3604 94.0199 94.4752 94.7626 92.7436 94.7626C90.5296 94.7626 89.4114 93.3647 89.4114 92.0324H97.5216L97.5226 90.7392C97.5273 90.3397 97.4823 85.5455 92.546 85.5455C87.9711 85.5455 87.0926 89.4839 87.0674 91.0854L87.0664 91.1587C87.0664 92.6221 87.6368 96.8375 92.6555 96.8375ZM95.3077 90.0885H89.4339C89.4339 90.0885 89.6971 87.7078 92.546 87.7078C95.4613 87.7078 95.3077 90.0885 95.3077 90.0885ZM107.862 95.7018C108.3 95.2868 108.805 94.4786 108.738 93.2336C108.607 90.5472 105.976 90.2414 104.223 90.0229C102.032 89.7827 101.681 89.5424 101.659 88.8872C101.659 88.0572 102.799 87.6423 103.829 87.6859C105.78 87.7515 107.533 88.4067 107.533 88.4067L108.234 86.2444C108.147 86.2226 106.174 85.611 103.895 85.5455C101.527 85.48 99.3572 86.572 99.4228 88.9309C99.4668 91.7703 102.185 92.0761 103.96 92.2726C105.976 92.5129 106.525 92.7313 106.568 93.3429C106.591 93.8016 106.568 95.0246 103.719 94.8063C101.834 94.6533 100.147 93.8016 100.124 93.7796L99.1821 95.7454C99.2917 95.7891 101.352 96.7938 103.764 96.8593C104.99 96.903 106.744 96.8375 107.862 95.7018ZM119.118 95.7018C119.556 95.2868 120.06 94.4786 119.994 93.2336C119.862 90.5472 117.232 90.2414 115.478 90.0229C113.287 89.7827 112.936 89.5424 112.914 88.8872C112.914 88.0572 114.054 87.6423 115.084 87.6859C117.035 87.7515 118.789 88.4067 118.789 88.4067L119.489 86.2444C119.402 86.2226 117.429 85.611 115.15 85.5455C112.783 85.48 110.613 86.572 110.679 88.9309C110.723 91.7703 113.44 92.0761 115.216 92.2726C117.232 92.5129 117.78 92.7313 117.824 93.3429C117.846 93.8016 117.824 95.0246 114.975 94.8063C113.089 94.6533 111.402 93.8016 111.38 93.7796L110.437 95.7454C110.547 95.7891 112.607 96.7938 115.019 96.8593C116.246 96.903 117.999 96.8375 119.118 95.7018Z"/>
</mask>
<path d="M16.6798 95.7018C17.1182 95.2868 17.6223 94.4786 17.5566 93.2336C17.4251 90.5472 14.7948 90.2414 13.0413 90.0229C10.8494 89.7827 10.4987 89.5424 10.4768 88.8872C10.4768 88.0572 11.6166 87.6423 12.6468 87.6859C14.5975 87.7515 16.3511 88.4067 16.3511 88.4067L17.0524 86.2444C16.9648 86.2226 14.9921 85.611 12.7125 85.5455C10.3453 85.48 8.17532 86.572 8.24106 88.9309C8.28498 91.7703 11.0028 92.0761 12.7783 92.2726C14.7948 92.5129 15.3428 92.7313 15.3867 93.3429C15.4086 93.8016 15.3867 95.0246 12.5372 94.8063C10.6522 94.6533 8.96442 93.8016 8.94251 93.7796L8 95.7454C8.10957 95.7891 10.17 96.7938 12.581 96.8593C13.8084 96.903 15.562 96.8375 16.6798 95.7018ZM24.8719 96.8375C27.02 96.8375 29.1462 95.9638 29.1462 95.9638L28.5762 94.0199C28.5762 94.0199 26.6912 94.7626 24.9597 94.7626C22.7459 94.7626 21.628 93.3647 21.628 92.0324H29.738L29.7384 90.7392C29.7433 90.3397 29.6986 85.5455 24.7624 85.5455C20.1871 85.5455 19.3092 89.4839 19.2833 91.0854L19.2826 91.1587C19.2826 92.6221 19.8526 96.8375 24.8719 96.8375ZM27.5241 90.0885H21.65C21.65 90.0885 21.9129 87.7078 24.7624 87.7078C27.6775 87.7078 27.5241 90.0885 27.5241 90.0885ZM34.7519 96.6628V89.8264C34.7519 89.0619 35.7382 88.0354 36.7245 88.0354H40.5384V85.7421H37.0533C35.0807 85.7421 34.5765 87.533 34.5765 87.8607L34.445 85.7421H32.297V96.6628H34.7519ZM49.1689 96.6628L52.6541 85.7421H50.3088L47.4155 94.5441L44.829 85.7421H42.3522L45.6839 96.6628H49.1689ZM59.5311 96.8375C61.6794 96.8375 63.8053 95.9638 63.8053 95.9638L63.235 94.0199C63.235 94.0199 61.3507 94.7626 59.6191 94.7626C57.4049 94.7626 56.2871 93.3647 56.2871 92.0324H64.3972V90.7392C64.4028 90.3397 64.3579 85.5455 59.4215 85.5455C54.8462 85.5455 53.9683 89.4839 53.9423 91.0854L53.9418 91.1587C53.9418 92.6221 54.5116 96.8375 59.5311 96.8375ZM62.1833 90.0885H56.309C56.309 90.0885 56.5721 87.7078 59.4215 87.7078C62.3369 87.7078 62.1833 90.0885 62.1833 90.0885ZM69.4113 96.6628V89.8264C69.4113 89.0619 70.3974 88.0354 71.3836 88.0354H75.1971V85.7421H71.7123C69.74 85.7421 69.2352 87.533 69.2352 87.8607L69.1041 85.7421H66.9557V96.6628H69.4113ZM85.5811 96.6628V94.3694H81.0662V81.3738H75.2139V83.3832H78.7211V96.6628H85.5811ZM92.6555 96.8375C94.8039 96.8375 96.9298 95.9638 96.9298 95.9638L96.3604 94.0199C96.3604 94.0199 94.4752 94.7626 92.7436 94.7626C90.5296 94.7626 89.4114 93.3647 89.4114 92.0324H97.5216L97.5226 90.7392C97.5273 90.3397 97.4823 85.5455 92.546 85.5455C87.9711 85.5455 87.0926 89.4839 87.0674 91.0854L87.0664 91.1587C87.0664 92.6221 87.6368 96.8375 92.6555 96.8375ZM95.3077 90.0885H89.4339C89.4339 90.0885 89.6971 87.7078 92.546 87.7078C95.4613 87.7078 95.3077 90.0885 95.3077 90.0885ZM107.862 95.7018C108.3 95.2868 108.805 94.4786 108.738 93.2336C108.607 90.5472 105.976 90.2414 104.223 90.0229C102.032 89.7827 101.681 89.5424 101.659 88.8872C101.659 88.0572 102.799 87.6423 103.829 87.6859C105.78 87.7515 107.533 88.4067 107.533 88.4067L108.234 86.2444C108.147 86.2226 106.174 85.611 103.895 85.5455C101.527 85.48 99.3572 86.572 99.4228 88.9309C99.4668 91.7703 102.185 92.0761 103.96 92.2726C105.976 92.5129 106.525 92.7313 106.568 93.3429C106.591 93.8016 106.568 95.0246 103.719 94.8063C101.834 94.6533 100.147 93.8016 100.124 93.7796L99.1821 95.7454C99.2917 95.7891 101.352 96.7938 103.764 96.8593C104.99 96.903 106.744 96.8375 107.862 95.7018ZM119.118 95.7018C119.556 95.2868 120.06 94.4786 119.994 93.2336C119.862 90.5472 117.232 90.2414 115.478 90.0229C113.287 89.7827 112.936 89.5424 112.914 88.8872C112.914 88.0572 114.054 87.6423 115.084 87.6859C117.035 87.7515 118.789 88.4067 118.789 88.4067L119.489 86.2444C119.402 86.2226 117.429 85.611 115.15 85.5455C112.783 85.48 110.613 86.572 110.679 88.9309C110.723 91.7703 113.44 92.0761 115.216 92.2726C117.232 92.5129 117.78 92.7313 117.824 93.3429C117.846 93.8016 117.824 95.0246 114.975 94.8063C113.089 94.6533 111.402 93.8016 111.38 93.7796L110.437 95.7454C110.547 95.7891 112.607 96.7938 115.019 96.8593C116.246 96.903 117.999 96.8375 119.118 95.7018Z" stroke="#131212" stroke-width="1.6" mask="url(#path-1-outside-1_785_3628)"/>
<path d="M55.9883 38.6H41.4V31.4H58.4411L55.9883 38.6ZM67.8816 31.4H87.6V38.6H65.55L67.8816 31.4ZM51.3043 52.6001H41.4V45.4H53.4625L51.3043 52.6001ZM62.7258 45.4H87.6V52.6001H60.5395L62.7258 45.4ZM46.3265 67.6H41.4V60.4001H48.464L46.3265 67.6ZM57.907 60.4001H87.6V67.6H55.5517L57.907 60.4001Z" stroke="#FE4444" stroke-width="0.8"/>
</svg>
