<svg width="128" height="128" viewBox="0 0 128 128" fill="none" xmlns="http://www.w3.org/2000/svg">
<path fill-rule="evenodd" clip-rule="evenodd" d="M27.9878 104.459C28.0329 105.67 28.5337 106.82 29.3905 107.68C30.2474 108.54 31.3977 109.047 32.6128 109.101L97.2719 111.995C97.9254 112.024 98.578 111.92 99.1903 111.691C99.8026 111.461 100.362 111.111 100.835 110.66C101.308 110.21 101.684 109.669 101.942 109.07C102.199 108.47 102.332 107.826 102.333 107.174V20.8272C102.334 20.1681 102.198 19.516 101.936 18.9109C101.673 18.3059 101.289 17.7609 100.807 17.3095C100.325 16.8581 99.7556 16.5098 99.1333 16.2862C98.511 16.0626 97.8493 15.9684 97.1891 16.0093L91.8416 16.3468L92.2555 27.4222C92.2595 27.5588 92.2244 27.6937 92.1544 27.8111C92.0843 27.9286 91.9821 28.0237 91.8598 28.0854C91.7374 28.1472 91.6 28.173 91.4635 28.1598C91.327 28.1465 91.1971 28.0949 91.0889 28.0109L87.5064 25.1989L83.2653 28.4046C83.1563 28.487 83.0261 28.5369 82.8898 28.5485C82.7534 28.5602 82.6166 28.533 82.4952 28.4701C82.3738 28.4073 82.2727 28.3114 82.2039 28.1936C82.135 28.0758 82.1012 27.9409 82.1062 27.8047L82.5841 16.9204L29.542 20.2198C28.2796 20.2991 27.0982 20.867 26.2503 21.8022C25.4023 22.7374 24.9549 23.9658 25.0036 25.2251L27.9878 104.459ZM29.6147 21.3883C28.6561 21.4487 27.7601 21.8799 27.1176 22.5886C26.475 23.2973 26.1366 24.2273 26.1735 25.1799L29.1577 104.415C29.1918 105.331 29.5706 106.202 30.2199 106.854C30.8693 107.505 31.7419 107.891 32.6645 107.931L97.3225 110.826M29.6147 21.3883L81.3574 18.1697L80.9366 27.7533L80.9363 27.7612C80.923 28.1199 81.0122 28.4747 81.1931 28.7843C81.3741 29.0939 81.6392 29.3453 81.957 29.5098C82.2749 29.6744 82.6328 29.7454 82.9891 29.7151C83.3452 29.6847 83.6858 29.5543 83.9712 29.3385L87.4929 26.6766L90.3661 28.9318L90.3706 28.9353C90.654 29.1555 90.9939 29.2905 91.3507 29.325C91.7076 29.3596 92.067 29.2922 92.3872 29.1307C92.7074 28.9691 92.9755 28.7197 93.1597 28.4111C93.3439 28.1024 93.4363 27.7475 93.4258 27.3879L93.0541 17.4433L97.2616 17.1778C97.7626 17.1468 98.2653 17.2183 98.7374 17.388C99.2097 17.5577 99.6417 17.8219 100.007 18.164C100.372 18.5061 100.663 18.919 100.862 19.3769C101.06 19.8348 101.163 20.3282 101.163 20.8267V107.172C101.162 107.665 101.061 108.154 100.866 108.607C100.671 109.061 100.386 109.471 100.027 109.813C99.6688 110.154 99.2444 110.42 98.7795 110.594C98.3151 110.768 97.8201 110.847 97.3242 110.826M85.7945 52.4157L85.3405 52.7672C84.9378 53.079 84.364 53.2858 83.8403 53.4369C83.2724 53.6008 82.5896 53.7457 81.8493 53.8703C80.3658 54.12 78.5717 54.3018 76.8393 54.3814C75.1157 54.4606 73.3986 54.4413 72.0844 54.2699C71.4396 54.1858 70.8089 54.0553 70.3081 53.8378C69.9021 53.6614 69.0551 53.1893 69.0551 52.1864V52.1649L69.0559 52.1434C69.1828 48.6912 68.4521 47.2298 67.805 46.5961C67.1643 45.9687 66.3367 45.8773 65.4842 45.8773C64.7129 45.8773 63.8494 46.0004 63.2072 46.4209C62.6542 46.7829 62.094 47.4749 62.094 49.0558C62.094 50.8231 63.2049 52.2608 65.4163 53.7835C66.8624 54.7793 68.5802 55.6856 70.4718 56.6836C71.517 57.2349 72.6152 57.8143 73.7499 58.4522C79.9594 61.9431 86.5998 66.8943 86.5998 77.1194C86.5998 82.8463 84.2469 87.358 80.3725 90.4107C76.5283 93.4396 71.2661 94.9745 65.4842 94.9745C59.5961 94.9745 53.866 93.7947 49.7411 90.3635C45.5545 86.881 43.2465 81.2737 43.8333 72.9465L43.8401 72.8507L43.8624 72.7572C43.9765 72.279 44.2844 71.9606 44.5375 71.7685C44.7946 71.5733 45.0909 71.4339 45.3704 71.3294C45.9319 71.1195 46.639 70.9731 47.3912 70.8677C48.9114 70.6547 50.8524 70.5783 52.7466 70.6069C54.6425 70.6356 56.5474 70.7703 57.9999 70.9969C58.7165 71.1087 59.3795 71.2512 59.8884 71.437C60.1363 71.5275 60.4202 71.6538 60.6637 71.8398C60.8879 72.011 61.2886 72.4003 61.2886 73.0289V73.0447L61.2882 73.0606C61.1983 76.3694 61.5557 78.2018 62.1892 79.1999C62.7237 80.0421 63.581 80.4665 65.3036 80.4665C66.5691 80.4665 67.2891 80.1235 67.7057 79.6824C68.1338 79.2291 68.4266 78.4771 68.4266 77.2881C68.4266 75.4233 67.2966 73.8826 65.1271 72.2746C63.6067 71.1478 61.7603 70.1153 59.733 68.9816C58.831 68.4772 57.8932 67.9528 56.9324 67.3911C50.855 63.8385 44.2783 58.9947 44.2783 49.3932C44.2783 43.9929 46.1516 39.3913 49.7791 36.1519C53.3921 32.9256 58.6177 31.1631 65.1267 31.1631C71.6295 31.1631 76.8431 32.8993 80.4281 36.4629C84.0144 40.0278 85.7945 45.246 85.7945 51.8415V52.4157ZM84.6238 51.8415C84.6238 39.0563 77.7334 32.3338 65.1267 32.3338C52.5163 32.3338 45.449 39.1576 45.449 49.3932C45.449 59.65 53.4386 64.1188 60.2266 67.9154C65.2397 70.7193 69.5974 73.1566 69.5974 77.2881C69.5974 80.0176 68.2539 81.6373 65.3036 81.6373C61.4576 81.6373 59.9373 79.6801 60.1179 73.0289C60.1179 71.5854 45.4528 71.1355 45.0012 73.0289C43.8647 89.1546 53.9463 93.8038 65.4842 93.8038C76.6609 93.8038 85.4291 87.8649 85.4291 77.1194C85.4291 65.906 76.9884 61.4493 70.0145 57.767C65.1055 55.175 60.9232 52.9667 60.9232 49.0558C60.9232 45.2165 63.7833 44.7066 65.4842 44.7066C67.2717 44.7066 70.4893 45.0215 70.2258 52.1864C70.2258 54.0611 82.9191 53.1613 84.6238 51.8415Z" fill="#F83BFC"/>
</svg>
