<svg width="128" height="128" viewBox="0 0 128 128" fill="none" xmlns="http://www.w3.org/2000/svg">
<path d="M61.5656 75.1331L61.5675 75.1351C64.5779 78.2347 67.4018 81.0811 71.3418 82.0678C74.7469 82.9515 77.9801 82.7606 81.0083 81.4724C83.4339 80.4405 85.7055 78.7143 87.8211 76.3125C86.1237 81.7514 83.4829 85.8921 79.9214 88.761C75.8731 92.022 70.5838 93.681 64.0095 93.681C57.8976 93.681 53.4681 92.2572 49.9648 90.2308C46.4506 88.198 43.8472 85.5487 41.3839 83.0396C38.3921 79.9398 35.5496 77.0747 31.6094 76.0882C28.2048 75.2142 24.9719 75.4049 21.9436 76.6927C19.5182 77.7241 17.2467 79.4494 15.1312 81.8546C16.8288 76.4117 19.4696 72.2728 23.0325 69.4068C27.083 66.1486 32.377 64.494 38.9612 64.494C45.1081 64.494 49.5545 65.9136 53.0546 67.9373C56.5656 69.9672 59.1476 72.6164 61.5656 75.1331ZM46.9914 46.7064C44.566 47.7402 42.2945 49.4667 40.1789 51.8685C41.8764 46.4297 44.5174 42.289 48.0809 39.4202C52.1315 36.1592 57.4255 34.5 64.0095 34.5C70.1117 34.5 74.5364 35.9238 78.0374 37.9502C81.5496 39.9831 84.1531 42.6326 86.6165 45.1419C89.6255 48.24 92.4501 51.1063 96.3908 52.0929C99.7958 52.9669 103.029 52.7712 106.057 51.4806C108.482 50.4468 110.754 48.7203 112.869 46.3185C111.172 51.7574 108.531 55.8981 104.97 58.7669C100.921 62.0279 95.632 63.687 89.0577 63.687C82.9458 63.687 78.5163 62.2632 75.013 60.2368C71.4987 58.204 68.8953 55.5546 66.432 53.0455C63.4402 49.9457 60.5978 47.0807 56.6576 46.0942C53.2525 45.2201 50.0194 45.4158 46.9914 46.7064Z" stroke="#61DAFB"/>
</svg>
