<svg width="128" height="128" viewBox="0 0 128 128" fill="none" xmlns="http://www.w3.org/2000/svg">
<path d="M111.5 111.5H17.5V64.5V17.5H111.5V111.5Z" stroke="#2871FF"/>
<path fill-rule="evenodd" clip-rule="evenodd" d="M99.4962 64.12C98.1341 62.671 96.4327 61.5931 94.553 60.9788C94.2457 60.8784 93.9337 60.7904 93.6176 60.7152C93.597 60.7103 93.5763 60.7054 93.5556 60.7006C93.5547 60.7004 93.5538 60.7002 93.553 60.7V60.7152C93.5518 60.715 93.5507 60.7148 93.5496 60.7146C93.5222 60.7097 93.4949 60.7048 93.4675 60.7C93.1634 60.6464 92.8585 60.5988 92.553 60.557C90.494 60.2757 88.4058 60.262 86.3406 60.5176C81.1574 61.498 77.6082 64.804 76.5974 69.5388C76.3262 71.5613 76.3827 73.6142 76.7646 75.6188C77.2765 77.3734 78.1663 78.9946 79.3714 80.3688C81.3018 82.4512 83.4146 83.7584 88.3166 85.8712C92.565 87.7256 94.085 88.6148 94.845 89.6712C95.3867 90.4706 95.631 91.4348 95.5352 92.3958C95.4393 93.3567 95.0095 94.2536 94.3206 94.9304C92.2686 96.7772 88.119 96.9976 85.079 95.4016C83.6627 94.4998 82.4385 93.3272 81.4766 91.9512L80.9066 91.1076L78.1782 92.6884L74.6822 94.6948C74.3777 94.8582 74.0856 95.0436 73.8082 95.2496C73.7018 95.432 75.4042 97.9476 76.2782 98.9128C78.8833 101.553 82.261 103.297 85.9226 103.891C88.3218 104.217 90.7522 104.242 93.1578 103.967C98.4246 103.078 102.149 100.395 103.669 96.4428C105.037 92.81 104.588 87.9004 102.567 84.8604C100.758 82.1168 97.847 80.1864 91.045 77.2604C87.3514 75.6644 86.1734 74.8816 85.5426 73.5668C85.25 73.021 85.1083 72.4071 85.1322 71.7884C85.117 69.3032 86.9714 67.7908 89.8518 67.9884C90.7614 68.0223 91.6477 68.2862 92.4278 68.7553C93.208 69.2244 93.8565 69.8836 94.313 70.6712C94.7158 71.2716 95.0806 71.6668 95.1718 71.606C97.6722 70.0556 101.776 67.2816 101.776 67.16C101.143 66.0578 100.377 65.0369 99.4962 64.12ZM100.454 66.9175C99.9602 66.1664 99.3984 65.4617 98.775 64.8127L98.7675 64.8049C97.3626 63.3104 95.5633 62.247 93.5804 61.7361L93.376 61.6994C91.1049 61.2911 88.7855 61.2259 86.4952 61.5061C81.6976 62.424 78.5101 65.4382 77.5834 69.7101C77.3345 71.5978 77.3866 73.513 77.7379 75.3843C78.2098 76.9769 79.0203 78.4488 80.1142 79.6992C81.8977 81.62 83.8561 82.8598 88.7124 84.9529L88.7166 84.9547C90.8437 85.8832 92.3321 86.5887 93.3923 87.2064C94.4585 87.8276 95.1616 88.3989 95.6567 89.0872L95.6649 89.0986L95.6728 89.1102C96.3458 90.1034 96.6493 91.3011 96.5302 92.495C96.4112 93.6888 95.8772 94.8031 95.0213 95.6438L95.0057 95.6591L94.9895 95.6737C93.7411 96.7973 91.9435 97.3616 90.1218 97.4557C88.2866 97.5505 86.3081 97.1763 84.6141 96.287L84.5771 96.2676L84.5419 96.2451C83.0146 95.2726 81.6944 94.0081 80.657 92.5241L80.6524 92.5176L80.6004 92.4407L78.6759 93.5557L75.1676 95.5692L75.1551 95.5759C75.1363 95.586 75.1175 95.5962 75.0989 95.6065C75.2152 95.7926 75.3528 96.0037 75.5043 96.228C76.0116 96.9793 76.616 97.7926 77.0055 98.2262C79.4565 100.704 82.6301 102.341 86.07 102.902C88.3738 103.214 90.7075 103.239 93.0174 102.976C98.0208 102.125 101.375 99.6158 102.734 96.0874C103.998 92.7279 103.561 88.1614 101.734 85.4141L101.732 85.4108C100.101 82.9368 97.4446 81.1019 90.6498 78.179L90.6483 78.1784C87.0293 76.6146 85.4707 75.71 84.6508 74.0197C84.2848 73.3287 84.106 72.554 84.1321 71.7726C84.1285 70.2726 84.6968 68.9779 85.7776 68.1045C86.8418 67.2446 88.2908 66.8819 89.9048 66.9897C90.9778 67.0324 92.0228 67.3448 92.9432 67.8983C93.858 68.4485 94.6203 69.219 95.1605 70.1394C95.21 70.2127 95.2577 70.2807 95.3031 70.3433C96.4264 69.6317 97.7457 68.7644 98.8526 68.018C99.4856 67.5912 100.044 67.2074 100.454 66.9175ZM94.6504 70.7526C94.6472 70.7546 94.6439 70.7566 94.6407 70.7586L94.6448 70.7561C94.6467 70.7549 94.6485 70.7538 94.6504 70.7526ZM37.807 64.766V68.566H50.1722V103.708H58.9198V68.5736H71.2546V64.6824L71.209 60.7684H54.6334C45.5134 60.7532 37.959 60.7836 37.9134 60.8444C37.8093 62.1488 37.7738 63.4578 37.807 64.766ZM38.8503 61.8109C38.7964 62.7863 38.7818 63.7637 38.8066 64.7406L38.807 64.7533V67.566H51.1722V102.708H57.9198V67.5736H70.2546V64.6881L70.2205 61.7684H54.6317C50.0729 61.7608 45.9065 61.7646 42.8748 61.7779C41.3586 61.7845 40.1284 61.7935 39.2756 61.8046C39.1207 61.8067 38.9788 61.8087 38.8503 61.8109Z" fill="#131212"/>
</svg>
