<svg width="128" height="128" viewBox="0 0 128 128" fill="none" xmlns="http://www.w3.org/2000/svg">
<path d="M77.5701 90.1915C88.3498 79.412 88.4666 62.0073 77.9206 51.084L83.6738 45.331C97.3962 59.4319 97.2791 81.9874 83.3226 95.9441C69.3659 109.901 46.8104 110.018 32.7095 96.2952L38.4626 90.542C49.3859 101.088 66.7906 100.971 77.5701 90.1915Z" stroke="#97EE5B"/>
<path d="M64.9956 64.0091L70.7521 58.2526C77.341 65.2159 77.2248 76.2036 70.4034 83.025C63.5818 89.8464 52.5943 89.9627 45.6309 83.3737L51.3874 77.6172C55.1698 81.0317 61.0068 80.9168 64.6511 77.2727L64.6511 77.2727C68.2952 73.6284 68.4101 67.7914 64.9956 64.0091Z" stroke="#97EE5B"/>
<path d="M45.2719 32.056C59.2285 18.0994 81.784 17.9823 95.8849 31.7048L90.1316 37.458C79.2085 26.912 61.8038 27.0288 51.0241 37.8085C40.2447 48.588 40.1279 65.9927 50.6737 76.916L44.9207 82.6691C31.1981 68.5682 31.3152 46.0127 45.2719 32.056Z" stroke="#131212"/>
<path d="M63.9445 50.7274L63.9445 50.7274C60.3004 54.3717 60.1855 60.2087 63.6 63.991L57.8435 69.7475C51.2544 62.7841 51.3706 51.7966 58.1922 44.9751C65.0136 38.1537 76.0014 38.0374 82.9648 44.6264L77.2081 50.3829C73.4256 46.9684 67.5887 47.0833 63.9445 50.7274Z" stroke="#131212"/>
</svg>
