<svg width="128" height="128" viewBox="0 0 128 128" fill="none" xmlns="http://www.w3.org/2000/svg">
<path fill-rule="evenodd" clip-rule="evenodd" d="M43.4743 70.6851C41.5558 72.5644 39.6798 73.9735 36.0972 73.9735C32.5146 73.9735 28.9604 71.4111 29.6245 65.6446C30.2744 59.9341 34.5185 57.073 38.384 57.073C41.831 57.073 43.8141 59.2522 43.8141 61.3302C43.8141 63.3952 43.1358 66.2005 34.2781 67.0837C34.2781 69.6889 35.689 70.3149 37.0714 70.3149C37.8447 70.3391 38.61 70.1519 39.2858 69.7734C39.6373 69.59 41.2657 68.8481 42.7647 69.9803C42.792 70.0009 42.8192 70.0222 42.8464 70.044C43.0603 70.216 43.271 70.4273 43.4743 70.6851ZM35.3563 67.9697C35.4625 68.4964 35.6589 68.7802 35.8324 68.9394C36.1014 69.1862 36.5116 69.3149 37.0714 69.3149H37.087L37.1026 69.3154C37.694 69.3339 38.2796 69.1908 38.7971 68.9009L38.8101 68.8936L38.8232 68.8868C39.091 68.7471 39.8896 68.374 40.9058 68.3653C41.9768 68.356 43.2262 68.7562 44.2594 70.0656L44.3074 70.1265L45.9942 55.9753C46.4671 52.0285 49.0102 49 52.4883 49H53.6187L52.6083 57.2262C53.6667 56.493 54.895 56.0327 56.341 56.0327H56.7291L56.7581 56.0591C57.9929 56.1423 59.2535 56.619 60.2299 57.7198C60.6878 58.2362 61.0618 58.8657 61.3409 59.6139C61.5261 58.8115 61.9149 58.0971 62.4116 57.5508C62.8062 57.1168 63.314 56.7435 63.8881 56.5527C64.2183 54.5022 64.9416 52.6537 66.4548 51.3011C68.1238 49.8091 70.5784 49.0765 74.0021 49.0987L74.7772 49.1038V49.0935H75.7772C78.7096 49.0935 81.2732 52.2867 80.7439 56.6075L79.1512 69.518C79.1511 69.5191 79.151 69.5202 79.1508 69.5213C78.7195 73.12 76.3498 76.3401 72.6858 76.3929L72.6785 76.393H72.6713C72.6245 76.393 72.5828 76.3909 72.5523 76.3889C72.5237 76.3871 72.4961 76.3848 72.4783 76.3833L72.4754 76.383C72.4548 76.3813 72.4451 76.3805 72.4376 76.38H71.2222L72.0247 72.4422L74.3965 53.1344C74.2537 53.4614 74.0366 53.7719 73.7302 54.0352C73.2584 54.4406 72.6405 54.6781 71.914 54.7517C71.3331 54.817 71.084 55.0122 70.9071 55.2929C70.7528 55.5377 70.6267 55.8946 70.5269 56.4171H73.8431L73.5688 58.165C73.3131 60.2127 71.8267 61.7601 70.1701 61.7601H70.0238L68.6873 72.9116C68.4514 74.8426 67.7903 76.5553 66.6934 77.8188C65.5809 79.1002 64.0566 79.8729 62.2305 79.9405L62.212 79.9412H62.1935C62.1466 79.9412 62.105 79.939 62.0743 79.9371C62.059 79.9361 62.044 79.9349 62.0307 79.9339C62.0177 79.9328 62.0063 79.9319 61.9978 79.9312C61.9773 79.9294 61.9678 79.9287 61.9604 79.9282H60.7431L61.5467 76.0056L63.255 61.7627H61.8382C61.8932 62.2319 61.9229 62.731 61.9261 63.2606L61.9261 63.2667C61.9261 66.0493 61.0632 68.926 59.5454 71.1308C58.0272 73.3363 55.7688 74.9735 52.9844 74.9735C51.2974 74.9735 50.02 74.3505 49.0791 73.4865C47.876 74.4026 46.2659 74.7176 44.8864 74.7176H43.7602L44.1533 71.4198C43.1786 72.373 42.1482 73.273 40.8625 73.9257C39.5523 74.5909 38.0302 74.9735 36.0972 74.9735C34.0765 74.9735 32.0069 74.2501 30.5327 72.6488C29.0441 71.0319 28.273 68.6412 28.631 65.5309C28.6897 65.0151 28.7757 64.5199 28.8865 64.0454L26.6185 69.6723C26.0877 70.9563 25.302 72.25 24.131 73.2276C22.9421 74.2202 21.403 74.8462 19.4632 74.8462H18.5958L18.4733 73.9874L19.4632 73.8462C22.8766 73.8462 24.7112 71.6682 25.6944 69.2902L30.4746 57.4301C30.0816 57.4301 29.7103 57.4618 29.3596 57.5216C27.1165 57.9043 25.7132 59.4401 24.8441 61.2277C24.6863 61.5522 24.5462 61.885 24.4218 62.2207C24.421 62.2228 24.4202 62.2248 24.4195 62.2269C24.4196 62.2267 24.4194 62.2272 24.4195 62.2269L24.4218 62.2277L22.3624 68.7629L20.9089 57.4158C17.6661 57.4158 15.922 59.751 15.0124 62.2134L12.5009 68.7772L12.1482 62.2835C11.9859 59.7229 9.98824 58.0129 8.03324 57.5532C7.68379 57.471 7.3357 57.4288 6.9997 57.4288L9.67923 73.8449C13.0771 73.8319 14.9117 71.5098 15.8716 69.0474L17.9956 63.4667C18.001 63.5299 18.1169 64.3606 18.2814 65.5271C18.7085 68.5553 19.4632 73.8462 19.4632 73.8462C18.4733 73.9874 18.4733 73.9875 18.4733 73.9874L18.2466 72.3974C18.1105 71.442 17.9289 70.1657 17.7466 68.8823C17.6791 68.4071 17.6111 67.9278 17.545 67.4618L16.8033 69.4106C15.7734 72.0526 13.6731 74.8297 9.68305 74.8449L8.82975 74.8482L5.82324 56.4288H6.9997C9.64854 56.4288 12.9159 58.5858 13.1462 62.2203L13.1467 62.2293L13.2448 64.0349L14.0764 61.8613C15.0436 59.2465 17.043 56.4158 20.9089 56.4158H21.789L22.7762 64.1226L23.0582 63.2277H22.9832L23.4813 61.8808C24.4628 59.2269 26.5001 56.4301 30.4746 56.4301H31.9558L30.2028 60.7795C32.0946 57.6684 35.3191 56.073 38.384 56.073C42.2459 56.073 44.8141 58.572 44.8141 61.3302C44.8141 62.5056 44.6092 64.0766 43.01 65.4166C41.6118 66.5882 39.2546 67.4872 35.3563 67.9697ZM48.3943 72.7482C48.6688 72.5504 48.9136 72.3191 49.1189 72.0513C49.3216 72.3155 49.5491 72.5666 49.8045 72.7949C50.5811 73.4895 51.6145 73.9735 52.9844 73.9735C57.6949 73.9735 60.9261 68.4499 60.9261 63.2667C60.8977 58.5392 58.6264 57.0457 56.3552 57.0457L56.341 57.0327C54.8066 57.0327 53.5366 57.6472 52.4349 58.6378C52.0312 59.0008 51.6501 59.4143 51.2869 59.8665C51.2866 59.8669 51.2863 59.8673 51.286 59.8677C51.2828 59.8716 51.2796 59.8756 51.2765 59.8795V59.8665L52.4883 50C52.1389 50 51.7976 50.0383 51.467 50.1126C49.1555 50.6316 47.3692 52.9054 46.9872 56.0937L44.8864 73.7176C45.2231 73.7176 45.564 73.697 45.9012 73.6535C46.8143 73.5356 47.6992 73.2494 48.3943 72.7482ZM64.3821 60.7627L62.5346 76.1658L61.9687 78.9282C62.0044 78.9282 62.0434 78.9315 62.0822 78.9347C62.1206 78.938 62.1588 78.9412 62.1935 78.9412C62.4732 78.9308 62.7437 78.9012 63.0049 78.8533C65.6268 78.3717 67.2976 76.0408 67.6947 72.7903L69.1365 60.7601H70.1701C71.1055 60.7601 72.1857 59.8894 72.5118 58.4171C72.5397 58.2912 72.562 58.1608 72.5783 58.0262L72.6739 57.4171H69.3872L69.4001 57.2457C69.4309 56.9505 69.467 56.6744 69.5106 56.4171C69.7865 54.7889 70.3624 53.9176 71.8083 53.7573C72.9517 53.643 73.4594 53.0456 73.5861 52.391L73.9956 50.0987C73.6432 50.0964 73.3037 50.1025 72.9766 50.1166C67.188 50.3676 65.293 53.1646 64.7904 57.3171L64.7775 57.4171H64.7064C63.7356 57.4171 62.6737 58.421 62.3337 59.7627C62.2982 59.903 62.2705 60.0469 62.2517 60.1938L62.1806 60.7627H64.3821ZM75.7772 50.0961L73.0124 72.6033L72.4465 75.38C72.4814 75.38 72.5202 75.3833 72.5589 75.3865C72.5977 75.3898 72.6365 75.393 72.6713 75.393C72.9487 75.389 73.2186 75.3625 73.4803 75.315C76.0252 74.8532 77.7987 72.4081 78.1583 69.3993L79.7513 56.4859C80.1601 53.1488 78.5575 50.8827 76.7641 50.2641C76.6755 50.2335 76.5865 50.207 76.4972 50.1846C76.2978 50.1344 76.0972 50.1047 75.8978 50.0961C75.8575 50.0944 75.8173 50.0935 75.7772 50.0935V50.0961ZM39.4333 61.6726C39.4347 61.6576 39.4359 61.6425 39.4368 61.6274C39.4458 61.4743 39.4251 61.3207 39.3756 61.1753C39.321 61.015 39.2327 60.8684 39.1168 60.7454C39.0008 60.6225 38.8599 60.526 38.7036 60.4627C38.6478 60.4401 38.5905 60.4219 38.5323 60.4081C38.4273 60.3834 38.3192 60.3733 38.2109 60.3783C37.4772 60.3783 35.9805 60.5768 34.9912 62.9587C34.8604 63.2736 34.7384 63.6267 34.6283 64.0225C35.0268 63.9679 35.3919 63.9096 35.7264 63.848C38.1192 63.408 38.9477 62.807 39.2476 62.2857C39.2547 62.2734 39.2615 62.2612 39.268 62.2489C39.3697 62.058 39.4027 61.8787 39.4191 61.7231C39.4209 61.7063 39.4224 61.6897 39.4239 61.6735C39.4239 61.6729 39.424 61.6724 39.424 61.6718L39.4331 61.6744C39.4331 61.6738 39.4332 61.6732 39.4333 61.6726ZM38.434 61.5153C38.4326 61.5093 38.4309 61.5034 38.4289 61.4976C38.4204 61.4726 38.4068 61.4501 38.3892 61.4315C38.3717 61.4129 38.3508 61.3987 38.328 61.3894C38.3052 61.3802 38.2809 61.3761 38.2567 61.3772L38.2338 61.3783H38.2109C37.9087 61.3783 37.4864 61.4223 37.0477 61.7396C36.7975 61.9205 36.5007 62.2205 36.2123 62.7281C37.258 62.4905 37.8239 62.2353 38.1231 62.031C38.32 61.8966 38.3733 61.803 38.3882 61.7734C38.4056 61.7388 38.4177 61.6987 38.4279 61.5834L38.434 61.5153ZM55.903 65.5031C56.3978 62.5991 55.7777 60.7627 54.4082 60.7627C53.0116 60.7627 51.6705 62.8978 51.1072 64.2368C50.5439 65.5758 50.3605 67.1291 50.0633 69.6617C50.0633 69.6617 50.7416 70.3591 52.2777 70.3591C53.8139 70.3591 55.4108 68.3941 55.9017 65.5044L55.903 65.5031ZM54.9449 65.1657C55.1467 63.8777 55.0896 62.9311 54.9027 62.35C54.8074 62.0536 54.6959 61.9061 54.6221 61.84C54.5645 61.7885 54.5072 61.7627 54.4082 61.7627C54.1922 61.7627 53.7678 61.9679 53.2156 62.6352C52.7111 63.2449 52.2817 64.0238 52.029 64.6246C51.5743 65.7055 51.3908 66.9638 51.13 69.155C51.372 69.2556 51.7476 69.3591 52.2777 69.3591C52.6105 69.3591 53.1333 69.1316 53.6876 68.4075C54.2248 67.7059 54.6926 66.651 54.9158 65.3369L54.9449 65.1657ZM89.7704 57.1301C93.1993 57.1301 96.2302 59.5367 96.2251 64.0498C96.2251 68.5902 93.0275 74.0449 87.4436 74.0449C81.8598 74.0449 80.1957 68.8071 81.2939 64.3784C82.392 59.9497 85.9747 57.1314 89.7691 57.1314L89.7704 57.1301ZM89.3425 56.1418L89.3541 56.1301H89.7704C91.7181 56.1301 93.5942 56.8154 94.9866 58.1845C96.3869 59.5612 97.2279 61.56 97.2251 64.0509C97.2251 64.0506 97.2251 64.0502 97.2251 64.0498M89.3425 56.1418C85.2043 56.3442 81.4793 59.4758 80.3233 64.1377C79.7299 66.5308 79.8617 69.2088 80.9773 71.3367C82.1259 73.5277 84.2782 75.0449 87.4436 75.0449C90.5974 75.0449 93.0666 73.4933 94.7186 71.3628C96.356 69.2509 97.2248 66.5355 97.2251 64.0509M91.308 65.3604C91.308 65.3598 91.3081 65.3592 91.3081 65.3587C91.3526 64.9075 91.381 64.4541 91.3825 64.0174C91.3885 62.2634 90.9617 60.777 89.4087 60.777C87.2511 60.777 86.2498 63.3537 85.9953 65.1615C85.7628 66.8564 85.4385 70.4149 87.8364 70.4149C89.7793 70.4149 90.7231 68.4145 91.1157 66.5873C91.2074 66.1605 91.269 65.7432 91.3063 65.3631C91.3063 65.3625 91.3064 65.362 91.3065 65.3614C91.3065 65.361 91.3065 65.3606 91.3066 65.3602L91.3079 65.3615C91.3079 65.3611 91.3079 65.3608 91.308 65.3604ZM90.3343 65.0278C90.4198 64.0165 90.3985 63.1266 90.2123 62.5089C90.1159 62.1889 89.9963 62.0152 89.8936 61.9246C89.8096 61.8504 89.6777 61.777 89.4087 61.777C88.7969 61.777 88.2797 62.1222 87.8329 62.8269C87.3805 63.5402 87.1003 64.4871 86.9857 65.2997C86.8699 66.1446 86.7542 67.3202 86.9149 68.2542C86.9951 68.7197 87.1276 69.0199 87.2694 69.1884C87.3761 69.3151 87.5218 69.4149 87.8364 69.4149C88.5188 69.4149 89.0633 69.0113 89.5158 68.1678C89.9728 67.3159 90.2199 66.1971 90.3113 65.2629L90.3343 65.0278ZM102.711 62.2692C102.711 62.2692 102.834 64.4582 102.935 66.3C103.002 67.5135 103.058 68.5762 103.063 68.7629L105.575 62.1991C106.485 59.7367 108.221 57.4015 111.464 57.4015C111.464 57.4015 112.19 63.038 112.616 66.3725C112.781 67.6609 112.9 68.6057 112.916 68.7486L114.975 62.2134H114.962C114.963 62.2122 114.963 62.2109 114.964 62.2097C114.968 62.1992 114.971 62.1887 114.975 62.1781C115.095 61.852 115.231 61.5288 115.383 61.2134C116.245 59.4267 117.648 57.8914 119.884 57.5078C120.235 57.4477 120.607 57.4158 121 57.4158L116.216 69.2759C115.225 71.6539 113.398 73.8319 109.984 73.8319C109.984 73.8319 109.228 68.5526 108.801 65.5227C108.636 64.351 108.52 63.5158 108.517 63.4524L106.401 69.0331C105.441 71.4955 103.606 73.8176 100.208 73.8306L97.5429 57.4145C97.879 57.4145 98.2269 57.4564 98.576 57.538C100.537 57.9965 102.537 59.707 102.711 62.2692ZM108.066 67.4625C108.131 67.9217 108.198 68.3955 108.265 68.8683C108.448 70.1518 108.63 71.4282 108.767 72.3836L108.994 73.9719L108.994 73.9733C108.995 73.9734 108.995 73.9738 109.984 73.8319L108.994 73.9733L109.118 74.8319H109.984C111.924 74.8319 113.462 74.2058 114.65 73.213C115.819 72.2355 116.604 70.9424 117.139 69.6606L122.481 56.4158H121C117.034 56.4158 114.992 59.2128 114.023 61.8708L113.533 63.2134H113.612L113.333 64.0975C113.276 63.6553 113.218 63.2041 113.161 62.7553C112.983 61.3689 112.806 59.9985 112.675 58.9747L112.456 57.2742C112.456 57.2741 112.456 57.2737 111.464 57.4015L112.456 57.2742L112.343 56.4015H111.464C107.596 56.4015 105.605 59.2343 104.639 61.8475C104.638 61.8492 104.638 61.8509 104.637 61.8526L103.81 64.0134C103.793 63.702 103.777 63.413 103.762 63.1618L103.709 62.2173L103.709 62.214L103.709 62.213L103.708 62.2017C103.463 58.5712 100.201 56.4145 97.5429 56.4145H96.3674L99.358 74.8339L100.212 74.8306C104.202 74.8154 106.302 72.0383 107.332 69.3963L108.066 67.4625Z" fill="#2871FF"/>
</svg>
